<svg width="1920" height="1080" viewBox="0 0 1920 1080" fill="none" xmlns="http://www.w3.org/2000/svg">
<g clip-path="url(#clip0_226_2729)">
<rect width="1920" height="1080" fill="#130F1D"/>
<g clip-path="url(#clip1_226_2729)">
<path d="M1790.64 174C1713.12 174 1641.26 198.158 1582.06 239.343C1522.74 198.158 1450.88 174 1373.36 174C1171.35 174 1007 338.162 1007 539.942C1007 741.723 1171.35 906 1373.36 906C1450.88 906 1522.74 881.842 1581.94 840.657C1641.14 881.842 1713.01 906 1790.52 906C1992.53 906 2157 741.838 2157 539.942C2157 338.047 1992.65 174 1790.64 174ZM1373.36 844.569C1205.21 844.569 1068.39 707.901 1068.39 539.942C1068.39 371.984 1205.33 235.431 1373.36 235.431C1431.64 235.431 1486.23 251.882 1532.53 280.412C1465.62 346.79 1424.04 438.707 1424.04 540.058C1424.04 641.408 1465.62 733.325 1532.53 799.703C1486.12 828.233 1431.64 844.684 1373.36 844.684V844.569ZM1678.34 539.942C1678.34 627.373 1641.26 706.29 1581.94 761.855C1522.74 706.29 1485.54 627.373 1485.54 539.942C1485.54 452.512 1522.63 373.595 1581.94 318.03C1641.14 373.595 1678.34 452.512 1678.34 539.942ZM1790.52 844.569C1732.24 844.569 1677.65 828.118 1631.35 799.588C1698.27 733.21 1739.84 641.293 1739.84 539.942C1739.84 438.592 1698.27 346.675 1631.35 280.297C1677.77 251.767 1732.24 235.316 1790.52 235.316C1958.67 235.316 2095.5 371.984 2095.5 539.942C2095.5 707.901 1958.67 844.569 1790.52 844.569Z" fill="#FB2443"/>
</g>
<g clip-path="url(#clip2_226_2729)">
<path d="M897.572 67.9135L890.148 134.794L956.501 158.092L933.736 172.465L883.685 155.927L877.266 208.115L854.501 222.487L861.827 152.674L798.428 130.506L821.193 116.133L868.509 131.888L874.807 82.2857L897.572 67.9135Z" fill="#FB2443"/>
</g>
<g clip-path="url(#clip3_226_2729)">
<path d="M111.21 979.252L108.599 1002.32L105.987 1025.38L68.6421 997.776L89.9262 988.514L111.21 979.252ZM119.532 967.994L87.1336 982.097L54.7289 996.209L111.566 1038.22L115.546 1003.11L119.532 967.994Z" fill="#FB2443"/>
</g>
</g>
<defs>
<clipPath id="clip0_226_2729">
<rect width="1920" height="1080" fill="white"/>
</clipPath>
<clipPath id="clip1_226_2729">
<rect width="1150" height="732" fill="white" transform="translate(1007 174)"/>
</clipPath>
<clipPath id="clip2_226_2729">
<rect width="120.649" height="107.713" fill="white" transform="translate(797 131.407) rotate(-32.2651)"/>
</clipPath>
<clipPath id="clip3_226_2729">
<rect width="70.68" height="61.21" fill="white" transform="translate(91.1138 946.987) rotate(36.4718)"/>
</clipPath>
</defs>
</svg>
