<svg width="1920" height="1080" viewBox="0 0 1920 1080" fill="none" xmlns="http://www.w3.org/2000/svg">
<g clip-path="url(#clip0_235_2729)">
<rect width="1920" height="1080" fill="#130F1D"/>
<path opacity="0.32" d="M374.808 68.1011L197.617 289.928L197.369 290.239L197.616 290.551L381.966 523.101H269.186L127.451 350.967L127.064 350.497L126.678 350.968L-14.1873 523.101H-126.969L56.5149 290.55L56.7602 290.239L56.5138 289.929L-119.812 68.1011H-7.03487L126.678 231.251L127.064 231.722L127.451 231.252L262.034 68.1011H374.808Z" stroke="white"/>
<g opacity="0.32" clip-path="url(#clip1_235_2729)">
<path d="M1865.01 810.004L1865.07 810.346L1865.41 810.408C1900.12 816.616 1933.3 833.09 1960.08 859.872C2029.88 929.671 2029.92 1043.21 1960.08 1113.04C1890.25 1182.88 1776.63 1182.84 1706.83 1113.04C1680.05 1086.26 1663.58 1053.08 1657.37 1018.37L1657.31 1018.03L1656.96 1017.97C1622.26 1011.76 1589.08 995.288 1562.29 968.506C1492.49 898.707 1492.53 785.093 1562.33 715.294C1632.13 645.494 1745.71 645.494 1815.51 715.294C1842.29 742.075 1858.76 775.263 1865.01 810.004ZM1834.1 807.502L1834.73 807.505L1834.58 806.887C1828.42 780.861 1815.16 756.156 1794.9 735.896C1736.49 677.479 1641.35 677.398 1582.9 735.856C1524.56 794.196 1524.44 889.063 1582.54 947.55L1582.5 947.59L1582.86 947.944C1603.12 968.204 1627.78 981.417 1653.85 987.623L1654.46 987.77L1654.46 987.135C1654.3 941.051 1671.73 894.89 1706.79 859.832C1741.85 824.774 1788.01 807.343 1834.1 807.502ZM1683.71 991.143L1683.73 991.612L1684.2 991.627C1724.15 992.908 1764.51 978.334 1794.94 947.904C1825.37 917.473 1839.91 877.073 1838.67 837.156L1838.65 836.686L1838.18 836.671C1798.23 835.39 1757.86 849.964 1727.43 880.395C1697 910.825 1682.47 951.226 1683.71 991.143ZM1688.24 1020.84L1687.61 1020.83L1687.75 1021.45C1693.92 1047.48 1707.17 1072.18 1727.43 1092.44C1785.89 1150.9 1881.02 1150.9 1939.48 1092.44C1997.94 1033.98 1997.94 938.852 1939.48 880.395C1919.22 860.135 1894.56 846.921 1868.49 840.715L1867.87 840.568L1867.88 841.203C1868.03 887.287 1850.6 933.448 1815.55 968.506C1780.49 1003.56 1734.33 1021 1688.24 1020.84Z" stroke="white"/>
</g>
<g clip-path="url(#clip2_235_2729)">
<g opacity="0.32">
<path d="M1506.8 604C1502.28 604 1498.59 600.316 1498.59 595.797C1498.59 591.279 1502.28 587.595 1506.8 587.595C1511.32 587.595 1515 591.279 1515 595.797C1515 600.316 1511.32 604 1506.8 604ZM1506.8 588.955C1503.03 588.955 1499.95 592.025 1499.95 595.797C1499.95 599.57 1503.03 602.64 1506.8 602.64C1510.57 602.64 1513.64 599.57 1513.64 595.797C1513.64 592.025 1510.57 588.955 1506.8 588.955Z" fill="white"/>
<path d="M1506.8 552.327C1502.28 552.327 1498.59 548.643 1498.59 544.125C1498.59 539.607 1502.28 535.922 1506.8 535.922C1511.32 535.922 1515 539.607 1515 544.125C1515 548.643 1511.32 552.327 1506.8 552.327ZM1506.8 537.282C1503.03 537.282 1499.95 540.352 1499.95 544.125C1499.95 547.897 1503.03 550.968 1506.8 550.968C1510.57 550.968 1513.64 547.897 1513.64 544.125C1513.64 540.352 1510.57 537.282 1506.8 537.282Z" fill="white"/>
<path d="M1506.8 500.699C1502.28 500.699 1498.59 497.014 1498.59 492.496C1498.59 487.978 1502.28 484.293 1506.8 484.293C1511.32 484.293 1515 487.978 1515 492.496C1515 497.014 1511.32 500.699 1506.8 500.699ZM1506.8 485.653C1503.03 485.653 1499.95 488.724 1499.95 492.496C1499.95 496.268 1503.03 499.339 1506.8 499.339C1510.57 499.339 1513.64 496.268 1513.64 492.496C1513.64 488.724 1510.57 485.653 1506.8 485.653Z" fill="white"/>
<path d="M1506.8 449.026C1502.28 449.026 1498.59 445.341 1498.59 440.823C1498.59 436.305 1502.28 432.621 1506.8 432.621C1511.32 432.621 1515 436.305 1515 440.823C1515 445.341 1511.32 449.026 1506.8 449.026ZM1506.8 433.981C1503.03 433.981 1499.95 437.051 1499.95 440.823C1499.95 444.596 1503.03 447.666 1506.8 447.666C1510.57 447.666 1513.64 444.596 1513.64 440.823C1513.64 437.051 1510.57 433.981 1506.8 433.981Z" fill="white"/>
<path d="M1506.8 397.353C1502.28 397.353 1498.59 393.669 1498.59 389.151C1498.59 384.633 1502.28 380.948 1506.8 380.948C1511.32 380.948 1515 384.633 1515 389.151C1515 393.669 1511.32 397.353 1506.8 397.353ZM1506.8 382.308C1503.03 382.308 1499.95 385.378 1499.95 389.151C1499.95 392.923 1503.03 395.994 1506.8 395.994C1510.57 395.994 1513.64 392.923 1513.64 389.151C1513.64 385.378 1510.57 382.308 1506.8 382.308Z" fill="white"/>
<path d="M1506.8 345.725C1502.28 345.725 1498.59 342.04 1498.59 337.522C1498.59 333.004 1502.28 329.319 1506.8 329.319C1511.32 329.319 1515 333.004 1515 337.522C1515 342.04 1511.32 345.725 1506.8 345.725ZM1506.8 330.679C1503.03 330.679 1499.95 333.75 1499.95 337.522C1499.95 341.294 1503.03 344.365 1506.8 344.365C1510.57 344.365 1513.64 341.294 1513.64 337.522C1513.64 333.75 1510.57 330.679 1506.8 330.679Z" fill="white"/>
<path d="M1506.8 294.052C1502.28 294.052 1498.59 290.367 1498.59 285.849C1498.59 281.331 1502.28 277.647 1506.8 277.647C1511.32 277.647 1515 281.331 1515 285.849C1515 290.367 1511.32 294.052 1506.8 294.052ZM1506.8 279.007C1503.03 279.007 1499.95 282.077 1499.95 285.849C1499.95 289.622 1503.03 292.692 1506.8 292.692C1510.57 292.692 1513.64 289.622 1513.64 285.849C1513.64 282.077 1510.57 279.007 1506.8 279.007Z" fill="white"/>
<path d="M1506.8 242.423C1502.28 242.423 1498.59 238.739 1498.59 234.221C1498.59 229.703 1502.28 226.018 1506.8 226.018C1511.32 226.018 1515 229.703 1515 234.221C1515 238.739 1511.32 242.423 1506.8 242.423ZM1506.8 227.378C1503.03 227.378 1499.95 230.448 1499.95 234.221C1499.95 237.993 1503.03 241.064 1506.8 241.064C1510.57 241.064 1513.64 237.993 1513.64 234.221C1513.64 230.448 1510.57 227.378 1506.8 227.378Z" fill="white"/>
<path d="M1506.8 190.751C1502.28 190.751 1498.59 187.066 1498.59 182.548C1498.59 178.03 1502.28 174.345 1506.8 174.345C1511.32 174.345 1515 178.03 1515 182.548C1515 187.066 1511.32 190.751 1506.8 190.751ZM1506.8 175.705C1503.03 175.705 1499.95 178.776 1499.95 182.548C1499.95 186.32 1503.03 189.391 1506.8 189.391C1510.57 189.391 1513.64 186.32 1513.64 182.548C1513.64 178.776 1510.57 175.705 1506.8 175.705Z" fill="white"/>
<path d="M1506.8 139.078C1502.28 139.078 1498.59 135.393 1498.59 130.875C1498.59 126.357 1502.28 122.673 1506.8 122.673C1511.32 122.673 1515 126.357 1515 130.875C1515 135.393 1511.32 139.078 1506.8 139.078ZM1506.8 124.032C1503.03 124.032 1499.95 127.103 1499.95 130.875C1499.95 134.648 1503.03 137.718 1506.8 137.718C1510.57 137.718 1513.64 134.648 1513.64 130.875C1513.64 127.103 1510.57 124.032 1506.8 124.032Z" fill="white"/>
<path d="M1506.8 87.4493C1502.28 87.4493 1498.59 83.7647 1498.59 79.2466C1498.59 74.7286 1502.28 71.0439 1506.8 71.0439C1511.32 71.0439 1515 74.7286 1515 79.2466C1515 83.7647 1511.32 87.4493 1506.8 87.4493ZM1506.8 72.4038C1503.03 72.4038 1499.95 75.4743 1499.95 79.2466C1499.95 83.019 1503.03 86.0895 1506.8 86.0895C1510.57 86.0895 1513.64 83.019 1513.64 79.2466C1513.64 75.4743 1510.57 72.4038 1506.8 72.4038Z" fill="white"/>
<path d="M1455.12 604C1450.61 604 1446.92 600.316 1446.92 595.797C1446.92 591.279 1450.61 587.595 1455.12 587.595C1459.64 587.595 1463.33 591.279 1463.33 595.797C1463.33 600.316 1459.64 604 1455.12 604ZM1455.12 588.955C1451.35 588.955 1448.28 592.025 1448.28 595.797C1448.28 599.57 1451.35 602.64 1455.12 602.64C1458.9 602.64 1461.97 599.57 1461.97 595.797C1461.97 592.025 1458.9 588.955 1455.12 588.955Z" fill="white"/>
<path d="M1455.12 552.327C1450.61 552.327 1446.92 548.643 1446.92 544.125C1446.92 539.607 1450.61 535.922 1455.12 535.922C1459.64 535.922 1463.33 539.607 1463.33 544.125C1463.33 548.643 1459.64 552.327 1455.12 552.327ZM1455.12 537.282C1451.35 537.282 1448.28 540.352 1448.28 544.125C1448.28 547.897 1451.35 550.968 1455.12 550.968C1458.9 550.968 1461.97 547.897 1461.97 544.125C1461.97 540.352 1458.9 537.282 1455.12 537.282Z" fill="white"/>
<path d="M1455.12 500.699C1450.61 500.699 1446.92 497.014 1446.92 492.496C1446.92 487.978 1450.61 484.293 1455.12 484.293C1459.64 484.293 1463.33 487.978 1463.33 492.496C1463.33 497.014 1459.64 500.699 1455.12 500.699ZM1455.12 485.653C1451.35 485.653 1448.28 488.724 1448.28 492.496C1448.28 496.268 1451.35 499.339 1455.12 499.339C1458.9 499.339 1461.97 496.268 1461.97 492.496C1461.97 488.724 1458.9 485.653 1455.12 485.653Z" fill="white"/>
<path d="M1455.12 449.026C1450.61 449.026 1446.92 445.341 1446.92 440.823C1446.92 436.305 1450.61 432.621 1455.12 432.621C1459.64 432.621 1463.33 436.305 1463.33 440.823C1463.33 445.341 1459.64 449.026 1455.12 449.026ZM1455.12 433.981C1451.35 433.981 1448.28 437.051 1448.28 440.823C1448.28 444.596 1451.35 447.666 1455.12 447.666C1458.9 447.666 1461.97 444.596 1461.97 440.823C1461.97 437.051 1458.9 433.981 1455.12 433.981Z" fill="white"/>
<path d="M1455.12 397.353C1450.61 397.353 1446.92 393.669 1446.92 389.151C1446.92 384.633 1450.61 380.948 1455.12 380.948C1459.64 380.948 1463.33 384.633 1463.33 389.151C1463.33 393.669 1459.64 397.353 1455.12 397.353ZM1455.12 382.308C1451.35 382.308 1448.28 385.378 1448.28 389.151C1448.28 392.923 1451.35 395.994 1455.12 395.994C1458.9 395.994 1461.97 392.923 1461.97 389.151C1461.97 385.378 1458.9 382.308 1455.12 382.308Z" fill="white"/>
<path d="M1455.12 345.725C1450.61 345.725 1446.92 342.04 1446.92 337.522C1446.92 333.004 1450.61 329.319 1455.12 329.319C1459.64 329.319 1463.33 333.004 1463.33 337.522C1463.33 342.04 1459.64 345.725 1455.12 345.725ZM1455.12 330.679C1451.35 330.679 1448.28 333.75 1448.28 337.522C1448.28 341.294 1451.35 344.365 1455.12 344.365C1458.9 344.365 1461.97 341.294 1461.97 337.522C1461.97 333.75 1458.9 330.679 1455.12 330.679Z" fill="white"/>
<path d="M1455.12 294.052C1450.61 294.052 1446.92 290.367 1446.92 285.849C1446.92 281.331 1450.61 277.647 1455.12 277.647C1459.64 277.647 1463.33 281.331 1463.33 285.849C1463.33 290.367 1459.64 294.052 1455.12 294.052ZM1455.12 279.007C1451.35 279.007 1448.28 282.077 1448.28 285.849C1448.28 289.622 1451.35 292.692 1455.12 292.692C1458.9 292.692 1461.97 289.622 1461.97 285.849C1461.97 282.077 1458.9 279.007 1455.12 279.007Z" fill="white"/>
<path d="M1455.12 242.423C1450.61 242.423 1446.92 238.739 1446.92 234.221C1446.92 229.703 1450.61 226.018 1455.12 226.018C1459.64 226.018 1463.33 229.703 1463.33 234.221C1463.33 238.739 1459.64 242.423 1455.12 242.423ZM1455.12 227.378C1451.35 227.378 1448.28 230.448 1448.28 234.221C1448.28 237.993 1451.35 241.064 1455.12 241.064C1458.9 241.064 1461.97 237.993 1461.97 234.221C1461.97 230.448 1458.9 227.378 1455.12 227.378Z" fill="white"/>
<path d="M1455.12 190.751C1450.61 190.751 1446.92 187.066 1446.92 182.548C1446.92 178.03 1450.61 174.345 1455.12 174.345C1459.64 174.345 1463.33 178.03 1463.33 182.548C1463.33 187.066 1459.64 190.751 1455.12 190.751ZM1455.12 175.705C1451.35 175.705 1448.28 178.776 1448.28 182.548C1448.28 186.32 1451.35 189.391 1455.12 189.391C1458.9 189.391 1461.97 186.32 1461.97 182.548C1461.97 178.776 1458.9 175.705 1455.12 175.705Z" fill="white"/>
<path d="M1455.12 139.078C1450.61 139.078 1446.92 135.393 1446.92 130.875C1446.92 126.357 1450.61 122.673 1455.12 122.673C1459.64 122.673 1463.33 126.357 1463.33 130.875C1463.33 135.393 1459.64 139.078 1455.12 139.078ZM1455.12 124.032C1451.35 124.032 1448.28 127.103 1448.28 130.875C1448.28 134.648 1451.35 137.718 1455.12 137.718C1458.9 137.718 1461.97 134.648 1461.97 130.875C1461.97 127.103 1458.9 124.032 1455.12 124.032Z" fill="white"/>
<path d="M1455.12 87.4493C1450.61 87.4493 1446.92 83.7647 1446.92 79.2466C1446.92 74.7286 1450.61 71.0439 1455.12 71.0439C1459.64 71.0439 1463.33 74.7286 1463.33 79.2466C1463.33 83.7647 1459.64 87.4493 1455.12 87.4493ZM1455.12 72.4038C1451.35 72.4038 1448.28 75.4743 1448.28 79.2466C1448.28 83.019 1451.35 86.0895 1455.12 86.0895C1458.9 86.0895 1461.97 83.019 1461.97 79.2466C1461.97 75.4743 1458.9 72.4038 1455.12 72.4038Z" fill="white"/>
<path d="M1403.45 604C1398.93 604 1395.25 600.316 1395.25 595.797C1395.25 591.279 1398.93 587.595 1403.45 587.595C1407.97 587.595 1411.65 591.279 1411.65 595.797C1411.65 600.316 1407.97 604 1403.45 604ZM1403.45 588.955C1399.68 588.955 1396.61 592.025 1396.61 595.797C1396.61 599.57 1399.68 602.64 1403.45 602.64C1407.22 602.64 1410.3 599.57 1410.3 595.797C1410.3 592.025 1407.22 588.955 1403.45 588.955Z" fill="white"/>
<path d="M1403.45 552.327C1398.93 552.327 1395.25 548.643 1395.25 544.125C1395.25 539.607 1398.93 535.922 1403.45 535.922C1407.97 535.922 1411.65 539.607 1411.65 544.125C1411.65 548.643 1407.97 552.327 1403.45 552.327ZM1403.45 537.282C1399.68 537.282 1396.61 540.352 1396.61 544.125C1396.61 547.897 1399.68 550.968 1403.45 550.968C1407.22 550.968 1410.3 547.897 1410.3 544.125C1410.3 540.352 1407.22 537.282 1403.45 537.282Z" fill="white"/>
<path d="M1403.45 500.699C1398.93 500.699 1395.25 497.014 1395.25 492.496C1395.25 487.978 1398.93 484.293 1403.45 484.293C1407.97 484.293 1411.65 487.978 1411.65 492.496C1411.65 497.014 1407.97 500.699 1403.45 500.699ZM1403.45 485.653C1399.68 485.653 1396.61 488.724 1396.61 492.496C1396.61 496.268 1399.68 499.339 1403.45 499.339C1407.22 499.339 1410.3 496.268 1410.3 492.496C1410.3 488.724 1407.22 485.653 1403.45 485.653Z" fill="white"/>
<path d="M1403.45 449.026C1398.93 449.026 1395.25 445.341 1395.25 440.823C1395.25 436.305 1398.93 432.621 1403.45 432.621C1407.97 432.621 1411.65 436.305 1411.65 440.823C1411.65 445.341 1407.97 449.026 1403.45 449.026ZM1403.45 433.981C1399.68 433.981 1396.61 437.051 1396.61 440.823C1396.61 444.596 1399.68 447.666 1403.45 447.666C1407.22 447.666 1410.3 444.596 1410.3 440.823C1410.3 437.051 1407.22 433.981 1403.45 433.981Z" fill="white"/>
<path d="M1403.45 397.353C1398.93 397.353 1395.25 393.669 1395.25 389.151C1395.25 384.633 1398.93 380.948 1403.45 380.948C1407.97 380.948 1411.65 384.633 1411.65 389.151C1411.65 393.669 1407.97 397.353 1403.45 397.353ZM1403.45 382.308C1399.68 382.308 1396.61 385.378 1396.61 389.151C1396.61 392.923 1399.68 395.994 1403.45 395.994C1407.22 395.994 1410.3 392.923 1410.3 389.151C1410.3 385.378 1407.22 382.308 1403.45 382.308Z" fill="white"/>
<path d="M1403.45 345.725C1398.93 345.725 1395.25 342.04 1395.25 337.522C1395.25 333.004 1398.93 329.319 1403.45 329.319C1407.97 329.319 1411.65 333.004 1411.65 337.522C1411.65 342.04 1407.97 345.725 1403.45 345.725ZM1403.45 330.679C1399.68 330.679 1396.61 333.75 1396.61 337.522C1396.61 341.294 1399.68 344.365 1403.45 344.365C1407.22 344.365 1410.3 341.294 1410.3 337.522C1410.3 333.75 1407.22 330.679 1403.45 330.679Z" fill="white"/>
<path d="M1403.45 294.052C1398.93 294.052 1395.25 290.367 1395.25 285.849C1395.25 281.331 1398.93 277.647 1403.45 277.647C1407.97 277.647 1411.65 281.331 1411.65 285.849C1411.65 290.367 1407.97 294.052 1403.45 294.052ZM1403.45 279.007C1399.68 279.007 1396.61 282.077 1396.61 285.849C1396.61 289.622 1399.68 292.692 1403.45 292.692C1407.22 292.692 1410.3 289.622 1410.3 285.849C1410.3 282.077 1407.22 279.007 1403.45 279.007Z" fill="white"/>
<path d="M1403.45 242.423C1398.93 242.423 1395.25 238.739 1395.25 234.221C1395.25 229.703 1398.93 226.018 1403.45 226.018C1407.97 226.018 1411.65 229.703 1411.65 234.221C1411.65 238.739 1407.97 242.423 1403.45 242.423ZM1403.45 227.378C1399.68 227.378 1396.61 230.448 1396.61 234.221C1396.61 237.993 1399.68 241.064 1403.45 241.064C1407.22 241.064 1410.3 237.993 1410.3 234.221C1410.3 230.448 1407.22 227.378 1403.45 227.378Z" fill="white"/>
<path d="M1403.45 190.751C1398.93 190.751 1395.25 187.066 1395.25 182.548C1395.25 178.03 1398.93 174.345 1403.45 174.345C1407.97 174.345 1411.65 178.03 1411.65 182.548C1411.65 187.066 1407.97 190.751 1403.45 190.751ZM1403.45 175.705C1399.68 175.705 1396.61 178.776 1396.61 182.548C1396.61 186.32 1399.68 189.391 1403.45 189.391C1407.22 189.391 1410.3 186.32 1410.3 182.548C1410.3 178.776 1407.22 175.705 1403.45 175.705Z" fill="white"/>
<path d="M1403.45 139.078C1398.93 139.078 1395.25 135.393 1395.25 130.875C1395.25 126.357 1398.93 122.673 1403.45 122.673C1407.97 122.673 1411.65 126.357 1411.65 130.875C1411.65 135.393 1407.97 139.078 1403.45 139.078ZM1403.45 124.032C1399.68 124.032 1396.61 127.103 1396.61 130.875C1396.61 134.648 1399.68 137.718 1403.45 137.718C1407.22 137.718 1410.3 134.648 1410.3 130.875C1410.3 127.103 1407.22 124.032 1403.45 124.032Z" fill="white"/>
<path d="M1403.45 87.4493C1398.93 87.4493 1395.25 83.7647 1395.25 79.2466C1395.25 74.7286 1398.93 71.0439 1403.45 71.0439C1407.97 71.0439 1411.65 74.7286 1411.65 79.2466C1411.65 83.7647 1407.97 87.4493 1403.45 87.4493ZM1403.45 72.4038C1399.68 72.4038 1396.61 75.4743 1396.61 79.2466C1396.61 83.019 1399.68 86.0895 1403.45 86.0895C1407.22 86.0895 1410.3 83.019 1410.3 79.2466C1410.3 75.4743 1407.22 72.4038 1403.45 72.4038Z" fill="white"/>
<path d="M1351.82 604C1347.31 604 1343.62 600.316 1343.62 595.797C1343.62 591.279 1347.31 587.595 1351.82 587.595C1356.34 587.595 1360.03 591.279 1360.03 595.797C1360.03 600.316 1356.34 604 1351.82 604ZM1351.82 588.955C1348.05 588.955 1344.98 592.025 1344.98 595.797C1344.98 599.57 1348.05 602.64 1351.82 602.64C1355.6 602.64 1358.67 599.57 1358.67 595.797C1358.67 592.025 1355.6 588.955 1351.82 588.955Z" fill="white"/>
<path d="M1351.82 552.327C1347.31 552.327 1343.62 548.643 1343.62 544.125C1343.62 539.607 1347.31 535.922 1351.82 535.922C1356.34 535.922 1360.03 539.607 1360.03 544.125C1360.03 548.643 1356.34 552.327 1351.82 552.327ZM1351.82 537.282C1348.05 537.282 1344.98 540.352 1344.98 544.125C1344.98 547.897 1348.05 550.968 1351.82 550.968C1355.6 550.968 1358.67 547.897 1358.67 544.125C1358.67 540.352 1355.6 537.282 1351.82 537.282Z" fill="white"/>
<path d="M1351.82 500.699C1347.31 500.699 1343.62 497.014 1343.62 492.496C1343.62 487.978 1347.31 484.293 1351.82 484.293C1356.34 484.293 1360.03 487.978 1360.03 492.496C1360.03 497.014 1356.34 500.699 1351.82 500.699ZM1351.82 485.653C1348.05 485.653 1344.98 488.724 1344.98 492.496C1344.98 496.268 1348.05 499.339 1351.82 499.339C1355.6 499.339 1358.67 496.268 1358.67 492.496C1358.67 488.724 1355.6 485.653 1351.82 485.653Z" fill="white"/>
<path d="M1351.82 449.026C1347.31 449.026 1343.62 445.341 1343.62 440.823C1343.62 436.305 1347.31 432.621 1351.82 432.621C1356.34 432.621 1360.03 436.305 1360.03 440.823C1360.03 445.341 1356.34 449.026 1351.82 449.026ZM1351.82 433.981C1348.05 433.981 1344.98 437.051 1344.98 440.823C1344.98 444.596 1348.05 447.666 1351.82 447.666C1355.6 447.666 1358.67 444.596 1358.67 440.823C1358.67 437.051 1355.6 433.981 1351.82 433.981Z" fill="white"/>
<path d="M1351.82 397.353C1347.31 397.353 1343.62 393.669 1343.62 389.151C1343.62 384.633 1347.31 380.948 1351.82 380.948C1356.34 380.948 1360.03 384.633 1360.03 389.151C1360.03 393.669 1356.34 397.353 1351.82 397.353ZM1351.82 382.308C1348.05 382.308 1344.98 385.378 1344.98 389.151C1344.98 392.923 1348.05 395.994 1351.82 395.994C1355.6 395.994 1358.67 392.923 1358.67 389.151C1358.67 385.378 1355.6 382.308 1351.82 382.308Z" fill="white"/>
<path d="M1351.82 345.725C1347.31 345.725 1343.62 342.04 1343.62 337.522C1343.62 333.004 1347.31 329.319 1351.82 329.319C1356.34 329.319 1360.03 333.004 1360.03 337.522C1360.03 342.04 1356.34 345.725 1351.82 345.725ZM1351.82 330.679C1348.05 330.679 1344.98 333.75 1344.98 337.522C1344.98 341.294 1348.05 344.365 1351.82 344.365C1355.6 344.365 1358.67 341.294 1358.67 337.522C1358.67 333.75 1355.6 330.679 1351.82 330.679Z" fill="white"/>
<path d="M1351.82 294.052C1347.31 294.052 1343.62 290.367 1343.62 285.849C1343.62 281.331 1347.31 277.647 1351.82 277.647C1356.34 277.647 1360.03 281.331 1360.03 285.849C1360.03 290.367 1356.34 294.052 1351.82 294.052ZM1351.82 279.007C1348.05 279.007 1344.98 282.077 1344.98 285.849C1344.98 289.622 1348.05 292.692 1351.82 292.692C1355.6 292.692 1358.67 289.622 1358.67 285.849C1358.67 282.077 1355.6 279.007 1351.82 279.007Z" fill="white"/>
<path d="M1351.82 242.423C1347.31 242.423 1343.62 238.739 1343.62 234.221C1343.62 229.703 1347.31 226.018 1351.82 226.018C1356.34 226.018 1360.03 229.703 1360.03 234.221C1360.03 238.739 1356.34 242.423 1351.82 242.423ZM1351.82 227.378C1348.05 227.378 1344.98 230.448 1344.98 234.221C1344.98 237.993 1348.05 241.064 1351.82 241.064C1355.6 241.064 1358.67 237.993 1358.67 234.221C1358.67 230.448 1355.6 227.378 1351.82 227.378Z" fill="white"/>
<path d="M1351.82 190.751C1347.31 190.751 1343.62 187.066 1343.62 182.548C1343.62 178.03 1347.31 174.345 1351.82 174.345C1356.34 174.345 1360.03 178.03 1360.03 182.548C1360.03 187.066 1356.34 190.751 1351.82 190.751ZM1351.82 175.705C1348.05 175.705 1344.98 178.776 1344.98 182.548C1344.98 186.32 1348.05 189.391 1351.82 189.391C1355.6 189.391 1358.67 186.32 1358.67 182.548C1358.67 178.776 1355.6 175.705 1351.82 175.705Z" fill="white"/>
<path d="M1351.82 139.078C1347.31 139.078 1343.62 135.393 1343.62 130.875C1343.62 126.357 1347.31 122.673 1351.82 122.673C1356.34 122.673 1360.03 126.357 1360.03 130.875C1360.03 135.393 1356.34 139.078 1351.82 139.078ZM1351.82 124.032C1348.05 124.032 1344.98 127.103 1344.98 130.875C1344.98 134.648 1348.05 137.718 1351.82 137.718C1355.6 137.718 1358.67 134.648 1358.67 130.875C1358.67 127.103 1355.6 124.032 1351.82 124.032Z" fill="white"/>
<path d="M1351.82 87.4493C1347.31 87.4493 1343.62 83.7647 1343.62 79.2466C1343.62 74.7286 1347.31 71.0439 1351.82 71.0439C1356.34 71.0439 1360.03 74.7286 1360.03 79.2466C1360.03 83.7647 1356.34 87.4493 1351.82 87.4493ZM1351.82 72.4038C1348.05 72.4038 1344.98 75.4743 1344.98 79.2466C1344.98 83.019 1348.05 86.0895 1351.82 86.0895C1355.6 86.0895 1358.67 83.019 1358.67 79.2466C1358.67 75.4743 1355.6 72.4038 1351.82 72.4038Z" fill="white"/>
</g>
</g>
<g clip-path="url(#clip3_235_2729)">
<g opacity="0.32">
<path d="M668.768 914C666.437 914 664.536 912.099 664.536 909.768C664.536 907.437 666.437 905.536 668.768 905.536C671.099 905.536 673 907.437 673 909.768C673 912.099 671.099 914 668.768 914ZM668.768 906.237C666.821 906.237 665.237 907.821 665.237 909.768C665.237 911.714 666.821 913.298 668.768 913.298C670.714 913.298 672.298 911.714 672.298 909.768C672.298 907.821 670.714 906.237 668.768 906.237Z" fill="white"/>
<path d="M668.768 887.34C666.437 887.34 664.536 885.438 664.536 883.107C664.536 880.776 666.437 878.875 668.768 878.875C671.099 878.875 673 880.776 673 883.107C673 885.438 671.099 887.34 668.768 887.34ZM668.768 879.577C666.821 879.577 665.237 881.161 665.237 883.107C665.237 885.054 666.821 886.638 668.768 886.638C670.714 886.638 672.298 885.054 672.298 883.107C672.298 881.161 670.714 879.577 668.768 879.577Z" fill="white"/>
<path d="M668.768 860.702C666.437 860.702 664.536 858.801 664.536 856.47C664.536 854.139 666.437 852.238 668.768 852.238C671.099 852.238 673 854.139 673 856.47C673 858.801 671.099 860.702 668.768 860.702ZM668.768 852.939C666.821 852.939 665.237 854.523 665.237 856.47C665.237 858.416 666.821 860 668.768 860C670.714 860 672.298 858.416 672.298 856.47C672.298 854.523 670.714 852.939 668.768 852.939Z" fill="white"/>
<path d="M668.768 834.041C666.437 834.041 664.536 832.14 664.536 829.809C664.536 827.478 666.437 825.577 668.768 825.577C671.099 825.577 673 827.478 673 829.809C673 832.14 671.099 834.041 668.768 834.041ZM668.768 826.279C666.821 826.279 665.237 827.863 665.237 829.809C665.237 831.756 666.821 833.34 668.768 833.34C670.714 833.34 672.298 831.756 672.298 829.809C672.298 827.863 670.714 826.279 668.768 826.279Z" fill="white"/>
<path d="M642.107 914C639.776 914 637.875 912.099 637.875 909.768C637.875 907.437 639.776 905.536 642.107 905.536C644.438 905.536 646.34 907.437 646.34 909.768C646.34 912.099 644.438 914 642.107 914ZM642.107 906.237C640.161 906.237 638.577 907.821 638.577 909.768C638.577 911.714 640.161 913.298 642.107 913.298C644.054 913.298 645.638 911.714 645.638 909.768C645.638 907.821 644.054 906.237 642.107 906.237Z" fill="white"/>
<path d="M642.107 887.34C639.776 887.34 637.875 885.438 637.875 883.107C637.875 880.776 639.776 878.875 642.107 878.875C644.438 878.875 646.34 880.776 646.34 883.107C646.34 885.438 644.438 887.34 642.107 887.34ZM642.107 879.577C640.161 879.577 638.577 881.161 638.577 883.107C638.577 885.054 640.161 886.638 642.107 886.638C644.054 886.638 645.638 885.054 645.638 883.107C645.638 881.161 644.054 879.577 642.107 879.577Z" fill="white"/>
<path d="M642.107 860.702C639.776 860.702 637.875 858.801 637.875 856.47C637.875 854.139 639.776 852.238 642.107 852.238C644.438 852.238 646.34 854.139 646.34 856.47C646.34 858.801 644.438 860.702 642.107 860.702ZM642.107 852.939C640.161 852.939 638.577 854.523 638.577 856.47C638.577 858.416 640.161 860 642.107 860C644.054 860 645.638 858.416 645.638 856.47C645.638 854.523 644.054 852.939 642.107 852.939Z" fill="white"/>
<path d="M642.107 834.041C639.776 834.041 637.875 832.14 637.875 829.809C637.875 827.478 639.776 825.577 642.107 825.577C644.438 825.577 646.34 827.478 646.34 829.809C646.34 832.14 644.438 834.041 642.107 834.041ZM642.107 826.279C640.161 826.279 638.577 827.863 638.577 829.809C638.577 831.756 640.161 833.34 642.107 833.34C644.054 833.34 645.638 831.756 645.638 829.809C645.638 827.863 644.054 826.279 642.107 826.279Z" fill="white"/>
<path d="M615.447 914C613.116 914 611.215 912.099 611.215 909.768C611.215 907.437 613.116 905.536 615.447 905.536C617.778 905.536 619.679 907.437 619.679 909.768C619.679 912.099 617.778 914 615.447 914ZM615.447 906.237C613.501 906.237 611.916 907.821 611.916 909.768C611.916 911.714 613.501 913.298 615.447 913.298C617.393 913.298 618.978 911.714 618.978 909.768C618.978 907.821 617.393 906.237 615.447 906.237Z" fill="white"/>
<path d="M615.447 887.34C613.116 887.34 611.215 885.438 611.215 883.107C611.215 880.776 613.116 878.875 615.447 878.875C617.778 878.875 619.679 880.776 619.679 883.107C619.679 885.438 617.778 887.34 615.447 887.34ZM615.447 879.577C613.501 879.577 611.916 881.161 611.916 883.107C611.916 885.054 613.501 886.638 615.447 886.638C617.393 886.638 618.978 885.054 618.978 883.107C618.978 881.161 617.393 879.577 615.447 879.577Z" fill="white"/>
<path d="M615.447 860.702C613.116 860.702 611.215 858.801 611.215 856.47C611.215 854.139 613.116 852.238 615.447 852.238C617.778 852.238 619.679 854.139 619.679 856.47C619.679 858.801 617.778 860.702 615.447 860.702ZM615.447 852.939C613.501 852.939 611.916 854.523 611.916 856.47C611.916 858.416 613.501 860 615.447 860C617.393 860 618.978 858.416 618.978 856.47C618.978 854.523 617.393 852.939 615.447 852.939Z" fill="white"/>
<path d="M615.447 834.041C613.116 834.041 611.215 832.14 611.215 829.809C611.215 827.478 613.116 825.577 615.447 825.577C617.778 825.577 619.679 827.478 619.679 829.809C619.679 832.14 617.778 834.041 615.447 834.041ZM615.447 826.279C613.501 826.279 611.916 827.863 611.916 829.809C611.916 831.756 613.501 833.34 615.447 833.34C617.393 833.34 618.978 831.756 618.978 829.809C618.978 827.863 617.393 826.279 615.447 826.279Z" fill="white"/>
<path d="M588.809 914C586.478 914 584.577 912.099 584.577 909.768C584.577 907.437 586.478 905.536 588.809 905.536C591.14 905.536 593.041 907.437 593.041 909.768C593.041 912.099 591.14 914 588.809 914ZM588.809 906.237C586.863 906.237 585.279 907.821 585.279 909.768C585.279 911.714 586.863 913.298 588.809 913.298C590.756 913.298 592.34 911.714 592.34 909.768C592.34 907.821 590.756 906.237 588.809 906.237Z" fill="white"/>
<path d="M588.809 887.34C586.478 887.34 584.577 885.438 584.577 883.107C584.577 880.776 586.478 878.875 588.809 878.875C591.14 878.875 593.041 880.776 593.041 883.107C593.041 885.438 591.14 887.34 588.809 887.34ZM588.809 879.577C586.863 879.577 585.279 881.161 585.279 883.107C585.279 885.054 586.863 886.638 588.809 886.638C590.756 886.638 592.34 885.054 592.34 883.107C592.34 881.161 590.756 879.577 588.809 879.577Z" fill="white"/>
<path d="M588.809 860.702C586.478 860.702 584.577 858.801 584.577 856.47C584.577 854.139 586.478 852.238 588.809 852.238C591.14 852.238 593.041 854.139 593.041 856.47C593.041 858.801 591.14 860.702 588.809 860.702ZM588.809 852.939C586.863 852.939 585.279 854.523 585.279 856.47C585.279 858.416 586.863 860 588.809 860C590.756 860 592.34 858.416 592.34 856.47C592.34 854.523 590.756 852.939 588.809 852.939Z" fill="white"/>
<path d="M588.809 834.041C586.478 834.041 584.577 832.14 584.577 829.809C584.577 827.478 586.478 825.577 588.809 825.577C591.14 825.577 593.041 827.478 593.041 829.809C593.041 832.14 591.14 834.041 588.809 834.041ZM588.809 826.279C586.863 826.279 585.279 827.863 585.279 829.809C585.279 831.756 586.863 833.34 588.809 833.34C590.756 833.34 592.34 831.756 592.34 829.809C592.34 827.863 590.756 826.279 588.809 826.279Z" fill="white"/>
<path d="M562.149 914C559.818 914 557.917 912.099 557.917 909.768C557.917 907.437 559.818 905.536 562.149 905.536C564.48 905.536 566.381 907.437 566.381 909.768C566.381 912.099 564.48 914 562.149 914ZM562.149 906.237C560.203 906.237 558.619 907.821 558.619 909.768C558.619 911.714 560.203 913.298 562.149 913.298C564.095 913.298 565.68 911.714 565.68 909.768C565.68 907.821 564.095 906.237 562.149 906.237Z" fill="white"/>
<path d="M562.149 887.34C559.818 887.34 557.917 885.438 557.917 883.107C557.917 880.776 559.818 878.875 562.149 878.875C564.48 878.875 566.381 880.776 566.381 883.107C566.381 885.438 564.48 887.34 562.149 887.34ZM562.149 879.577C560.203 879.577 558.619 881.161 558.619 883.107C558.619 885.054 560.203 886.638 562.149 886.638C564.095 886.638 565.68 885.054 565.68 883.107C565.68 881.161 564.095 879.577 562.149 879.577Z" fill="white"/>
<path d="M562.149 860.702C559.818 860.702 557.917 858.801 557.917 856.47C557.917 854.139 559.818 852.238 562.149 852.238C564.48 852.238 566.381 854.139 566.381 856.47C566.381 858.801 564.48 860.702 562.149 860.702ZM562.149 852.939C560.203 852.939 558.619 854.523 558.619 856.47C558.619 858.416 560.203 860 562.149 860C564.095 860 565.68 858.416 565.68 856.47C565.68 854.523 564.095 852.939 562.149 852.939Z" fill="white"/>
<path d="M562.149 834.041C559.818 834.041 557.917 832.14 557.917 829.809C557.917 827.478 559.818 825.577 562.149 825.577C564.48 825.577 566.381 827.478 566.381 829.809C566.381 832.14 564.48 834.041 562.149 834.041ZM562.149 826.279C560.203 826.279 558.619 827.863 558.619 829.809C558.619 831.756 560.203 833.34 562.149 833.34C564.095 833.34 565.68 831.756 565.68 829.809C565.68 827.863 564.095 826.279 562.149 826.279Z" fill="white"/>
<path d="M535.511 914C533.18 914 531.279 912.099 531.279 909.768C531.279 907.437 533.18 905.536 535.511 905.536C537.842 905.536 539.743 907.437 539.743 909.768C539.743 912.099 537.842 914 535.511 914ZM535.511 906.237C533.565 906.237 531.981 907.821 531.981 909.768C531.981 911.714 533.565 913.298 535.511 913.298C537.458 913.298 539.042 911.714 539.042 909.768C539.042 907.821 537.458 906.237 535.511 906.237Z" fill="white"/>
<path d="M535.511 887.34C533.18 887.34 531.279 885.438 531.279 883.107C531.279 880.776 533.18 878.875 535.511 878.875C537.842 878.875 539.743 880.776 539.743 883.107C539.743 885.438 537.842 887.34 535.511 887.34ZM535.511 879.577C533.565 879.577 531.981 881.161 531.981 883.107C531.981 885.054 533.565 886.638 535.511 886.638C537.458 886.638 539.042 885.054 539.042 883.107C539.042 881.161 537.458 879.577 535.511 879.577Z" fill="white"/>
<path d="M535.511 860.702C533.18 860.702 531.279 858.801 531.279 856.47C531.279 854.139 533.18 852.238 535.511 852.238C537.842 852.238 539.743 854.139 539.743 856.47C539.743 858.801 537.842 860.702 535.511 860.702ZM535.511 852.939C533.565 852.939 531.981 854.523 531.981 856.47C531.981 858.416 533.565 860 535.511 860C537.458 860 539.042 858.416 539.042 856.47C539.042 854.523 537.458 852.939 535.511 852.939Z" fill="white"/>
<path d="M535.511 834.041C533.18 834.041 531.279 832.14 531.279 829.809C531.279 827.478 533.18 825.577 535.511 825.577C537.842 825.577 539.743 827.478 539.743 829.809C539.743 832.14 537.842 834.041 535.511 834.041ZM535.511 826.279C533.565 826.279 531.981 827.863 531.981 829.809C531.981 831.756 533.565 833.34 535.511 833.34C537.458 833.34 539.042 831.756 539.042 829.809C539.042 827.863 537.458 826.279 535.511 826.279Z" fill="white"/>
<path d="M508.851 914C506.52 914 504.619 912.099 504.619 909.768C504.619 907.437 506.52 905.536 508.851 905.536C511.182 905.536 513.083 907.437 513.083 909.768C513.083 912.099 511.182 914 508.851 914ZM508.851 906.237C506.905 906.237 505.32 907.821 505.32 909.768C505.32 911.714 506.905 913.298 508.851 913.298C510.797 913.298 512.382 911.714 512.382 909.768C512.382 907.821 510.797 906.237 508.851 906.237Z" fill="white"/>
<path d="M508.851 887.34C506.52 887.34 504.619 885.438 504.619 883.107C504.619 880.776 506.52 878.875 508.851 878.875C511.182 878.875 513.083 880.776 513.083 883.107C513.083 885.438 511.182 887.34 508.851 887.34ZM508.851 879.577C506.905 879.577 505.32 881.161 505.32 883.107C505.32 885.054 506.905 886.638 508.851 886.638C510.797 886.638 512.382 885.054 512.382 883.107C512.382 881.161 510.797 879.577 508.851 879.577Z" fill="white"/>
<path d="M508.851 860.702C506.52 860.702 504.619 858.801 504.619 856.47C504.619 854.139 506.52 852.238 508.851 852.238C511.182 852.238 513.083 854.139 513.083 856.47C513.083 858.801 511.182 860.702 508.851 860.702ZM508.851 852.939C506.905 852.939 505.32 854.523 505.32 856.47C505.32 858.416 506.905 860 508.851 860C510.797 860 512.382 858.416 512.382 856.47C512.382 854.523 510.797 852.939 508.851 852.939Z" fill="white"/>
<path d="M508.851 834.041C506.52 834.041 504.619 832.14 504.619 829.809C504.619 827.478 506.52 825.577 508.851 825.577C511.182 825.577 513.083 827.478 513.083 829.809C513.083 832.14 511.182 834.041 508.851 834.041ZM508.851 826.279C506.905 826.279 505.32 827.863 505.32 829.809C505.32 831.756 506.905 833.34 508.851 833.34C510.797 833.34 512.382 831.756 512.382 829.809C512.382 827.863 510.797 826.279 508.851 826.279Z" fill="white"/>
<path d="M482.191 914C479.86 914 477.958 912.099 477.958 909.768C477.958 907.437 479.86 905.536 482.191 905.536C484.522 905.536 486.423 907.437 486.423 909.768C486.423 912.099 484.522 914 482.191 914ZM482.191 906.237C480.244 906.237 478.66 907.821 478.66 909.768C478.66 911.714 480.244 913.298 482.191 913.298C484.137 913.298 485.721 911.714 485.721 909.768C485.721 907.821 484.137 906.237 482.191 906.237Z" fill="white"/>
<path d="M482.191 887.34C479.86 887.34 477.958 885.438 477.958 883.107C477.958 880.776 479.86 878.875 482.191 878.875C484.522 878.875 486.423 880.776 486.423 883.107C486.423 885.438 484.522 887.34 482.191 887.34ZM482.191 879.577C480.244 879.577 478.66 881.161 478.66 883.107C478.66 885.054 480.244 886.638 482.191 886.638C484.137 886.638 485.721 885.054 485.721 883.107C485.721 881.161 484.137 879.577 482.191 879.577Z" fill="white"/>
<path d="M482.191 860.702C479.86 860.702 477.958 858.801 477.958 856.47C477.958 854.139 479.86 852.238 482.191 852.238C484.522 852.238 486.423 854.139 486.423 856.47C486.423 858.801 484.522 860.702 482.191 860.702ZM482.191 852.939C480.244 852.939 478.66 854.523 478.66 856.47C478.66 858.416 480.244 860 482.191 860C484.137 860 485.721 858.416 485.721 856.47C485.721 854.523 484.137 852.939 482.191 852.939Z" fill="white"/>
<path d="M482.191 834.041C479.86 834.041 477.958 832.14 477.958 829.809C477.958 827.478 479.86 825.577 482.191 825.577C484.522 825.577 486.423 827.478 486.423 829.809C486.423 832.14 484.522 834.041 482.191 834.041ZM482.191 826.279C480.244 826.279 478.66 827.863 478.66 829.809C478.66 831.756 480.244 833.34 482.191 833.34C484.137 833.34 485.721 831.756 485.721 829.809C485.721 827.863 484.137 826.279 482.191 826.279Z" fill="white"/>
<path d="M455.553 914C453.222 914 451.321 912.099 451.321 909.768C451.321 907.437 453.222 905.536 455.553 905.536C457.884 905.536 459.785 907.437 459.785 909.768C459.785 912.099 457.884 914 455.553 914ZM455.553 906.237C453.607 906.237 452.022 907.821 452.022 909.768C452.022 911.714 453.607 913.298 455.553 913.298C457.499 913.298 459.084 911.714 459.084 909.768C459.084 907.821 457.499 906.237 455.553 906.237Z" fill="white"/>
<path d="M455.553 887.34C453.222 887.34 451.321 885.438 451.321 883.107C451.321 880.776 453.222 878.875 455.553 878.875C457.884 878.875 459.785 880.776 459.785 883.107C459.785 885.438 457.884 887.34 455.553 887.34ZM455.553 879.577C453.607 879.577 452.022 881.161 452.022 883.107C452.022 885.054 453.607 886.638 455.553 886.638C457.499 886.638 459.084 885.054 459.084 883.107C459.084 881.161 457.499 879.577 455.553 879.577Z" fill="white"/>
<path d="M455.553 860.702C453.222 860.702 451.321 858.801 451.321 856.47C451.321 854.139 453.222 852.238 455.553 852.238C457.884 852.238 459.785 854.139 459.785 856.47C459.785 858.801 457.884 860.702 455.553 860.702ZM455.553 852.939C453.607 852.939 452.022 854.523 452.022 856.47C452.022 858.416 453.607 860 455.553 860C457.499 860 459.084 858.416 459.084 856.47C459.084 854.523 457.499 852.939 455.553 852.939Z" fill="white"/>
<path d="M455.553 834.041C453.222 834.041 451.321 832.14 451.321 829.809C451.321 827.478 453.222 825.577 455.553 825.577C457.884 825.577 459.785 827.478 459.785 829.809C459.785 832.14 457.884 834.041 455.553 834.041ZM455.553 826.279C453.607 826.279 452.022 827.863 452.022 829.809C452.022 831.756 453.607 833.34 455.553 833.34C457.499 833.34 459.084 831.756 459.084 829.809C459.084 827.863 457.499 826.279 455.553 826.279Z" fill="white"/>
<path d="M428.893 914C426.561 914 424.66 912.099 424.66 909.768C424.66 907.437 426.561 905.536 428.893 905.536C431.224 905.536 433.125 907.437 433.125 909.768C433.125 912.099 431.224 914 428.893 914ZM428.893 906.237C426.946 906.237 425.362 907.821 425.362 909.768C425.362 911.714 426.946 913.298 428.893 913.298C430.839 913.298 432.423 911.714 432.423 909.768C432.423 907.821 430.839 906.237 428.893 906.237Z" fill="white"/>
<path d="M428.893 887.34C426.561 887.34 424.66 885.438 424.66 883.107C424.66 880.776 426.561 878.875 428.893 878.875C431.224 878.875 433.125 880.776 433.125 883.107C433.125 885.438 431.224 887.34 428.893 887.34ZM428.893 879.577C426.946 879.577 425.362 881.161 425.362 883.107C425.362 885.054 426.946 886.638 428.893 886.638C430.839 886.638 432.423 885.054 432.423 883.107C432.423 881.161 430.839 879.577 428.893 879.577Z" fill="white"/>
<path d="M428.893 860.702C426.561 860.702 424.66 858.801 424.66 856.47C424.66 854.139 426.561 852.238 428.893 852.238C431.224 852.238 433.125 854.139 433.125 856.47C433.125 858.801 431.224 860.702 428.893 860.702ZM428.893 852.939C426.946 852.939 425.362 854.523 425.362 856.47C425.362 858.416 426.946 860 428.893 860C430.839 860 432.423 858.416 432.423 856.47C432.423 854.523 430.839 852.939 428.893 852.939Z" fill="white"/>
<path d="M428.893 834.041C426.561 834.041 424.66 832.14 424.66 829.809C424.66 827.478 426.561 825.577 428.893 825.577C431.224 825.577 433.125 827.478 433.125 829.809C433.125 832.14 431.224 834.041 428.893 834.041ZM428.893 826.279C426.946 826.279 425.362 827.863 425.362 829.809C425.362 831.756 426.946 833.34 428.893 833.34C430.839 833.34 432.423 831.756 432.423 829.809C432.423 827.863 430.839 826.279 428.893 826.279Z" fill="white"/>
<path d="M402.232 914C399.901 914 398 912.099 398 909.768C398 907.437 399.901 905.536 402.232 905.536C404.563 905.536 406.464 907.437 406.464 909.768C406.464 912.099 404.563 914 402.232 914ZM402.232 906.237C400.286 906.237 398.702 907.821 398.702 909.768C398.702 911.714 400.286 913.298 402.232 913.298C404.179 913.298 405.763 911.714 405.763 909.768C405.763 907.821 404.179 906.237 402.232 906.237Z" fill="white"/>
<path d="M402.232 887.34C399.901 887.34 398 885.438 398 883.107C398 880.776 399.901 878.875 402.232 878.875C404.563 878.875 406.464 880.776 406.464 883.107C406.464 885.438 404.563 887.34 402.232 887.34ZM402.232 879.577C400.286 879.577 398.702 881.161 398.702 883.107C398.702 885.054 400.286 886.638 402.232 886.638C404.179 886.638 405.763 885.054 405.763 883.107C405.763 881.161 404.179 879.577 402.232 879.577Z" fill="white"/>
<path d="M402.232 860.702C399.901 860.702 398 858.801 398 856.47C398 854.139 399.901 852.238 402.232 852.238C404.563 852.238 406.464 854.139 406.464 856.47C406.464 858.801 404.563 860.702 402.232 860.702ZM402.232 852.939C400.286 852.939 398.702 854.523 398.702 856.47C398.702 858.416 400.286 860 402.232 860C404.179 860 405.763 858.416 405.763 856.47C405.763 854.523 404.179 852.939 402.232 852.939Z" fill="white"/>
<path d="M402.232 834.042C399.901 834.042 398 832.141 398 829.809C398 827.478 399.901 825.577 402.232 825.577C404.563 825.577 406.464 827.478 406.464 829.809C406.464 832.141 404.563 834.042 402.232 834.042ZM402.232 826.279C400.286 826.279 398.702 827.863 398.702 829.809C398.702 831.756 400.286 833.34 402.232 833.34C404.179 833.34 405.763 831.756 405.763 829.809C405.763 827.863 404.179 826.279 402.232 826.279Z" fill="white"/>
</g>
</g>
</g>
<defs>
<clipPath id="clip0_235_2729">
<rect width="1920" height="1080" fill="white"/>
</clipPath>
<clipPath id="clip1_235_2729">
<rect width="563.505" height="359.097" fill="white" transform="translate(1688.92 588) rotate(45)"/>
</clipPath>
<clipPath id="clip2_235_2729">
<rect width="195" height="533" fill="white" transform="translate(1320 71)"/>
</clipPath>
<clipPath id="clip3_235_2729">
<rect width="275" height="88" fill="white" transform="translate(398 826)"/>
</clipPath>
</defs>
</svg>
