<?xml version="1.0" encoding="utf-8"?>
<!-- Generator: Adobe Illustrator 26.0.0, SVG Export Plug-In . SVG Version: 6.00 Build 0)  -->
<svg version="1.1" id="Capa_1" xmlns="http://www.w3.org/2000/svg" xmlns:xlink="http://www.w3.org/1999/xlink" x="0px" y="0px"
	 viewBox="0 0 372.1 118.3" style="enable-background:new 0 0 372.1 118.3;" xml:space="preserve">
<style type="text/css">
	.st0{fill:#F0F3F5;}
</style>
<g>
	<g>
		<g>
			<path class="st0" d="M54.1,28.2H64v67.4h-9.9V83.5v-8.8H27.9v8.8v12.1h-9.9V28.2h9.9v11.7v17.3v8.7V66h26.2v-0.2v-8.7V39.9V28.2z
				"/>
			<path class="st0" d="M94.2,28.2h9.9v67.5h-9.9V28.2z"/>
			<path class="st0" d="M157.8,28.2c4.5,0,8.8,0.9,12.8,2.7s7.4,4.2,10.4,7.3c3,3.1,5.3,6.6,7,10.7s2.6,8.5,2.6,13.1
				c0,4.7-0.8,9-2.5,13.1s-3.9,7.6-6.9,10.7c-2.9,3-6.4,5.4-10.4,7.2c-4,1.8-8.3,2.7-13,2.7h-23.6V28.2H157.8z M156.7,87
				c3.4,0,6.6-0.7,9.5-2s5.4-3.1,7.5-5.4c2.1-2.3,3.7-4.9,4.9-8c1.2-3,1.8-6.3,1.8-9.7s-0.6-6.7-1.8-9.7s-2.8-5.7-4.9-8
				s-4.6-4.1-7.5-5.4c-2.9-1.3-6-2-9.4-2h-12.6V87C144.1,87,156.7,87,156.7,87z"/>
			<path class="st0" d="M267.1,58.8c-0.9,2.8-2.1,5.2-3.8,7.5c-1.7,2.2-3.8,4.1-6.2,5.6c-0.1,0.1-0.3,0.2-0.5,0.3s-0.3,0.2-0.5,0.3
				L268,95.8h-10.4l-10.4-20.3c-0.7,0.1-1.5,0.2-2.2,0.3s-1.5,0.1-2.4,0.1h-12.1v20h-9.9V28.1h21.9c2.8,0,5.4,0.4,7.8,1.1
				c2.4,0.7,4.6,1.7,6.7,2.9c5,3.1,8.3,7.5,10,13.2c0.1,0.3,0.1,0.6,0.2,0.8s0.1,0.5,0.3,0.8v0.5c0.1,0.3,0.2,0.6,0.2,1
				s0.1,0.7,0.1,1.1v0.1c0.1,0.4,0.1,0.7,0.1,1.1c0,0.4,0,0.8,0,1.2v0.1v0.2c0,0.4,0,0.7,0,1.1s0,0.7-0.1,1.1v0.2
				c-0.1,0.4-0.1,0.7-0.1,1.1c0,0.3-0.1,0.7-0.2,1.1V57C267.3,57.7,267.1,58.3,267.1,58.8z M243.8,67.1c2,0,3.9-0.4,5.6-1.3
				s3.1-2,4.4-3.4c1.2-1.4,2.2-3,3-4.8c0.7-1.8,1.1-3.7,1.1-5.7c0-1.9-0.4-3.8-1.1-5.6c-0.7-1.8-1.7-3.5-3-4.8s-2.7-2.5-4.4-3.4
				c-1.7-0.9-3.5-1.3-5.6-1.3h-13.2v30.4H243.8z"/>
			<path class="st0" d="M298.2,95.6l27.5-67.5l27.5,67.5h-10l-2-5.3h-30.8l-2.1,5.3H298.2z M313.6,81.6h24.1l-12.1-30.9L313.6,81.6z
				"/>
		</g>
	</g>
</g>
</svg>
