<svg width="1059" height="155" viewBox="0 0 1059 155" fill="none" xmlns="http://www.w3.org/2000/svg">
<g clip-path="url(#clip0_334_4015)">
<mask id="mask0_334_4015" style="mask-type:luminance" maskUnits="userSpaceOnUse" x="0" y="0" width="1059" height="155">
<path d="M1059 0H0V155H1059V0Z" fill="white"/>
</mask>
<g mask="url(#mask0_334_4015)">
<path d="M65.2158 71.8876L66.0831 72.3855L66.087 72.3786L65.2158 71.8876ZM55.798 80.6913L55.3334 79.8057L55.3274 79.8089L55.798 80.6913ZM31.8439 83.967V82.967H30.8439V83.967H31.8439ZM31.8439 107V108H32.8439V107H31.8439ZM9.11816 107H8.11816V108H9.11816V107ZM9.11816 34.5233V33.5233H8.11816V34.5233H9.11816ZM61.2235 41.2796L60.5322 42.0023L60.5374 42.0072L61.2235 41.2796ZM31.8439 52.7448V51.7448H30.8439V52.7448H31.8439ZM31.8439 66.0526H30.8439V67.0526H31.8439V66.0526ZM67.3892 59.3987C67.3892 63.81 66.3706 67.8022 64.3447 71.3966L66.087 72.3786C68.2922 68.466 69.3892 64.1323 69.3892 59.3987H67.3892ZM64.3486 71.3897C62.3375 74.8929 59.3465 77.7005 55.3334 79.8057L56.2625 81.5768C60.5753 79.3143 63.8629 76.2528 66.0831 72.3855L64.3486 71.3897ZM55.3274 79.8089C51.4108 81.8977 46.5997 82.967 40.8522 82.967V84.967C46.843 84.967 51.9956 83.8525 56.2685 81.5736L55.3274 79.8089ZM40.8522 82.967H31.8439V84.967H40.8522V82.967ZM30.8439 83.967V107H32.8439V83.967H30.8439ZM31.8439 106H9.11816V108H31.8439V106ZM10.1182 107V34.5233H8.11816V107H10.1182ZM9.11816 35.5233H40.8522V33.5233H9.11816V35.5233ZM40.8522 35.5233C49.5614 35.5233 56.0682 37.7323 60.5322 42.0023L61.9147 40.557C56.9609 35.8185 49.8868 33.5233 40.8522 33.5233V35.5233ZM60.5374 42.0072C65.0828 46.2929 67.3892 52.0526 67.3892 59.3987H69.3892C69.3892 51.5944 66.9184 45.2747 61.9095 40.552L60.5374 42.0072ZM38.293 67.0526C40.7873 67.0526 42.8439 66.4664 44.2763 65.1171C45.7198 63.7572 46.3564 61.7866 46.3564 59.3987H44.3564C44.3564 61.4468 43.8158 62.8032 42.9049 63.6613C41.9828 64.5299 40.5077 65.0526 38.293 65.0526V67.0526ZM46.3564 59.3987C46.3564 57.0108 45.7198 55.0403 44.2763 53.6804C42.8439 52.3311 40.7873 51.7448 38.293 51.7448V53.7448C40.5077 53.7448 41.9828 54.2675 42.9049 55.1362C43.8158 55.9943 44.3564 57.3507 44.3564 59.3987H46.3564ZM38.293 51.7448H31.8439V53.7448H38.293V51.7448ZM30.8439 52.7448V66.0526H32.8439V52.7448H30.8439ZM31.8439 67.0526H38.293V65.0526H31.8439V67.0526ZM103.851 102.905L103.358 103.775L103.363 103.778L103.851 102.905ZM103.851 38.1062L104.336 38.9809L104.339 38.9789L103.851 38.1062ZM141.42 38.1062L140.927 38.9764L140.935 38.9809L141.42 38.1062ZM154.83 51.3117L153.965 51.8123L153.969 51.82L154.83 51.3117ZM154.83 89.5973L153.969 89.0889L153.965 89.0966L154.83 89.5973ZM141.318 102.905L140.829 102.033L140.825 102.035L141.318 102.905ZM133.128 82.2268L133.888 82.8776L133.895 82.8687L133.128 82.2268ZM133.128 58.6821L132.361 59.3241L132.369 59.3329L133.128 58.6821ZM112.143 58.6821L112.902 59.333L112.91 59.3241L112.143 58.6821ZM112.143 82.2268L111.376 82.8687L111.384 82.8776L112.143 82.2268ZM122.687 106.717C116.026 106.717 109.917 105.153 104.339 102.033L103.363 103.778C109.251 107.072 115.698 108.717 122.687 108.717V106.717ZM104.344 102.035C98.8333 98.9146 94.4554 94.6041 91.1995 89.0889L89.4772 90.1056C92.9092 95.9191 97.5398 100.481 103.358 103.775L104.344 102.035ZM91.1995 89.0889C87.9535 83.5906 86.3223 77.3878 86.3223 70.4545H84.3223C84.3223 77.7162 86.0351 84.2752 89.4772 90.1056L91.1995 89.0889ZM86.3223 70.4545C86.3223 63.5212 87.9535 57.3183 91.1995 51.82L89.4772 50.8033C86.0351 56.6338 84.3223 63.1927 84.3223 70.4545H86.3223ZM91.1995 51.82C94.4544 46.3066 98.8297 42.0323 104.336 38.9809L103.366 37.2315C97.5434 40.4586 92.9103 44.988 89.4772 50.8033L91.1995 51.82ZM104.339 38.9789C109.917 35.8582 116.026 34.2949 122.687 34.2949V32.2949C115.698 32.2949 109.251 33.9392 103.363 37.2335L104.339 38.9789ZM122.687 34.2949C129.347 34.2949 135.421 35.8581 140.927 38.9764L141.913 37.236C136.091 33.9392 129.675 32.2949 122.687 32.2949V34.2949ZM140.935 38.9809C146.439 42.0313 150.779 46.3031 153.965 51.8123L155.696 50.811C152.33 44.9915 147.729 40.4596 141.905 37.2315L140.935 38.9809ZM153.969 51.82C157.215 57.3183 158.846 63.5212 158.846 70.4545H160.846C160.846 63.1927 159.134 56.6338 155.691 50.8033L153.969 51.82ZM158.846 70.4545C158.846 77.3878 157.215 83.5906 153.969 89.0889L155.691 90.1056C159.134 84.2752 160.846 77.7162 160.846 70.4545H158.846ZM153.965 89.0966C150.779 94.6046 146.406 98.9123 140.829 102.033L141.806 103.778C147.695 100.483 152.33 95.9186 155.696 90.0979L153.965 89.0966ZM140.825 102.035C135.317 105.154 129.277 106.717 122.687 106.717V108.717C129.609 108.717 135.99 107.071 141.81 103.775L140.825 102.035ZM122.687 87.5262C127.421 87.5262 131.204 86.0086 133.888 82.8776L132.369 81.576C130.139 84.1775 126.961 85.5262 122.687 85.5262V87.5262ZM133.895 82.8687C136.541 79.7082 137.814 75.5349 137.814 70.4545H135.814C135.814 75.2014 134.629 78.8763 132.362 81.5848L133.895 82.8687ZM137.814 70.4545C137.814 65.3112 136.544 61.1301 133.888 58.0314L132.369 59.3329C134.627 61.9668 135.814 65.6339 135.814 70.4545H137.814ZM133.895 58.0402C131.214 54.8377 127.429 53.2803 122.687 53.2803V55.2803C126.953 55.2803 130.129 56.6575 132.362 59.3241L133.895 58.0402ZM122.687 53.2803C117.882 53.2803 114.06 54.8341 111.376 58.0402L112.91 59.3241C115.139 56.6611 118.347 55.2803 122.687 55.2803V53.2803ZM111.384 58.0314C108.728 61.1301 107.458 65.3112 107.458 70.4545H109.458C109.458 65.6339 110.645 61.9669 112.902 59.333L111.384 58.0314ZM107.458 70.4545C107.458 75.5349 108.73 79.7082 111.376 82.8687L112.91 81.5848C110.642 78.8763 109.458 75.2014 109.458 70.4545H107.458ZM111.384 82.8776C114.07 86.0121 117.89 87.5262 122.687 87.5262V85.5262C118.339 85.5262 115.129 84.1741 112.902 81.576L111.384 82.8776ZM236.733 34.5233H237.733V33.5233H236.733V34.5233ZM236.733 52.5401V53.5401H237.733V52.5401H236.733ZM217.488 52.5401V51.5401H216.488V52.5401H217.488ZM217.488 107V108H218.488V107H217.488ZM194.763 107H193.763V108H194.763V107ZM194.763 52.5401H195.763V51.5401H194.763V52.5401ZM175.722 52.5401H174.722V53.5401H175.722V52.5401ZM175.722 34.5233V33.5233H174.722V34.5233H175.722ZM235.733 34.5233V52.5401H237.733V34.5233H235.733ZM236.733 51.5401H217.488V53.5401H236.733V51.5401ZM216.488 52.5401V107H218.488V52.5401H216.488ZM217.488 106H194.763V108H217.488V106ZM195.763 107V52.5401H193.763V107H195.763ZM194.763 51.5401H175.722V53.5401H194.763V51.5401ZM176.722 52.5401V34.5233H174.722V52.5401H176.722ZM175.722 35.5233H236.733V33.5233H175.722V35.5233ZM277.395 52.6424V51.6424H276.395V52.6424H277.395ZM277.395 61.5485H276.395V62.5485H277.395V61.5485ZM299.916 61.5485H300.916V60.5485H299.916V61.5485ZM299.916 78.6439V79.6439H300.916V78.6439H299.916ZM277.395 78.6439V77.6439H276.395V78.6439H277.395ZM277.395 88.8807H276.395V89.8807H277.395V88.8807ZM302.987 88.8807H303.987V87.8807H302.987V88.8807ZM302.987 107V108H303.987V107H302.987ZM254.669 107H253.669V108H254.669V107ZM254.669 34.5233V33.5233H253.669V34.5233H254.669ZM302.987 34.5233H303.987V33.5233H302.987V34.5233ZM302.987 52.6424V53.6424H303.987V52.6424H302.987ZM276.395 52.6424V61.5485H278.395V52.6424H276.395ZM277.395 62.5485H299.916V60.5485H277.395V62.5485ZM298.916 61.5485V78.6439H300.916V61.5485H298.916ZM299.916 77.6439H277.395V79.6439H299.916V77.6439ZM276.395 78.6439V88.8807H278.395V78.6439H276.395ZM277.395 89.8807H302.987V87.8807H277.395V89.8807ZM301.987 88.8807V107H303.987V88.8807H301.987ZM302.987 106H254.669V108H302.987V106ZM255.669 107V34.5233H253.669V107H255.669ZM254.669 35.5233H302.987V33.5233H254.669V35.5233ZM301.987 34.5233V52.6424H303.987V34.5233H301.987ZM302.987 51.6424H277.395V53.6424H302.987V51.6424ZM392.832 107V108H393.832V107H392.832ZM370.106 107L369.271 107.551L369.568 108H370.106V107ZM346.05 70.5568L346.884 70.0059L345.05 67.2267V70.5568H346.05ZM346.05 107V108H347.05V107H346.05ZM323.324 107H322.324V108H323.324V107ZM323.324 34.5233V33.5233H322.324V34.5233H323.324ZM346.05 34.5233L346.888 33.9788L346.593 33.5233H346.05V34.5233ZM370.106 71.5805L369.267 72.125L371.106 74.9575V71.5805H370.106ZM370.106 34.5233V33.5233H369.106V34.5233H370.106ZM392.832 34.5233H393.832V33.5233H392.832V34.5233ZM392.832 106H370.106V108H392.832V106ZM370.941 106.449L346.884 70.0059L345.215 71.1077L369.271 107.551L370.941 106.449ZM345.05 70.5568V107H347.05V70.5568H345.05ZM346.05 106H323.324V108H346.05V106ZM324.324 107V34.5233H322.324V107H324.324ZM323.324 35.5233H346.05V33.5233H323.324V35.5233ZM345.211 35.0678L369.267 72.125L370.945 71.036L346.888 33.9788L345.211 35.0678ZM371.106 71.5805V34.5233H369.106V71.5805H371.106ZM370.106 35.5233H392.832V33.5233H370.106V35.5233ZM391.832 34.5233V107H393.832V34.5233H391.832ZM417.123 51.5164L416.238 51.052L416.233 51.0605L417.123 51.5164ZM429.612 38.5157L430.107 39.3846L430.115 39.3798L429.612 38.5157ZM465.441 37.3896L465.004 38.289L465.011 38.2926L465.019 38.2961L465.441 37.3896ZM477.52 47.3193L476.707 47.9006L476.713 47.909L477.52 47.3193ZM483.765 62.3674V63.3674H484.959L484.749 62.1916L483.765 62.3674ZM459.811 62.3674L458.901 62.7832L459.168 63.3674H459.811V62.3674ZM455.102 56.8395L454.534 57.6627L454.55 57.6739L454.567 57.6843L455.102 56.8395ZM439.132 59.0916L438.346 58.4738L438.341 58.4797L438.337 58.4856L439.132 59.0916ZM439.132 82.2268L438.337 82.8328L438.341 82.8387L438.346 82.8446L439.132 82.2268ZM455.102 84.5812L455.65 85.4177L455.656 85.4133L455.102 84.5812ZM459.811 78.951V77.951H459.168L458.901 78.5352L459.811 78.951ZM483.765 78.951L484.749 79.1268L484.959 77.951H483.765V78.951ZM477.52 93.9991L476.713 93.4093L476.707 93.4178L477.52 93.9991ZM465.441 104.031L465.868 104.936L465.873 104.933L465.441 104.031ZM429.612 102.905L429.109 103.769L429.117 103.774L429.612 102.905ZM417.123 89.802L416.233 90.2579L416.238 90.2664L417.123 89.802ZM413.824 70.6592C413.824 63.6297 415.229 57.4087 418.013 51.9723L416.233 51.0605C413.285 56.8163 411.824 63.3572 411.824 70.6592H413.824ZM418.009 51.9808C420.856 46.5508 424.885 42.3591 430.107 39.3846L429.117 37.6468C423.556 40.8143 419.259 45.2897 416.238 51.052L418.009 51.9808ZM430.115 39.3798C435.33 36.3437 441.497 34.8068 448.653 34.8068V32.8068C441.204 32.8068 434.677 34.4091 429.109 37.6515L430.115 39.3798ZM448.653 34.8068C454.802 34.8068 460.245 35.9759 465.004 38.289L465.878 36.4903C460.809 34.0262 455.06 32.8068 448.653 32.8068V34.8068ZM465.019 38.2961C469.851 40.5467 473.74 43.7472 476.707 47.9006L478.334 46.7381C475.159 42.2925 470.995 38.8733 465.863 36.4831L465.019 38.2961ZM476.713 47.909C479.754 52.0745 481.781 56.9459 482.78 62.5432L484.749 62.1916C483.701 56.3237 481.565 51.163 478.328 46.7296L476.713 47.909ZM483.765 61.3674H459.811V63.3674H483.765V61.3674ZM460.72 61.9516C459.555 59.4022 457.862 57.4038 455.637 55.9947L454.567 57.6843C456.437 58.8686 457.883 60.5555 458.901 62.7832L460.72 61.9516ZM455.669 56.0163C453.51 54.5271 451.022 53.7922 448.243 53.7922V55.7922C450.65 55.7922 452.735 56.4221 454.534 57.6627L455.669 56.0163ZM448.243 53.7922C444.132 53.7922 440.798 55.353 438.346 58.4738L439.919 59.7094C441.971 57.0977 444.711 55.7922 448.243 55.7922V53.7922ZM438.337 58.4856C435.981 61.5774 434.857 65.6697 434.857 70.6592H436.857C436.857 65.9579 437.916 62.3384 439.928 59.6977L438.337 58.4856ZM434.857 70.6592C434.857 75.6487 435.981 79.7409 438.337 82.8328L439.928 81.6207C437.916 78.98 436.857 75.3605 436.857 70.6592H434.857ZM438.346 82.8446C440.798 85.9654 444.132 87.5262 448.243 87.5262V85.5262C444.711 85.5262 441.971 84.2207 439.919 81.6089L438.346 82.8446ZM448.243 87.5262C451.012 87.5262 453.492 86.8312 455.65 85.4177L454.554 83.7448C452.753 84.9245 450.661 85.5262 448.243 85.5262V87.5262ZM455.656 85.4133C457.869 83.9383 459.556 81.9125 460.72 79.3668L458.901 78.5352C457.881 80.7666 456.429 82.4944 454.547 83.7492L455.656 85.4133ZM459.811 79.951H483.765V77.951H459.811V79.951ZM482.78 78.7752C481.781 84.3725 479.754 89.2438 476.713 93.4093L478.328 94.5888C481.565 90.1554 483.701 84.9947 484.749 79.1268L482.78 78.7752ZM476.707 93.4178C473.738 97.5736 469.846 100.811 465.009 103.13L465.873 104.933C471 102.475 475.16 99.0234 478.334 94.5803L476.707 93.4178ZM465.014 103.127C460.253 105.375 454.806 106.512 448.653 106.512V108.512C455.056 108.512 460.801 107.328 465.868 104.936L465.014 103.127ZM448.653 106.512C441.493 106.512 435.323 105.007 430.107 102.036L429.117 103.774C434.684 106.945 441.208 108.512 448.653 108.512V106.512ZM430.115 102.041C424.889 98.9975 420.857 94.7694 418.009 89.3376L416.238 90.2664C419.258 96.0268 423.553 100.534 429.109 103.769L430.115 102.041ZM418.013 89.3461C415.229 83.9097 413.824 77.6887 413.824 70.6592H411.824C411.824 77.9612 413.285 84.5021 416.233 90.2579L418.013 89.3461ZM526.445 34.5233H527.445V33.5233H526.445V34.5233ZM526.445 107V108H527.445V107H526.445ZM503.719 107H502.719V108H503.719V107ZM503.719 34.5233V33.5233H502.719V34.5233H503.719ZM525.445 34.5233V107H527.445V34.5233H525.445ZM526.445 106H503.719V108H526.445V106ZM504.719 107V34.5233H502.719V107H504.719ZM503.719 35.5233H526.445V33.5233H503.719V35.5233ZM571.207 52.6424V51.6424H570.207V52.6424H571.207ZM571.207 61.5485H570.207V62.5485H571.207V61.5485ZM593.728 61.5485H594.728V60.5485H593.728V61.5485ZM593.728 78.6439V79.6439H594.728V78.6439H593.728ZM571.207 78.6439V77.6439H570.207V78.6439H571.207ZM571.207 88.8807H570.207V89.8807H571.207V88.8807ZM596.799 88.8807H597.799V87.8807H596.799V88.8807ZM596.799 107V108H597.799V107H596.799ZM548.481 107H547.481V108H548.481V107ZM548.481 34.5233V33.5233H547.481V34.5233H548.481ZM596.799 34.5233H597.799V33.5233H596.799V34.5233ZM596.799 52.6424V53.6424H597.799V52.6424H596.799ZM570.207 52.6424V61.5485H572.207V52.6424H570.207ZM571.207 62.5485H593.728V60.5485H571.207V62.5485ZM592.728 61.5485V78.6439H594.728V61.5485H592.728ZM593.728 77.6439H571.207V79.6439H593.728V77.6439ZM570.207 78.6439V88.8807H572.207V78.6439H570.207ZM571.207 89.8807H596.799V87.8807H571.207V89.8807ZM595.799 88.8807V107H597.799V88.8807H595.799ZM596.799 106H548.481V108H596.799V106ZM549.481 107V34.5233H547.481V107H549.481ZM548.481 35.5233H596.799V33.5233H548.481V35.5233ZM595.799 34.5233V52.6424H597.799V34.5233H595.799ZM596.799 51.6424H571.207V53.6424H596.799V51.6424ZM704.251 34.5233H705.251V33.5233H704.251V34.5233ZM704.251 107V108H705.251V107H704.251ZM681.628 107H680.628V108H681.628V107ZM681.628 70.8639H682.628L680.672 70.5689L681.628 70.8639ZM670.469 107V108H671.207L671.425 107.295L670.469 107ZM651.02 107L650.064 107.295L650.282 108H651.02V107ZM639.861 70.8639L640.817 70.5689L638.861 70.8639H639.861ZM639.861 107V108H640.861V107H639.861ZM617.136 107H616.136V108H617.136V107ZM617.136 34.5233V33.5233H616.136V34.5233H617.136ZM644.98 34.5233L645.919 34.1787L645.678 33.5233H644.98V34.5233ZM660.949 78.0297L660.01 78.3743L660.961 80.965L661.891 78.3664L660.949 78.0297ZM676.509 34.5233V33.5233H675.805L675.568 34.1866L676.509 34.5233ZM703.251 34.5233V107H705.251V34.5233H703.251ZM704.251 106H681.628V108H704.251V106ZM682.628 107V70.8639H680.628V107H682.628ZM680.672 70.5689L669.514 106.705L671.425 107.295L682.583 71.159L680.672 70.5689ZM670.469 106H651.02V108H670.469V106ZM651.975 106.705L640.817 70.5689L638.906 71.159L650.064 107.295L651.975 106.705ZM638.861 70.8639V107H640.861V70.8639H638.861ZM639.861 106H617.136V108H639.861V106ZM618.136 107V34.5233H616.136V107H618.136ZM617.136 35.5233H644.98V33.5233H617.136V35.5233ZM644.041 34.8679L660.01 78.3743L661.888 77.6851L645.919 34.1787L644.041 34.8679ZM661.891 78.3664L677.451 34.8601L675.568 34.1866L660.008 77.6929L661.891 78.3664ZM676.509 35.5233H704.251V33.5233H676.509V35.5233ZM742.759 102.905L742.266 103.775L742.27 103.778L742.759 102.905ZM742.759 38.1062L743.243 38.9809L743.247 38.9789L742.759 38.1062ZM780.328 38.1062L779.835 38.9764L779.843 38.9809L780.328 38.1062ZM793.738 51.3117L792.872 51.8123L792.877 51.82L793.738 51.3117ZM793.738 89.5973L792.877 89.0889L792.872 89.0966L793.738 89.5973ZM780.225 102.905L779.737 102.033L779.733 102.035L780.225 102.905ZM772.036 82.2268L772.795 82.8776L772.803 82.8687L772.036 82.2268ZM772.036 58.6821L771.269 59.3241L771.277 59.3329L772.036 58.6821ZM751.05 58.6821L751.81 59.333L751.817 59.3241L751.05 58.6821ZM751.05 82.2268L750.284 82.8687L750.291 82.8776L751.05 82.2268ZM761.594 106.717C754.934 106.717 748.824 105.153 743.247 102.033L742.27 103.778C748.158 107.072 754.606 108.717 761.594 108.717V106.717ZM743.251 102.035C737.741 98.9146 733.363 94.6041 730.107 89.0889L728.385 90.1056C731.817 95.9191 736.448 100.481 742.266 103.775L743.251 102.035ZM730.107 89.0889C726.861 83.5906 725.23 77.3878 725.23 70.4545H723.23C723.23 77.7162 724.943 84.2752 728.385 90.1056L730.107 89.0889ZM725.23 70.4545C725.23 63.5212 726.861 57.3183 730.107 51.82L728.385 50.8033C724.943 56.6338 723.23 63.1927 723.23 70.4545H725.23ZM730.107 51.82C733.362 46.3066 737.737 42.0323 743.243 38.9809L742.274 37.2315C736.451 40.4586 731.818 44.988 728.385 50.8033L730.107 51.82ZM743.247 38.9789C748.824 35.8582 754.934 34.2949 761.594 34.2949V32.2949C754.606 32.2949 748.158 33.9392 742.27 37.2335L743.247 38.9789ZM761.594 34.2949C768.255 34.2949 774.328 35.8581 779.835 38.9764L780.82 37.236C774.998 33.9392 768.583 32.2949 761.594 32.2949V34.2949ZM779.843 38.9809C785.347 42.0313 789.686 46.3031 792.872 51.8123L794.604 50.811C791.238 44.9915 786.637 40.4596 780.812 37.2315L779.843 38.9809ZM792.877 51.82C796.123 57.3183 797.754 63.5212 797.754 70.4545H799.754C799.754 63.1927 798.041 56.6338 794.599 50.8033L792.877 51.82ZM797.754 70.4545C797.754 77.3878 796.123 83.5906 792.877 89.0889L794.599 90.1056C798.041 84.2752 799.754 77.7162 799.754 70.4545H797.754ZM792.872 89.0966C789.687 94.6046 785.313 98.9123 779.737 102.033L780.714 103.778C786.603 100.483 791.237 95.9186 794.604 90.0979L792.872 89.0966ZM779.733 102.035C774.224 105.154 768.185 106.717 761.594 106.717V108.717C768.517 108.717 774.898 107.071 780.718 103.775L779.733 102.035ZM761.594 87.5262C766.328 87.5262 770.111 86.0086 772.795 82.8776L771.277 81.576C769.047 84.1775 765.869 85.5262 761.594 85.5262V87.5262ZM772.803 82.8687C775.449 79.7082 776.721 75.5349 776.721 70.4545H774.721C774.721 75.2014 773.537 78.8763 771.269 81.5848L772.803 82.8687ZM776.721 70.4545C776.721 65.3112 775.451 61.1301 772.795 58.0314L771.277 59.3329C773.534 61.9668 774.721 65.6339 774.721 70.4545H776.721ZM772.803 58.0402C770.121 54.8377 766.336 53.2803 761.594 53.2803V55.2803C765.861 55.2803 769.037 56.6575 771.269 59.3241L772.803 58.0402ZM761.594 53.2803C756.79 53.2803 752.968 54.8341 750.284 58.0402L751.817 59.3241C754.047 56.6611 757.254 55.2803 761.594 55.2803V53.2803ZM750.291 58.0314C747.635 61.1301 746.365 65.3112 746.365 70.4545H748.365C748.365 65.6339 749.552 61.9669 751.81 59.333L750.291 58.0314ZM746.365 70.4545C746.365 75.5349 747.638 79.7082 750.284 82.8687L751.817 81.5848C749.55 78.8763 748.365 75.2014 748.365 70.4545H746.365ZM750.291 82.8776C752.978 86.0121 756.798 87.5262 761.594 87.5262V85.5262C757.246 85.5262 754.037 84.1741 751.81 81.576L750.291 82.8776ZM888.232 107V108H889.232V107H888.232ZM865.507 107L864.672 107.551L864.968 108H865.507V107ZM841.45 70.5568L842.285 70.0059L840.45 67.2267V70.5568H841.45ZM841.45 107V108H842.45V107H841.45ZM818.724 107H817.724V108H818.724V107ZM818.724 34.5233V33.5233H817.724V34.5233H818.724ZM841.45 34.5233L842.289 33.9788L841.993 33.5233H841.45V34.5233ZM865.507 71.5805L864.668 72.125L866.507 74.9575V71.5805H865.507ZM865.507 34.5233V33.5233H864.507V34.5233H865.507ZM888.232 34.5233H889.232V33.5233H888.232V34.5233ZM888.232 106H865.507V108H888.232V106ZM866.341 106.449L842.285 70.0059L840.616 71.1077L864.672 107.551L866.341 106.449ZM840.45 70.5568V107H842.45V70.5568H840.45ZM841.45 106H818.724V108H841.45V106ZM819.724 107V34.5233H817.724V107H819.724ZM818.724 35.5233H841.45V33.5233H818.724V35.5233ZM840.611 35.0678L864.668 72.125L866.345 71.036L842.289 33.9788L840.611 35.0678ZM866.507 71.5805V34.5233H864.507V71.5805H866.507ZM865.507 35.5233H888.232V33.5233H865.507V35.5233ZM887.232 34.5233V107H889.232V34.5233H887.232ZM926.753 102.905L926.26 103.775L926.265 103.778L926.753 102.905ZM926.753 38.1062L927.238 38.9809L927.241 38.9789L926.753 38.1062ZM964.322 38.1062L963.829 38.9764L963.837 38.9809L964.322 38.1062ZM977.732 51.3117L976.867 51.8123L976.871 51.82L977.732 51.3117ZM977.732 89.5973L976.871 89.0889L976.867 89.0966L977.732 89.5973ZM964.22 102.905L963.731 102.033L963.727 102.035L964.22 102.905ZM956.03 82.2268L956.79 82.8776L956.797 82.8687L956.03 82.2268ZM956.03 58.6821L955.263 59.3241L955.271 59.3329L956.03 58.6821ZM935.045 58.6821L935.804 59.333L935.812 59.3241L935.045 58.6821ZM935.045 82.2268L934.278 82.8687L934.286 82.8776L935.045 82.2268ZM945.589 106.717C938.928 106.717 932.819 105.153 927.241 102.033L926.265 103.778C932.152 107.072 938.6 108.717 945.589 108.717V106.717ZM927.246 102.035C921.735 98.9146 917.358 94.6041 914.102 89.0889L912.379 90.1056C915.811 95.9191 920.442 100.481 926.26 103.775L927.246 102.035ZM914.102 89.0889C910.856 83.5906 909.224 77.3878 909.224 70.4545H907.224C907.224 77.7162 908.937 84.2752 912.379 90.1056L914.102 89.0889ZM909.224 70.4545C909.224 63.5212 910.856 57.3183 914.102 51.82L912.379 50.8033C908.937 56.6338 907.224 63.1927 907.224 70.4545H909.224ZM914.102 51.82C917.357 46.3066 921.732 42.0323 927.238 38.9809L926.268 37.2315C920.445 40.4586 915.812 44.988 912.379 50.8033L914.102 51.82ZM927.241 38.9789C932.819 35.8582 938.928 34.2949 945.589 34.2949V32.2949C938.6 32.2949 932.152 33.9392 926.265 37.2335L927.241 38.9789ZM945.589 34.2949C952.249 34.2949 958.323 35.8581 963.829 38.9764L964.815 37.236C958.993 33.9392 952.577 32.2949 945.589 32.2949V34.2949ZM963.837 38.9809C969.341 42.0313 973.681 46.3031 976.867 51.8123L978.598 50.811C975.232 44.9915 970.631 40.4596 964.807 37.2315L963.837 38.9809ZM976.871 51.82C980.117 57.3183 981.748 63.5212 981.748 70.4545H983.748C983.748 63.1927 982.035 56.6338 978.593 50.8033L976.871 51.82ZM981.748 70.4545C981.748 77.3878 980.117 83.5906 976.871 89.0889L978.593 90.1056C982.035 84.2752 983.748 77.7162 983.748 70.4545H981.748ZM976.867 89.0966C973.681 94.6046 969.308 98.9123 963.731 102.033L964.708 103.778C970.597 100.483 975.232 95.9186 978.598 90.0979L976.867 89.0966ZM963.727 102.035C958.219 105.154 952.179 106.717 945.589 106.717V108.717C952.511 108.717 958.892 107.071 964.712 103.775L963.727 102.035ZM945.589 87.5262C950.323 87.5262 954.107 86.0086 956.79 82.8776L955.271 81.576C953.041 84.1775 949.863 85.5262 945.589 85.5262V87.5262ZM956.797 82.8687C959.443 79.7082 960.715 75.5349 960.715 70.4545H958.715C958.715 75.2014 957.531 78.8763 955.263 81.5848L956.797 82.8687ZM960.715 70.4545C960.715 65.3112 959.446 61.1301 956.789 58.0314L955.271 59.3329C957.529 61.9668 958.715 65.6339 958.715 70.4545H960.715ZM956.797 58.0402C954.116 54.8377 950.331 53.2803 945.589 53.2803V55.2803C949.855 55.2803 953.031 56.6575 955.263 59.3241L956.797 58.0402ZM945.589 53.2803C940.784 53.2803 936.962 54.8341 934.278 58.0402L935.812 59.3241C938.041 56.6611 941.249 55.2803 945.589 55.2803V53.2803ZM934.286 58.0314C931.63 61.1301 930.36 65.3112 930.36 70.4545H932.36C932.36 65.6339 933.546 61.9669 935.804 59.333L934.286 58.0314ZM930.36 70.4545C930.36 75.5349 931.632 79.7082 934.278 82.8687L935.812 81.5848C933.544 78.8763 932.36 75.2014 932.36 70.4545H930.36ZM934.286 82.8776C936.972 86.0121 940.792 87.5262 945.589 87.5262V85.5262C941.241 85.5262 938.031 84.1741 935.804 81.576L934.286 82.8776ZM1009.58 101.677L1008.99 102.484L1009 102.492L1009.58 101.677ZM1000.47 83.7623V82.7623H999.404L999.469 83.823L1000.47 83.7623ZM1024.63 83.7623L1025.62 83.6806L1025.55 82.7623H1024.63V83.7623ZM1033.22 89.1878L1033.78 90.0198L1033.79 90.015V90.01L1033.22 89.1878ZM1031.79 82.3291L1031.28 83.1894L1031.29 83.1965L1031.31 83.2033L1031.79 82.3291ZM1011.62 73.8326L1011.16 74.7189L1011.17 74.723L1011.62 73.8326ZM1000.67 55.4064L1001.67 55.4209V55.4136V55.4064H1000.67ZM1004.25 43.4293L1003.45 42.8373V42.8402L1004.25 43.4293ZM1014.18 35.8541L1013.81 34.9266L1013.8 34.9288L1014.18 35.8541ZM1049.5 39.437L1048.88 40.2219L1048.89 40.2258L1049.5 39.437ZM1057.79 56.7372V57.7372H1058.83L1058.79 56.7005L1057.79 56.7372ZM1033.33 56.7372L1032.33 56.7705L1032.36 57.7372H1033.33V56.7372ZM1025.96 52.0282L1026.66 52.7353L1026.68 52.7168L1026.7 52.6972L1025.96 52.0282ZM1027.7 58.7845L1027.17 59.6362L1027.19 59.6479L1027.21 59.6587L1027.7 58.7845ZM1036.4 62.5721L1036.04 63.5071L1036.05 63.509L1036.4 62.5721ZM1047.66 67.4858L1047.19 68.3676L1047.2 68.372L1047.66 67.4858ZM1055.44 96.5583L1056.29 97.0898V97.0824L1055.44 96.5583ZM1031.07 106.717C1022.56 106.717 1015.61 104.741 1010.16 100.862L1009 102.492C1014.87 106.666 1022.25 108.717 1031.07 108.717V106.717ZM1010.17 100.87C1004.85 96.9755 1001.93 91.2974 1001.46 83.7015L999.469 83.823C999.962 91.9236 1003.12 98.1884 1008.99 102.484L1010.17 100.87ZM1000.47 84.7623H1024.63V82.7623H1000.47V84.7623ZM1023.63 83.844C1023.81 86.0381 1024.39 87.8427 1025.51 89.1085C1026.66 90.4069 1028.26 91.0067 1030.15 91.0067V89.0067C1028.7 89.0067 1027.71 88.5658 1027.01 87.7828C1026.29 86.967 1025.78 85.6495 1025.62 83.6806L1023.63 83.844ZM1030.15 91.0067C1031.53 91.0067 1032.76 90.6997 1033.78 90.0198L1032.67 88.3557C1032.05 88.7678 1031.23 89.0067 1030.15 89.0067V91.0067ZM1033.79 90.01C1034.99 89.1809 1035.56 87.9277 1035.56 86.4239H1033.56C1033.56 87.3768 1033.23 87.9663 1032.66 88.3656L1033.79 90.01ZM1035.56 86.4239C1035.56 84.2639 1034.35 82.6061 1032.28 81.455L1031.31 83.2033C1032.92 84.0995 1033.56 85.1716 1033.56 86.4239H1035.56ZM1032.3 81.4688C1030.37 80.3253 1027.43 79.0709 1023.52 77.7003L1022.86 79.5869C1026.73 80.9461 1029.53 82.1491 1031.28 83.1894L1032.3 81.4688ZM1023.53 77.7009C1018.91 76.0721 1015.1 74.4851 1012.08 72.9422L1011.17 74.723C1014.29 76.3194 1018.19 77.9399 1022.86 79.5869L1023.53 77.7009ZM1012.09 72.9464C1009.23 71.4548 1006.76 69.2761 1004.65 66.3858L1003.04 67.5621C1005.3 70.6774 1008.01 73.0712 1011.16 74.7189L1012.09 72.9464ZM1004.65 66.3858C1002.63 63.6 1001.61 59.9721 1001.67 55.4209L999.672 55.3919C999.601 60.2585 1000.69 64.3423 1003.04 67.5621L1004.65 66.3858ZM1001.67 55.4064C1001.67 50.8738 1002.82 47.0966 1005.06 44.0185L1003.45 42.8402C1000.91 46.3136 999.671 50.5211 999.671 55.4064H1001.67ZM1005.06 44.0214C1007.4 40.838 1010.56 38.4219 1014.56 36.7794L1013.8 34.9288C1009.49 36.6986 1006.02 39.3326 1003.45 42.8373L1005.06 44.0214ZM1014.56 36.7815C1018.65 35.1301 1023.27 34.2949 1028.41 34.2949V32.2949C1023.05 32.2949 1018.18 33.1658 1013.81 34.9266L1014.56 36.7815ZM1028.41 34.2949C1037.14 34.2949 1043.92 36.3076 1048.88 40.2219L1050.12 38.6521C1044.71 34.377 1037.43 32.2949 1028.41 32.2949V34.2949ZM1048.89 40.2258C1053.88 44.1162 1056.53 49.5913 1056.79 56.7738L1058.79 56.7005C1058.51 49.0055 1055.63 42.9472 1050.12 38.6482L1048.89 40.2258ZM1057.79 55.7372H1033.33V57.7372H1057.79V55.7372ZM1034.33 56.7038C1034.25 54.5378 1033.71 52.7516 1032.47 51.6025L1031.11 53.0681C1031.78 53.6935 1032.26 54.8418 1032.33 56.7705L1034.33 56.7038ZM1032.47 51.6025C1031.32 50.5349 1029.92 50.0046 1028.31 50.0046V52.0046C1029.44 52.0046 1030.35 52.3614 1031.11 53.0681L1032.47 51.6025ZM1028.31 50.0046C1027.08 50.0046 1026.03 50.4566 1025.21 51.3593L1026.7 52.6972C1027.12 52.235 1027.63 52.0046 1028.31 52.0046V50.0046ZM1025.25 51.3211C1024.39 52.1792 1024.03 53.3563 1024.03 54.6898H1026.03C1026.03 53.7029 1026.29 53.1057 1026.66 52.7353L1025.25 51.3211ZM1024.03 54.6898C1024.03 56.7708 1025.19 58.4189 1027.17 59.6362L1028.22 57.9329C1026.65 56.9663 1026.03 55.8846 1026.03 54.6898H1024.03ZM1027.21 59.6587C1029.12 60.7189 1032.08 62.0021 1036.04 63.5071L1036.75 61.6371C1032.8 60.1394 1029.96 58.8975 1028.18 57.9104L1027.21 59.6587ZM1036.05 63.509C1040.6 65.206 1044.31 66.8263 1047.19 68.3676L1048.13 66.604C1045.14 65.006 1041.34 63.3505 1036.75 61.6352L1036.05 63.509ZM1047.2 68.372C1050.07 69.8724 1052.55 71.9616 1054.65 74.6526L1056.23 73.4221C1053.96 70.517 1051.26 68.2384 1048.12 66.5996L1047.2 68.372ZM1054.65 74.6526C1056.67 77.2429 1057.71 80.5286 1057.71 84.5812H1059.71C1059.71 80.1714 1058.57 76.4279 1056.23 73.4221L1054.65 74.6526ZM1057.71 84.5812C1057.71 88.8446 1056.67 92.6533 1054.59 96.0342L1056.29 97.0824C1058.58 93.3657 1059.71 89.1898 1059.71 84.5812H1057.71ZM1054.59 96.0268C1052.52 99.3271 1049.5 101.937 1045.49 103.845L1046.35 105.651C1050.66 103.601 1053.99 100.751 1056.29 97.0898L1054.59 96.0268ZM1045.49 103.845C1041.49 105.747 1036.69 106.717 1031.07 106.717V108.717C1036.92 108.717 1042.02 107.708 1046.35 105.651L1045.49 103.845Z" fill="white" fill-opacity="0.5"/>
<path d="M65.2158 92.8876L66.0831 93.3855L66.087 93.3786L65.2158 92.8876ZM55.798 101.691L55.3334 100.806L55.3274 100.809L55.798 101.691ZM31.8439 104.967V103.967H30.8439V104.967H31.8439ZM31.8439 128V129H32.8439V128H31.8439ZM9.11816 128H8.11816V129H9.11816V128ZM9.11816 55.5233V54.5233H8.11816V55.5233H9.11816ZM61.2235 62.2796L60.5322 63.0023L60.5374 63.0072L61.2235 62.2796ZM31.8439 73.7448V72.7448H30.8439V73.7448H31.8439ZM31.8439 87.0526H30.8439V88.0526H31.8439V87.0526ZM67.3892 80.3987C67.3892 84.81 66.3706 88.8022 64.3447 92.3966L66.087 93.3786C68.2922 89.466 69.3892 85.1323 69.3892 80.3987H67.3892ZM64.3486 92.3897C62.3375 95.8929 59.3465 98.7005 55.3334 100.806L56.2625 102.577C60.5753 100.315 63.8629 97.2528 66.0831 93.3855L64.3486 92.3897ZM55.3274 100.809C51.4108 102.898 46.5997 103.967 40.8522 103.967V105.967C46.843 105.967 51.9956 104.853 56.2685 102.574L55.3274 100.809ZM40.8522 103.967H31.8439V105.967H40.8522V103.967ZM30.8439 104.967V128H32.8439V104.967H30.8439ZM31.8439 127H9.11816V129H31.8439V127ZM10.1182 128V55.5233H8.11816V128H10.1182ZM9.11816 56.5233H40.8522V54.5233H9.11816V56.5233ZM40.8522 56.5233C49.5614 56.5233 56.0682 58.7323 60.5322 63.0023L61.9147 61.557C56.9609 56.8185 49.8868 54.5233 40.8522 54.5233V56.5233ZM60.5374 63.0072C65.0828 67.2929 67.3892 73.0526 67.3892 80.3987H69.3892C69.3892 72.5944 66.9184 66.2747 61.9095 61.552L60.5374 63.0072ZM38.293 88.0526C40.7873 88.0526 42.8439 87.4664 44.2763 86.1171C45.7198 84.7572 46.3564 82.7866 46.3564 80.3987H44.3564C44.3564 82.4468 43.8158 83.8032 42.9049 84.6613C41.9828 85.5299 40.5077 86.0526 38.293 86.0526V88.0526ZM46.3564 80.3987C46.3564 78.0108 45.7198 76.0403 44.2763 74.6804C42.8439 73.3311 40.7873 72.7448 38.293 72.7448V74.7448C40.5077 74.7448 41.9828 75.2675 42.9049 76.1362C43.8158 76.9943 44.3564 78.3507 44.3564 80.3987H46.3564ZM38.293 72.7448H31.8439V74.7448H38.293V72.7448ZM30.8439 73.7448V87.0526H32.8439V73.7448H30.8439ZM31.8439 88.0526H38.293V86.0526H31.8439V88.0526ZM103.851 123.905L103.358 124.775L103.363 124.778L103.851 123.905ZM103.851 59.1062L104.336 59.9809L104.339 59.9789L103.851 59.1062ZM141.42 59.1062L140.927 59.9764L140.935 59.9809L141.42 59.1062ZM154.83 72.3117L153.965 72.8123L153.969 72.82L154.83 72.3117ZM154.83 110.597L153.969 110.089L153.965 110.097L154.83 110.597ZM141.318 123.905L140.829 123.033L140.825 123.035L141.318 123.905ZM133.128 103.227L133.888 103.878L133.895 103.869L133.128 103.227ZM133.128 79.6821L132.361 80.3241L132.369 80.3329L133.128 79.6821ZM112.143 79.6821L112.902 80.333L112.91 80.3241L112.143 79.6821ZM112.143 103.227L111.376 103.869L111.384 103.878L112.143 103.227ZM122.687 127.717C116.026 127.717 109.917 126.153 104.339 123.033L103.363 124.778C109.251 128.072 115.698 129.717 122.687 129.717V127.717ZM104.344 123.035C98.8333 119.915 94.4554 115.604 91.1995 110.089L89.4772 111.106C92.9092 116.919 97.5398 121.481 103.358 124.775L104.344 123.035ZM91.1995 110.089C87.9535 104.591 86.3223 98.3878 86.3223 91.4545H84.3223C84.3223 98.7162 86.0351 105.275 89.4772 111.106L91.1995 110.089ZM86.3223 91.4545C86.3223 84.5212 87.9535 78.3183 91.1995 72.82L89.4772 71.8033C86.0351 77.6338 84.3223 84.1927 84.3223 91.4545H86.3223ZM91.1995 72.82C94.4544 67.3066 98.8297 63.0323 104.336 59.9809L103.366 58.2315C97.5434 61.4586 92.9103 65.988 89.4772 71.8033L91.1995 72.82ZM104.339 59.9789C109.917 56.8582 116.026 55.2949 122.687 55.2949V53.2949C115.698 53.2949 109.251 54.9392 103.363 58.2335L104.339 59.9789ZM122.687 55.2949C129.347 55.2949 135.421 56.8581 140.927 59.9764L141.913 58.236C136.091 54.9392 129.675 53.2949 122.687 53.2949V55.2949ZM140.935 59.9809C146.439 63.0313 150.779 67.3031 153.965 72.8123L155.696 71.811C152.33 65.9915 147.729 61.4596 141.905 58.2315L140.935 59.9809ZM153.969 72.82C157.215 78.3183 158.846 84.5212 158.846 91.4545H160.846C160.846 84.1927 159.134 77.6338 155.691 71.8033L153.969 72.82ZM158.846 91.4545C158.846 98.3878 157.215 104.591 153.969 110.089L155.691 111.106C159.134 105.275 160.846 98.7162 160.846 91.4545H158.846ZM153.965 110.097C150.779 115.605 146.406 119.913 140.829 123.033L141.806 124.778C147.695 121.483 152.33 116.919 155.696 111.098L153.965 110.097ZM140.825 123.035C135.317 126.154 129.277 127.717 122.687 127.717V129.717C129.609 129.717 135.99 128.071 141.81 124.775L140.825 123.035ZM122.687 108.526C127.421 108.526 131.204 107.009 133.888 103.878L132.369 102.576C130.139 105.178 126.961 106.526 122.687 106.526V108.526ZM133.895 103.869C136.541 100.708 137.814 96.5349 137.814 91.4545H135.814C135.814 96.2014 134.629 99.8763 132.362 102.585L133.895 103.869ZM137.814 91.4545C137.814 86.3112 136.544 82.1301 133.888 79.0314L132.369 80.3329C134.627 82.9668 135.814 86.6339 135.814 91.4545H137.814ZM133.895 79.0402C131.214 75.8377 127.429 74.2803 122.687 74.2803V76.2803C126.953 76.2803 130.129 77.6575 132.362 80.3241L133.895 79.0402ZM122.687 74.2803C117.882 74.2803 114.06 75.8341 111.376 79.0402L112.91 80.3241C115.139 77.6611 118.347 76.2803 122.687 76.2803V74.2803ZM111.384 79.0314C108.728 82.1301 107.458 86.3112 107.458 91.4545H109.458C109.458 86.6339 110.645 82.9669 112.902 80.333L111.384 79.0314ZM107.458 91.4545C107.458 96.5349 108.73 100.708 111.376 103.869L112.91 102.585C110.642 99.8763 109.458 96.2014 109.458 91.4545H107.458ZM111.384 103.878C114.07 107.012 117.89 108.526 122.687 108.526V106.526C118.339 106.526 115.129 105.174 112.902 102.576L111.384 103.878ZM236.733 55.5233H237.733V54.5233H236.733V55.5233ZM236.733 73.5401V74.5401H237.733V73.5401H236.733ZM217.488 73.5401V72.5401H216.488V73.5401H217.488ZM217.488 128V129H218.488V128H217.488ZM194.763 128H193.763V129H194.763V128ZM194.763 73.5401H195.763V72.5401H194.763V73.5401ZM175.722 73.5401H174.722V74.5401H175.722V73.5401ZM175.722 55.5233V54.5233H174.722V55.5233H175.722ZM235.733 55.5233V73.5401H237.733V55.5233H235.733ZM236.733 72.5401H217.488V74.5401H236.733V72.5401ZM216.488 73.5401V128H218.488V73.5401H216.488ZM217.488 127H194.763V129H217.488V127ZM195.763 128V73.5401H193.763V128H195.763ZM194.763 72.5401H175.722V74.5401H194.763V72.5401ZM176.722 73.5401V55.5233H174.722V73.5401H176.722ZM175.722 56.5233H236.733V54.5233H175.722V56.5233ZM277.395 73.6424V72.6424H276.395V73.6424H277.395ZM277.395 82.5485H276.395V83.5485H277.395V82.5485ZM299.916 82.5485H300.916V81.5485H299.916V82.5485ZM299.916 99.6439V100.644H300.916V99.6439H299.916ZM277.395 99.6439V98.6439H276.395V99.6439H277.395ZM277.395 109.881H276.395V110.881H277.395V109.881ZM302.987 109.881H303.987V108.881H302.987V109.881ZM302.987 128V129H303.987V128H302.987ZM254.669 128H253.669V129H254.669V128ZM254.669 55.5233V54.5233H253.669V55.5233H254.669ZM302.987 55.5233H303.987V54.5233H302.987V55.5233ZM302.987 73.6424V74.6424H303.987V73.6424H302.987ZM276.395 73.6424V82.5485H278.395V73.6424H276.395ZM277.395 83.5485H299.916V81.5485H277.395V83.5485ZM298.916 82.5485V99.6439H300.916V82.5485H298.916ZM299.916 98.6439H277.395V100.644H299.916V98.6439ZM276.395 99.6439V109.881H278.395V99.6439H276.395ZM277.395 110.881H302.987V108.881H277.395V110.881ZM301.987 109.881V128H303.987V109.881H301.987ZM302.987 127H254.669V129H302.987V127ZM255.669 128V55.5233H253.669V128H255.669ZM254.669 56.5233H302.987V54.5233H254.669V56.5233ZM301.987 55.5233V73.6424H303.987V55.5233H301.987ZM302.987 72.6424H277.395V74.6424H302.987V72.6424ZM392.832 128V129H393.832V128H392.832ZM370.106 128L369.271 128.551L369.568 129H370.106V128ZM346.05 91.5568L346.884 91.0059L345.05 88.2267V91.5568H346.05ZM346.05 128V129H347.05V128H346.05ZM323.324 128H322.324V129H323.324V128ZM323.324 55.5233V54.5233H322.324V55.5233H323.324ZM346.05 55.5233L346.888 54.9788L346.593 54.5233H346.05V55.5233ZM370.106 92.5805L369.267 93.125L371.106 95.9575V92.5805H370.106ZM370.106 55.5233V54.5233H369.106V55.5233H370.106ZM392.832 55.5233H393.832V54.5233H392.832V55.5233ZM392.832 127H370.106V129H392.832V127ZM370.941 127.449L346.884 91.0059L345.215 92.1077L369.271 128.551L370.941 127.449ZM345.05 91.5568V128H347.05V91.5568H345.05ZM346.05 127H323.324V129H346.05V127ZM324.324 128V55.5233H322.324V128H324.324ZM323.324 56.5233H346.05V54.5233H323.324V56.5233ZM345.211 56.0678L369.267 93.125L370.945 92.036L346.888 54.9788L345.211 56.0678ZM371.106 92.5805V55.5233H369.106V92.5805H371.106ZM370.106 56.5233H392.832V54.5233H370.106V56.5233ZM391.832 55.5233V128H393.832V55.5233H391.832ZM417.123 72.5164L416.238 72.052L416.233 72.0605L417.123 72.5164ZM429.612 59.5157L430.107 60.3846L430.115 60.3798L429.612 59.5157ZM465.441 58.3896L465.004 59.289L465.011 59.2926L465.019 59.2961L465.441 58.3896ZM477.52 68.3193L476.707 68.9006L476.713 68.909L477.52 68.3193ZM483.765 83.3674V84.3674H484.959L484.749 83.1916L483.765 83.3674ZM459.811 83.3674L458.901 83.7832L459.168 84.3674H459.811V83.3674ZM455.102 77.8395L454.534 78.6627L454.55 78.6739L454.567 78.6843L455.102 77.8395ZM439.132 80.0916L438.346 79.4738L438.341 79.4797L438.337 79.4856L439.132 80.0916ZM439.132 103.227L438.337 103.833L438.341 103.839L438.346 103.845L439.132 103.227ZM455.102 105.581L455.65 106.418L455.656 106.413L455.102 105.581ZM459.811 99.951V98.951H459.168L458.901 99.5352L459.811 99.951ZM483.765 99.951L484.749 100.127L484.959 98.951H483.765V99.951ZM477.52 114.999L476.713 114.41L476.707 114.418L477.52 114.999ZM465.441 125.031L465.868 125.936L465.873 125.933L465.441 125.031ZM429.612 123.905L429.109 124.769L429.117 124.774L429.612 123.905ZM417.123 110.802L416.233 111.258L416.238 111.267L417.123 110.802ZM413.824 91.6592C413.824 84.6297 415.229 78.4087 418.013 72.9723L416.233 72.0605C413.285 77.8163 411.824 84.3572 411.824 91.6592H413.824ZM418.009 72.9808C420.856 67.5508 424.885 63.3591 430.107 60.3846L429.117 58.6468C423.556 61.8143 419.259 66.2897 416.238 72.052L418.009 72.9808ZM430.115 60.3798C435.33 57.3437 441.497 55.8068 448.653 55.8068V53.8068C441.204 53.8068 434.677 55.4091 429.109 58.6515L430.115 60.3798ZM448.653 55.8068C454.802 55.8068 460.245 56.9759 465.004 59.289L465.878 57.4903C460.809 55.0262 455.06 53.8068 448.653 53.8068V55.8068ZM465.019 59.2961C469.851 61.5467 473.74 64.7472 476.707 68.9006L478.334 67.7381C475.159 63.2925 470.995 59.8733 465.863 57.4831L465.019 59.2961ZM476.713 68.909C479.754 73.0745 481.781 77.9459 482.78 83.5432L484.749 83.1916C483.701 77.3237 481.565 72.163 478.328 67.7296L476.713 68.909ZM483.765 82.3674H459.811V84.3674H483.765V82.3674ZM460.72 82.9516C459.555 80.4022 457.862 78.4038 455.637 76.9947L454.567 78.6843C456.437 79.8686 457.883 81.5555 458.901 83.7832L460.72 82.9516ZM455.669 77.0163C453.51 75.5271 451.022 74.7922 448.243 74.7922V76.7922C450.65 76.7922 452.735 77.4221 454.534 78.6627L455.669 77.0163ZM448.243 74.7922C444.132 74.7922 440.798 76.353 438.346 79.4738L439.919 80.7094C441.971 78.0977 444.711 76.7922 448.243 76.7922V74.7922ZM438.337 79.4856C435.981 82.5774 434.857 86.6697 434.857 91.6592H436.857C436.857 86.9579 437.916 83.3384 439.928 80.6977L438.337 79.4856ZM434.857 91.6592C434.857 96.6487 435.981 100.741 438.337 103.833L439.928 102.621C437.916 99.98 436.857 96.3605 436.857 91.6592H434.857ZM438.346 103.845C440.798 106.966 444.132 108.526 448.243 108.526V106.526C444.711 106.526 441.971 105.221 439.919 102.609L438.346 103.845ZM448.243 108.526C451.012 108.526 453.492 107.831 455.65 106.418L454.554 104.745C452.753 105.925 450.661 106.526 448.243 106.526V108.526ZM455.656 106.413C457.869 104.938 459.556 102.913 460.72 100.367L458.901 99.5352C457.881 101.767 456.429 103.495 454.547 104.749L455.656 106.413ZM459.811 100.951H483.765V98.951H459.811V100.951ZM482.78 99.7752C481.781 105.373 479.754 110.244 476.713 114.41L478.328 115.589C481.565 111.156 483.701 105.995 484.749 100.127L482.78 99.7752ZM476.707 114.418C473.738 118.574 469.846 121.811 465.009 124.13L465.873 125.933C471 123.475 475.16 120.024 478.334 115.581L476.707 114.418ZM465.014 124.127C460.253 126.375 454.806 127.512 448.653 127.512V129.512C455.056 129.512 460.801 128.328 465.868 125.936L465.014 124.127ZM448.653 127.512C441.493 127.512 435.323 126.007 430.107 123.036L429.117 124.774C434.684 127.945 441.208 129.512 448.653 129.512V127.512ZM430.115 123.041C424.889 119.998 420.857 115.77 418.009 110.338L416.238 111.267C419.258 117.027 423.553 121.534 429.109 124.769L430.115 123.041ZM418.013 110.346C415.229 104.91 413.824 98.6887 413.824 91.6592H411.824C411.824 98.9612 413.285 105.502 416.233 111.258L418.013 110.346ZM526.445 55.5233H527.445V54.5233H526.445V55.5233ZM526.445 128V129H527.445V128H526.445ZM503.719 128H502.719V129H503.719V128ZM503.719 55.5233V54.5233H502.719V55.5233H503.719ZM525.445 55.5233V128H527.445V55.5233H525.445ZM526.445 127H503.719V129H526.445V127ZM504.719 128V55.5233H502.719V128H504.719ZM503.719 56.5233H526.445V54.5233H503.719V56.5233ZM571.207 73.6424V72.6424H570.207V73.6424H571.207ZM571.207 82.5485H570.207V83.5485H571.207V82.5485ZM593.728 82.5485H594.728V81.5485H593.728V82.5485ZM593.728 99.6439V100.644H594.728V99.6439H593.728ZM571.207 99.6439V98.6439H570.207V99.6439H571.207ZM571.207 109.881H570.207V110.881H571.207V109.881ZM596.799 109.881H597.799V108.881H596.799V109.881ZM596.799 128V129H597.799V128H596.799ZM548.481 128H547.481V129H548.481V128ZM548.481 55.5233V54.5233H547.481V55.5233H548.481ZM596.799 55.5233H597.799V54.5233H596.799V55.5233ZM596.799 73.6424V74.6424H597.799V73.6424H596.799ZM570.207 73.6424V82.5485H572.207V73.6424H570.207ZM571.207 83.5485H593.728V81.5485H571.207V83.5485ZM592.728 82.5485V99.6439H594.728V82.5485H592.728ZM593.728 98.6439H571.207V100.644H593.728V98.6439ZM570.207 99.6439V109.881H572.207V99.6439H570.207ZM571.207 110.881H596.799V108.881H571.207V110.881ZM595.799 109.881V128H597.799V109.881H595.799ZM596.799 127H548.481V129H596.799V127ZM549.481 128V55.5233H547.481V128H549.481ZM548.481 56.5233H596.799V54.5233H548.481V56.5233ZM595.799 55.5233V73.6424H597.799V55.5233H595.799ZM596.799 72.6424H571.207V74.6424H596.799V72.6424ZM704.251 55.5233H705.251V54.5233H704.251V55.5233ZM704.251 128V129H705.251V128H704.251ZM681.628 128H680.628V129H681.628V128ZM681.628 91.8639H682.628L680.672 91.5689L681.628 91.8639ZM670.469 128V129H671.207L671.425 128.295L670.469 128ZM651.02 128L650.064 128.295L650.282 129H651.02V128ZM639.861 91.8639L640.817 91.5689L638.861 91.8639H639.861ZM639.861 128V129H640.861V128H639.861ZM617.136 128H616.136V129H617.136V128ZM617.136 55.5233V54.5233H616.136V55.5233H617.136ZM644.98 55.5233L645.919 55.1787L645.678 54.5233H644.98V55.5233ZM660.949 99.0297L660.01 99.3743L660.961 101.965L661.891 99.3664L660.949 99.0297ZM676.509 55.5233V54.5233H675.805L675.568 55.1866L676.509 55.5233ZM703.251 55.5233V128H705.251V55.5233H703.251ZM704.251 127H681.628V129H704.251V127ZM682.628 128V91.8639H680.628V128H682.628ZM680.672 91.5689L669.514 127.705L671.425 128.295L682.583 92.159L680.672 91.5689ZM670.469 127H651.02V129H670.469V127ZM651.975 127.705L640.817 91.5689L638.906 92.159L650.064 128.295L651.975 127.705ZM638.861 91.8639V128H640.861V91.8639H638.861ZM639.861 127H617.136V129H639.861V127ZM618.136 128V55.5233H616.136V128H618.136ZM617.136 56.5233H644.98V54.5233H617.136V56.5233ZM644.041 55.8679L660.01 99.3743L661.888 98.6851L645.919 55.1787L644.041 55.8679ZM661.891 99.3664L677.451 55.8601L675.568 55.1866L660.008 98.6929L661.891 99.3664ZM676.509 56.5233H704.251V54.5233H676.509V56.5233ZM742.759 123.905L742.266 124.775L742.27 124.778L742.759 123.905ZM742.759 59.1062L743.243 59.9809L743.247 59.9789L742.759 59.1062ZM780.328 59.1062L779.835 59.9764L779.843 59.9809L780.328 59.1062ZM793.738 72.3117L792.872 72.8123L792.877 72.82L793.738 72.3117ZM793.738 110.597L792.877 110.089L792.872 110.097L793.738 110.597ZM780.225 123.905L779.737 123.033L779.733 123.035L780.225 123.905ZM772.036 103.227L772.795 103.878L772.803 103.869L772.036 103.227ZM772.036 79.6821L771.269 80.3241L771.277 80.3329L772.036 79.6821ZM751.05 79.6821L751.81 80.333L751.817 80.3241L751.05 79.6821ZM751.05 103.227L750.284 103.869L750.291 103.878L751.05 103.227ZM761.594 127.717C754.934 127.717 748.824 126.153 743.247 123.033L742.27 124.778C748.158 128.072 754.606 129.717 761.594 129.717V127.717ZM743.251 123.035C737.741 119.915 733.363 115.604 730.107 110.089L728.385 111.106C731.817 116.919 736.448 121.481 742.266 124.775L743.251 123.035ZM730.107 110.089C726.861 104.591 725.23 98.3878 725.23 91.4545H723.23C723.23 98.7162 724.943 105.275 728.385 111.106L730.107 110.089ZM725.23 91.4545C725.23 84.5212 726.861 78.3183 730.107 72.82L728.385 71.8033C724.943 77.6338 723.23 84.1927 723.23 91.4545H725.23ZM730.107 72.82C733.362 67.3066 737.737 63.0323 743.243 59.9809L742.274 58.2315C736.451 61.4586 731.818 65.988 728.385 71.8033L730.107 72.82ZM743.247 59.9789C748.824 56.8582 754.934 55.2949 761.594 55.2949V53.2949C754.606 53.2949 748.158 54.9392 742.27 58.2335L743.247 59.9789ZM761.594 55.2949C768.255 55.2949 774.328 56.8581 779.835 59.9764L780.82 58.236C774.998 54.9392 768.583 53.2949 761.594 53.2949V55.2949ZM779.843 59.9809C785.347 63.0313 789.686 67.3031 792.872 72.8123L794.604 71.811C791.238 65.9915 786.637 61.4596 780.812 58.2315L779.843 59.9809ZM792.877 72.82C796.123 78.3183 797.754 84.5212 797.754 91.4545H799.754C799.754 84.1927 798.041 77.6338 794.599 71.8033L792.877 72.82ZM797.754 91.4545C797.754 98.3878 796.123 104.591 792.877 110.089L794.599 111.106C798.041 105.275 799.754 98.7162 799.754 91.4545H797.754ZM792.872 110.097C789.687 115.605 785.313 119.913 779.737 123.033L780.714 124.778C786.603 121.483 791.237 116.919 794.604 111.098L792.872 110.097ZM779.733 123.035C774.224 126.154 768.185 127.717 761.594 127.717V129.717C768.517 129.717 774.898 128.071 780.718 124.775L779.733 123.035ZM761.594 108.526C766.328 108.526 770.111 107.009 772.795 103.878L771.277 102.576C769.047 105.178 765.869 106.526 761.594 106.526V108.526ZM772.803 103.869C775.449 100.708 776.721 96.5349 776.721 91.4545H774.721C774.721 96.2014 773.537 99.8763 771.269 102.585L772.803 103.869ZM776.721 91.4545C776.721 86.3112 775.451 82.1301 772.795 79.0314L771.277 80.3329C773.534 82.9668 774.721 86.6339 774.721 91.4545H776.721ZM772.803 79.0402C770.121 75.8377 766.336 74.2803 761.594 74.2803V76.2803C765.861 76.2803 769.037 77.6575 771.269 80.3241L772.803 79.0402ZM761.594 74.2803C756.79 74.2803 752.968 75.8341 750.284 79.0402L751.817 80.3241C754.047 77.6611 757.254 76.2803 761.594 76.2803V74.2803ZM750.291 79.0314C747.635 82.1301 746.365 86.3112 746.365 91.4545H748.365C748.365 86.6339 749.552 82.9669 751.81 80.333L750.291 79.0314ZM746.365 91.4545C746.365 96.5349 747.638 100.708 750.284 103.869L751.817 102.585C749.55 99.8763 748.365 96.2014 748.365 91.4545H746.365ZM750.291 103.878C752.978 107.012 756.798 108.526 761.594 108.526V106.526C757.246 106.526 754.037 105.174 751.81 102.576L750.291 103.878ZM888.232 128V129H889.232V128H888.232ZM865.507 128L864.672 128.551L864.968 129H865.507V128ZM841.45 91.5568L842.285 91.0059L840.45 88.2267V91.5568H841.45ZM841.45 128V129H842.45V128H841.45ZM818.724 128H817.724V129H818.724V128ZM818.724 55.5233V54.5233H817.724V55.5233H818.724ZM841.45 55.5233L842.289 54.9788L841.993 54.5233H841.45V55.5233ZM865.507 92.5805L864.668 93.125L866.507 95.9575V92.5805H865.507ZM865.507 55.5233V54.5233H864.507V55.5233H865.507ZM888.232 55.5233H889.232V54.5233H888.232V55.5233ZM888.232 127H865.507V129H888.232V127ZM866.341 127.449L842.285 91.0059L840.616 92.1077L864.672 128.551L866.341 127.449ZM840.45 91.5568V128H842.45V91.5568H840.45ZM841.45 127H818.724V129H841.45V127ZM819.724 128V55.5233H817.724V128H819.724ZM818.724 56.5233H841.45V54.5233H818.724V56.5233ZM840.611 56.0678L864.668 93.125L866.345 92.036L842.289 54.9788L840.611 56.0678ZM866.507 92.5805V55.5233H864.507V92.5805H866.507ZM865.507 56.5233H888.232V54.5233H865.507V56.5233ZM887.232 55.5233V128H889.232V55.5233H887.232ZM926.753 123.905L926.26 124.775L926.265 124.778L926.753 123.905ZM926.753 59.1062L927.238 59.9809L927.241 59.9789L926.753 59.1062ZM964.322 59.1062L963.829 59.9764L963.837 59.9809L964.322 59.1062ZM977.732 72.3117L976.867 72.8123L976.871 72.82L977.732 72.3117ZM977.732 110.597L976.871 110.089L976.867 110.097L977.732 110.597ZM964.22 123.905L963.731 123.033L963.727 123.035L964.22 123.905ZM956.03 103.227L956.79 103.878L956.797 103.869L956.03 103.227ZM956.03 79.6821L955.263 80.3241L955.271 80.3329L956.03 79.6821ZM935.045 79.6821L935.804 80.333L935.812 80.3241L935.045 79.6821ZM935.045 103.227L934.278 103.869L934.286 103.878L935.045 103.227ZM945.589 127.717C938.928 127.717 932.819 126.153 927.241 123.033L926.265 124.778C932.152 128.072 938.6 129.717 945.589 129.717V127.717ZM927.246 123.035C921.735 119.915 917.358 115.604 914.102 110.089L912.379 111.106C915.811 116.919 920.442 121.481 926.26 124.775L927.246 123.035ZM914.102 110.089C910.856 104.591 909.224 98.3878 909.224 91.4545H907.224C907.224 98.7162 908.937 105.275 912.379 111.106L914.102 110.089ZM909.224 91.4545C909.224 84.5212 910.856 78.3183 914.102 72.82L912.379 71.8033C908.937 77.6338 907.224 84.1927 907.224 91.4545H909.224ZM914.102 72.82C917.357 67.3066 921.732 63.0323 927.238 59.9809L926.268 58.2315C920.445 61.4586 915.812 65.988 912.379 71.8033L914.102 72.82ZM927.241 59.9789C932.819 56.8582 938.928 55.2949 945.589 55.2949V53.2949C938.6 53.2949 932.152 54.9392 926.265 58.2335L927.241 59.9789ZM945.589 55.2949C952.249 55.2949 958.323 56.8581 963.829 59.9764L964.815 58.236C958.993 54.9392 952.577 53.2949 945.589 53.2949V55.2949ZM963.837 59.9809C969.341 63.0313 973.681 67.3031 976.867 72.8123L978.598 71.811C975.232 65.9915 970.631 61.4596 964.807 58.2315L963.837 59.9809ZM976.871 72.82C980.117 78.3183 981.748 84.5212 981.748 91.4545H983.748C983.748 84.1927 982.035 77.6338 978.593 71.8033L976.871 72.82ZM981.748 91.4545C981.748 98.3878 980.117 104.591 976.871 110.089L978.593 111.106C982.035 105.275 983.748 98.7162 983.748 91.4545H981.748ZM976.867 110.097C973.681 115.605 969.308 119.913 963.731 123.033L964.708 124.778C970.597 121.483 975.232 116.919 978.598 111.098L976.867 110.097ZM963.727 123.035C958.219 126.154 952.179 127.717 945.589 127.717V129.717C952.511 129.717 958.892 128.071 964.712 124.775L963.727 123.035ZM945.589 108.526C950.323 108.526 954.107 107.009 956.79 103.878L955.271 102.576C953.041 105.178 949.863 106.526 945.589 106.526V108.526ZM956.797 103.869C959.443 100.708 960.715 96.5349 960.715 91.4545H958.715C958.715 96.2014 957.531 99.8763 955.263 102.585L956.797 103.869ZM960.715 91.4545C960.715 86.3112 959.446 82.1301 956.789 79.0314L955.271 80.3329C957.529 82.9668 958.715 86.6339 958.715 91.4545H960.715ZM956.797 79.0402C954.116 75.8377 950.331 74.2803 945.589 74.2803V76.2803C949.855 76.2803 953.031 77.6575 955.263 80.3241L956.797 79.0402ZM945.589 74.2803C940.784 74.2803 936.962 75.8341 934.278 79.0402L935.812 80.3241C938.041 77.6611 941.249 76.2803 945.589 76.2803V74.2803ZM934.286 79.0314C931.63 82.1301 930.36 86.3112 930.36 91.4545H932.36C932.36 86.6339 933.546 82.9669 935.804 80.333L934.286 79.0314ZM930.36 91.4545C930.36 96.5349 931.632 100.708 934.278 103.869L935.812 102.585C933.544 99.8763 932.36 96.2014 932.36 91.4545H930.36ZM934.286 103.878C936.972 107.012 940.792 108.526 945.589 108.526V106.526C941.241 106.526 938.031 105.174 935.804 102.576L934.286 103.878ZM1009.58 122.677L1008.99 123.484L1009 123.492L1009.58 122.677ZM1000.47 104.762V103.762H999.404L999.469 104.823L1000.47 104.762ZM1024.63 104.762L1025.62 104.681L1025.55 103.762H1024.63V104.762ZM1033.22 110.188L1033.78 111.02L1033.79 111.015V111.01L1033.22 110.188ZM1031.79 103.329L1031.28 104.19L1031.29 104.197L1031.31 104.203L1031.79 103.329ZM1011.62 94.8326L1011.16 95.7189L1011.17 95.723L1011.62 94.8326ZM1000.67 76.4064L1001.67 76.4209V76.4136V76.4064H1000.67ZM1004.25 64.4293L1003.45 63.8373V63.8402L1004.25 64.4293ZM1014.18 56.8541L1013.81 55.9266L1013.8 55.9288L1014.18 56.8541ZM1049.5 60.437L1048.88 61.2219L1048.89 61.2258L1049.5 60.437ZM1057.79 77.7372V78.7372H1058.83L1058.79 77.7005L1057.79 77.7372ZM1033.33 77.7372L1032.33 77.7705L1032.36 78.7372H1033.33V77.7372ZM1025.96 73.0282L1026.66 73.7353L1026.68 73.7168L1026.7 73.6972L1025.96 73.0282ZM1027.7 79.7845L1027.17 80.6362L1027.19 80.6479L1027.21 80.6587L1027.7 79.7845ZM1036.4 83.5721L1036.04 84.5071L1036.05 84.509L1036.4 83.5721ZM1047.66 88.4858L1047.19 89.3676L1047.2 89.372L1047.66 88.4858ZM1055.44 117.558L1056.29 118.09V118.083L1055.44 117.558ZM1031.07 127.717C1022.56 127.717 1015.61 125.741 1010.16 121.862L1009 123.492C1014.87 127.666 1022.25 129.717 1031.07 129.717V127.717ZM1010.17 121.87C1004.85 117.976 1001.93 112.298 1001.46 104.702L999.469 104.823C999.962 112.924 1003.12 119.189 1008.99 123.484L1010.17 121.87ZM1000.47 105.762H1024.63V103.762H1000.47V105.762ZM1023.63 104.844C1023.81 107.038 1024.39 108.843 1025.51 110.109C1026.66 111.407 1028.26 112.007 1030.15 112.007V110.007C1028.7 110.007 1027.71 109.566 1027.01 108.783C1026.29 107.967 1025.78 106.65 1025.62 104.681L1023.63 104.844ZM1030.15 112.007C1031.53 112.007 1032.76 111.7 1033.78 111.02L1032.67 109.356C1032.05 109.768 1031.23 110.007 1030.15 110.007V112.007ZM1033.79 111.01C1034.99 110.181 1035.56 108.928 1035.56 107.424H1033.56C1033.56 108.377 1033.23 108.966 1032.66 109.366L1033.79 111.01ZM1035.56 107.424C1035.56 105.264 1034.35 103.606 1032.28 102.455L1031.31 104.203C1032.92 105.1 1033.56 106.172 1033.56 107.424H1035.56ZM1032.3 102.469C1030.37 101.326 1027.43 100.071 1023.52 98.7003L1022.86 100.587C1026.73 101.946 1029.53 103.149 1031.28 104.19L1032.3 102.469ZM1023.53 98.7009C1018.91 97.0721 1015.1 95.4851 1012.08 93.9422L1011.17 95.723C1014.29 97.3194 1018.19 98.9399 1022.86 100.587L1023.53 98.7009ZM1012.09 93.9464C1009.23 92.4548 1006.76 90.2761 1004.65 87.3858L1003.04 88.5621C1005.3 91.6774 1008.01 94.0712 1011.16 95.7189L1012.09 93.9464ZM1004.65 87.3858C1002.63 84.6 1001.61 80.9721 1001.67 76.4209L999.672 76.3919C999.601 81.2585 1000.69 85.3423 1003.04 88.5621L1004.65 87.3858ZM1001.67 76.4064C1001.67 71.8738 1002.82 68.0966 1005.06 65.0185L1003.45 63.8402C1000.91 67.3136 999.671 71.5211 999.671 76.4064H1001.67ZM1005.06 65.0214C1007.4 61.838 1010.56 59.4219 1014.56 57.7794L1013.8 55.9288C1009.49 57.6986 1006.02 60.3326 1003.45 63.8373L1005.06 65.0214ZM1014.56 57.7815C1018.65 56.1301 1023.27 55.2949 1028.41 55.2949V53.2949C1023.05 53.2949 1018.18 54.1658 1013.81 55.9266L1014.56 57.7815ZM1028.41 55.2949C1037.14 55.2949 1043.92 57.3076 1048.88 61.2219L1050.12 59.6521C1044.71 55.377 1037.43 53.2949 1028.41 53.2949V55.2949ZM1048.89 61.2258C1053.88 65.1162 1056.53 70.5913 1056.79 77.7738L1058.79 77.7005C1058.51 70.0055 1055.63 63.9472 1050.12 59.6482L1048.89 61.2258ZM1057.79 76.7372H1033.33V78.7372H1057.79V76.7372ZM1034.33 77.7038C1034.25 75.5378 1033.71 73.7516 1032.47 72.6025L1031.11 74.0681C1031.78 74.6935 1032.26 75.8418 1032.33 77.7705L1034.33 77.7038ZM1032.47 72.6025C1031.32 71.5349 1029.92 71.0046 1028.31 71.0046V73.0046C1029.44 73.0046 1030.35 73.3614 1031.11 74.0681L1032.47 72.6025ZM1028.31 71.0046C1027.08 71.0046 1026.03 71.4566 1025.21 72.3593L1026.7 73.6972C1027.12 73.235 1027.63 73.0046 1028.31 73.0046V71.0046ZM1025.25 72.3211C1024.39 73.1792 1024.03 74.3563 1024.03 75.6898H1026.03C1026.03 74.7029 1026.29 74.1057 1026.66 73.7353L1025.25 72.3211ZM1024.03 75.6898C1024.03 77.7708 1025.19 79.4189 1027.17 80.6362L1028.22 78.9329C1026.65 77.9663 1026.03 76.8846 1026.03 75.6898H1024.03ZM1027.21 80.6587C1029.12 81.7189 1032.08 83.0021 1036.04 84.5071L1036.75 82.6371C1032.8 81.1394 1029.96 79.8975 1028.18 78.9104L1027.21 80.6587ZM1036.05 84.509C1040.6 86.206 1044.31 87.8263 1047.19 89.3676L1048.13 87.604C1045.14 86.006 1041.34 84.3505 1036.75 82.6352L1036.05 84.509ZM1047.2 89.372C1050.07 90.8724 1052.55 92.9616 1054.65 95.6526L1056.23 94.4221C1053.96 91.517 1051.26 89.2384 1048.12 87.5996L1047.2 89.372ZM1054.65 95.6526C1056.67 98.2429 1057.71 101.529 1057.71 105.581H1059.71C1059.71 101.172 1058.57 97.4279 1056.23 94.4221L1054.65 95.6526ZM1057.71 105.581C1057.71 109.845 1056.67 113.654 1054.59 117.034L1056.29 118.083C1058.58 114.366 1059.71 110.19 1059.71 105.581H1057.71ZM1054.59 117.027C1052.52 120.327 1049.5 122.937 1045.49 124.845L1046.35 126.651C1050.66 124.601 1053.99 121.751 1056.29 118.09L1054.59 117.027ZM1045.49 124.845C1041.49 126.747 1036.69 127.717 1031.07 127.717V129.717C1036.92 129.717 1042.02 128.708 1046.35 126.651L1045.49 124.845Z" fill="white" fill-opacity="0.5"/>
<path d="M65.3892 68.3989C65.3892 72.9714 64.3314 77.1343 62.2158 80.8878C60.1002 84.5731 56.9609 87.5076 52.798 89.6915C48.7032 91.8753 43.7213 92.9672 37.8522 92.9672H28.8439V116H6.11816V43.5235H37.8522C46.7241 43.5235 53.5145 45.7756 58.2235 50.2798C63.0006 54.784 65.3892 60.8237 65.3892 68.3989ZM35.293 75.0528C40.002 75.0528 42.3564 72.8349 42.3564 68.3989C42.3564 63.963 40.002 61.745 35.293 61.745H28.8439V75.0528H35.293ZM119.687 116.717C112.862 116.717 106.584 115.113 100.851 111.905C95.1865 108.698 90.6823 104.262 87.3383 98.5975C83.9943 92.9331 82.3223 86.5522 82.3223 79.4547C82.3223 72.3572 83.9943 65.9762 87.3383 60.3119C90.6823 54.6475 95.1865 50.2457 100.851 47.1064C106.584 43.8989 112.862 42.2951 119.687 42.2951C126.511 42.2951 132.756 43.8989 138.42 47.1064C144.084 50.2457 148.555 54.6475 151.83 60.3119C155.174 65.9762 156.846 72.3572 156.846 79.4547C156.846 86.5522 155.174 92.9331 151.83 98.5975C148.555 104.262 144.05 108.698 138.318 111.905C132.653 115.113 126.443 116.717 119.687 116.717ZM119.687 95.5264C124.191 95.5264 127.671 94.0933 130.128 91.227C132.585 88.2924 133.814 84.3683 133.814 79.4547C133.814 74.4728 132.585 70.5487 130.128 67.6823C127.671 64.7478 124.191 63.2805 119.687 63.2805C115.114 63.2805 111.6 64.7478 109.143 67.6823C106.686 70.5487 105.458 74.4728 105.458 79.4547C105.458 84.3683 106.686 88.2924 109.143 91.227C111.6 94.0933 115.114 95.5264 119.687 95.5264ZM233.733 43.5235V61.5403H214.488V116H191.763V61.5403H172.722V43.5235H233.733ZM274.395 61.6426V70.5487H296.916V87.6441H274.395V97.8809H299.987V116H251.669V43.5235H299.987V61.6426H274.395ZM389.832 116H367.106L343.05 79.557V116H320.324V43.5235H343.05L367.106 80.5807V43.5235H389.832V116ZM409.824 79.6594C409.824 72.4936 411.257 66.1127 414.123 60.5166C417.058 54.9205 421.221 50.5869 426.612 47.5159C432.003 44.3766 438.35 42.807 445.653 42.807C451.931 42.807 457.527 44.0012 462.441 46.3898C467.423 48.7102 471.449 52.0201 474.52 56.3195C477.66 60.619 479.741 65.635 480.765 71.3676H456.811C455.719 68.979 454.149 67.1364 452.102 65.8397C450.123 64.4748 447.836 63.7924 445.243 63.7924C441.421 63.7924 438.384 65.2255 436.132 68.0918C433.948 70.9581 432.857 74.814 432.857 79.6594C432.857 84.5048 433.948 88.3607 436.132 91.227C438.384 94.0933 441.421 95.5264 445.243 95.5264C447.836 95.5264 450.123 94.8781 452.102 93.5814C454.149 92.2165 455.719 90.3398 456.811 87.9512H480.765C479.741 93.6838 477.66 98.6998 474.52 102.999C471.449 107.299 467.423 110.643 462.441 113.031C457.527 115.352 451.931 116.512 445.653 116.512C438.35 116.512 432.003 114.976 426.612 111.905C421.221 108.766 417.058 104.398 414.123 98.8022C411.257 93.2061 409.824 86.8251 409.824 79.6594ZM523.445 43.5235V116H500.719V43.5235H523.445ZM568.207 61.6426V70.5487H590.728V87.6441H568.207V97.8809H593.799V116H545.481V43.5235H593.799V61.6426H568.207ZM582.334 29.7039L555.82 39.3264V24.176L582.334 12.9155V29.7039ZM701.251 43.5235V116H678.628V79.8641L667.469 116H648.02L636.861 79.8641V116H614.136V43.5235H641.98L657.949 87.0299L673.509 43.5235H701.251ZM758.594 116.717C751.77 116.717 745.491 115.113 739.759 111.905C734.094 108.698 729.59 104.262 726.246 98.5975C722.902 92.9331 721.23 86.5522 721.23 79.4547C721.23 72.3572 722.902 65.9762 726.246 60.3119C729.59 54.6475 734.094 50.2457 739.759 47.1064C745.491 43.8989 751.77 42.2951 758.594 42.2951C765.419 42.2951 771.663 43.8989 777.328 47.1064C782.992 50.2457 787.462 54.6475 790.738 60.3119C794.082 65.9762 795.754 72.3572 795.754 79.4547C795.754 86.5522 794.082 92.9331 790.738 98.5975C787.462 104.262 782.958 108.698 777.225 111.905C771.561 115.113 765.351 116.717 758.594 116.717ZM758.594 95.5264C763.099 95.5264 766.579 94.0933 769.036 91.227C771.493 88.2924 772.721 84.3683 772.721 79.4547C772.721 74.4728 771.493 70.5487 769.036 67.6823C766.579 64.7478 763.099 63.2805 758.594 63.2805C754.022 63.2805 750.507 64.7478 748.05 67.6823C745.594 70.5487 744.365 74.4728 744.365 79.4547C744.365 84.3683 745.594 88.2924 748.05 91.227C750.507 94.0933 754.022 95.5264 758.594 95.5264ZM885.232 116H862.507L838.45 79.557V116H815.724V43.5235H838.45L862.507 80.5807V43.5235H885.232V116ZM942.589 116.717C935.764 116.717 929.486 115.113 923.753 111.905C918.089 108.698 913.584 104.262 910.24 98.5975C906.896 92.9331 905.224 86.5522 905.224 79.4547C905.224 72.3572 906.896 65.9762 910.24 60.3119C913.584 54.6475 918.089 50.2457 923.753 47.1064C929.486 43.8989 935.764 42.2951 942.589 42.2951C949.413 42.2951 955.658 43.8989 961.322 47.1064C966.986 50.2457 971.456 54.6475 974.732 60.3119C978.076 65.9762 979.748 72.3572 979.748 79.4547C979.748 86.5522 978.076 92.9331 974.732 98.5975C971.456 104.262 966.952 108.698 961.22 111.905C955.555 115.113 949.345 116.717 942.589 116.717ZM942.589 95.5264C947.093 95.5264 950.573 94.0933 953.03 91.227C955.487 88.2924 956.715 84.3683 956.715 79.4547C956.715 74.4728 955.487 70.5487 953.03 67.6823C950.573 64.7478 947.093 63.2805 942.589 63.2805C938.016 63.2805 934.502 64.7478 932.045 67.6823C929.588 70.5487 928.36 74.4728 928.36 79.4547C928.36 84.3683 929.588 88.2924 932.045 91.227C934.502 94.0933 938.016 95.5264 942.589 95.5264ZM1028.07 116.717C1019.41 116.717 1012.24 114.703 1006.58 110.677C1000.98 106.582 997.944 100.611 997.467 92.7625H1021.63C1021.97 96.9254 1023.81 99.0069 1027.15 99.0069C1028.38 99.0069 1029.41 98.7339 1030.22 98.188C1031.11 97.5738 1031.56 96.6525 1031.56 95.4241C1031.56 93.7179 1030.63 92.353 1028.79 91.3293C1026.95 90.2374 1024.08 89.009 1020.19 87.6441C1015.55 86.0062 1011.7 84.4024 1008.62 82.8328C1005.62 81.2632 1003.03 78.9769 1000.84 75.9741C998.661 72.9714 997.603 69.1155 997.671 64.4066C997.671 59.6977 998.866 55.7053 1001.25 52.4295C1003.71 49.0855 1007.02 46.5604 1011.18 44.8543C1015.42 43.1482 1020.16 42.2951 1025.41 42.2951C1034.29 42.2951 1041.31 44.3425 1046.5 48.4372C1051.76 52.5319 1054.52 58.2986 1054.79 65.7374H1030.33C1030.26 63.69 1029.75 62.2227 1028.79 61.3355C1027.84 60.4483 1026.68 60.0048 1025.31 60.0048C1024.36 60.0048 1023.57 60.346 1022.96 61.0284C1022.34 61.6426 1022.03 62.5298 1022.03 63.69C1022.03 65.3279 1022.92 66.6928 1024.7 67.7847C1026.54 68.8084 1029.44 70.0709 1033.4 71.5723C1037.97 73.2785 1041.72 74.9163 1044.66 76.486C1047.66 78.0556 1050.25 80.2395 1052.44 83.0375C1054.62 85.8356 1055.71 89.3502 1055.71 93.5814C1055.71 98.0174 1054.62 102.01 1052.44 105.558C1050.25 109.039 1047.08 111.769 1042.92 113.748C1038.76 115.727 1033.81 116.717 1028.07 116.717Z" fill="#D3D1D7"/>
</g>
</g>
<defs>
<clipPath id="clip0_334_4015">
<rect width="1059" height="155" fill="white"/>
</clipPath>
</defs>
</svg>
