<svg width="1059" height="155" viewBox="0 0 1059 155" fill="none" xmlns="http://www.w3.org/2000/svg">
<g clip-path="url(#clip0_235_2739)">
<path d="M65.216 71.8878L66.0833 72.3857L66.0872 72.3788L65.216 71.8878ZM55.7982 80.6915L55.3336 79.8059L55.3276 79.8091L55.7982 80.6915ZM31.8441 83.9672V82.9672H30.8441V83.9672H31.8441ZM31.8441 107V108H32.8441V107H31.8441ZM9.11839 107H8.11839V108H9.11839V107ZM9.11839 34.5235V33.5235H8.11839V34.5235H9.11839ZM61.2237 41.2798L60.5324 42.0025L60.5376 42.0074L61.2237 41.2798ZM31.8441 52.745V51.745H30.8441V52.745H31.8441ZM31.8441 66.0528H30.8441V67.0528H31.8441V66.0528ZM67.3894 59.3989C67.3894 63.8102 66.3708 67.8024 64.3449 71.3968L66.0872 72.3788C68.2924 68.4662 69.3894 64.1325 69.3894 59.3989H67.3894ZM64.3488 71.3899C62.3377 74.8931 59.3467 77.7007 55.3336 79.8059L56.2627 81.577C60.5755 79.3145 63.8631 76.253 66.0833 72.3857L64.3488 71.3899ZM55.3276 79.8091C51.411 81.8979 46.5999 82.9672 40.8524 82.9672V84.9672C46.8432 84.9672 51.9958 83.8527 56.2687 81.5738L55.3276 79.8091ZM40.8524 82.9672H31.8441V84.9672H40.8524V82.9672ZM30.8441 83.9672V107H32.8441V83.9672H30.8441ZM31.8441 106H9.11839V108H31.8441V106ZM10.1184 107V34.5235H8.11839V107H10.1184ZM9.11839 35.5235H40.8524V33.5235H9.11839V35.5235ZM40.8524 35.5235C49.5616 35.5235 56.0684 37.7325 60.5324 42.0025L61.9149 40.5572C56.9611 35.8187 49.887 33.5235 40.8524 33.5235V35.5235ZM60.5376 42.0074C65.083 46.2931 67.3894 52.0528 67.3894 59.3989H69.3894C69.3894 51.5946 66.9186 45.2749 61.9097 40.5522L60.5376 42.0074ZM38.2932 67.0528C40.7875 67.0528 42.8441 66.4666 44.2765 65.1173C45.72 63.7574 46.3566 61.7868 46.3566 59.3989H44.3566C44.3566 61.447 43.816 62.8034 42.9051 63.6615C41.983 64.5301 40.5079 65.0528 38.2932 65.0528V67.0528ZM46.3566 59.3989C46.3566 57.011 45.72 55.0405 44.2765 53.6806C42.8441 52.3313 40.7875 51.745 38.2932 51.745V53.745C40.5079 53.745 41.983 54.2677 42.9051 55.1364C43.816 55.9945 44.3566 57.3509 44.3566 59.3989H46.3566ZM38.2932 51.745H31.8441V53.745H38.2932V51.745ZM30.8441 52.745V66.0528H32.8441V52.745H30.8441ZM31.8441 67.0528H38.2932V65.0528H31.8441V67.0528ZM103.851 102.905L103.358 103.775L103.363 103.778L103.851 102.905ZM90.3385 89.5975L89.4774 90.1058L89.4774 90.1058L90.3385 89.5975ZM103.851 38.1064L104.336 38.9811L104.339 38.9791L103.851 38.1064ZM141.42 38.1064L140.927 38.9766L140.935 38.9811L141.42 38.1064ZM154.83 51.3119L153.965 51.8125L153.969 51.8202L154.83 51.3119ZM154.83 89.5975L153.969 89.0891L153.965 89.0968L154.83 89.5975ZM141.318 102.905L140.829 102.033L140.825 102.035L141.318 102.905ZM133.128 82.227L133.888 82.8778L133.895 82.8689L133.128 82.227ZM133.128 58.6823L132.361 59.3243L132.369 59.3331L133.128 58.6823ZM112.143 58.6823L112.902 59.3332L112.91 59.3243L112.143 58.6823ZM112.143 82.227L111.376 82.8689L111.384 82.8778L112.143 82.227ZM122.687 106.717C116.026 106.717 109.917 105.153 104.339 102.033L103.363 103.778C109.251 107.072 115.698 108.717 122.687 108.717V106.717ZM104.344 102.035C98.8335 98.9148 94.4556 94.6043 91.1997 89.0891L89.4774 90.1058C92.9094 95.9193 97.54 100.481 103.358 103.775L104.344 102.035ZM91.1997 89.0891C87.9537 83.5908 86.3225 77.388 86.3225 70.4547H84.3225C84.3225 77.7164 86.0353 84.2754 89.4774 90.1058L91.1997 89.0891ZM86.3225 70.4547C86.3225 63.5214 87.9537 57.3185 91.1997 51.8202L89.4774 50.8035C86.0353 56.634 84.3225 63.1929 84.3225 70.4547H86.3225ZM91.1997 51.8202C94.4546 46.3068 98.8299 42.0325 104.336 38.9811L103.366 37.2317C97.5436 40.4588 92.9105 44.9882 89.4774 50.8035L91.1997 51.8202ZM104.339 38.9791C109.917 35.8584 116.026 34.2951 122.687 34.2951V32.2951C115.698 32.2951 109.251 33.9394 103.363 37.2337L104.339 38.9791ZM122.687 34.2951C129.347 34.2951 135.421 35.8583 140.927 38.9766L141.913 37.2362C136.091 33.9394 129.675 32.2951 122.687 32.2951V34.2951ZM140.935 38.9811C146.439 42.0315 150.779 46.3033 153.965 51.8125L155.696 50.8112C152.33 44.9917 147.729 40.4598 141.905 37.2317L140.935 38.9811ZM153.969 51.8202C157.215 57.3185 158.846 63.5214 158.846 70.4547H160.846C160.846 63.1929 159.134 56.634 155.691 50.8035L153.969 51.8202ZM158.846 70.4547C158.846 77.388 157.215 83.5908 153.969 89.0891L155.691 90.1058C159.134 84.2754 160.846 77.7164 160.846 70.4547H158.846ZM153.965 89.0968C150.779 94.6048 146.406 98.9125 140.829 102.033L141.806 103.778C147.695 100.483 152.33 95.9188 155.696 90.0981L153.965 89.0968ZM140.825 102.035C135.317 105.154 129.277 106.717 122.687 106.717V108.717C129.609 108.717 135.99 107.071 141.81 103.775L140.825 102.035ZM122.687 87.5264C127.421 87.5264 131.204 86.0088 133.888 82.8778L132.369 81.5762C130.139 84.1777 126.961 85.5264 122.687 85.5264V87.5264ZM133.895 82.8689C136.541 79.7084 137.814 75.5351 137.814 70.4547H135.814C135.814 75.2016 134.629 78.8765 132.362 81.585L133.895 82.8689ZM137.814 70.4547C137.814 65.3114 136.544 61.1303 133.888 58.0316L132.369 59.3331C134.627 61.967 135.814 65.6341 135.814 70.4547H137.814ZM133.895 58.0404C131.214 54.8379 127.429 53.2805 122.687 53.2805V55.2805C126.953 55.2805 130.129 56.6577 132.362 59.3243L133.895 58.0404ZM122.687 53.2805C117.882 53.2805 114.06 54.8343 111.376 58.0404L112.91 59.3243C115.139 56.6613 118.347 55.2805 122.687 55.2805V53.2805ZM111.384 58.0316C108.728 61.1303 107.458 65.3114 107.458 70.4547H109.458C109.458 65.6341 110.645 61.967 112.902 59.3331L111.384 58.0316ZM107.458 70.4547C107.458 75.5351 108.73 79.7084 111.376 82.8689L112.91 81.585C110.642 78.8765 109.458 75.2016 109.458 70.4547H107.458ZM111.384 82.8778C114.07 86.0123 117.89 87.5264 122.687 87.5264V85.5264C118.339 85.5264 115.129 84.1743 112.902 81.5762L111.384 82.8778ZM236.733 34.5235H237.733V33.5235H236.733V34.5235ZM236.733 52.5403V53.5403H237.733V52.5403H236.733ZM217.488 52.5403V51.5403H216.488V52.5403H217.488ZM217.488 107V108H218.488V107H217.488ZM194.763 107H193.763V108H194.763V107ZM194.763 52.5403H195.763V51.5403H194.763V52.5403ZM175.722 52.5403H174.722V53.5403H175.722V52.5403ZM175.722 34.5235V33.5235H174.722V34.5235H175.722ZM235.733 34.5235V52.5403H237.733V34.5235H235.733ZM236.733 51.5403H217.488V53.5403H236.733V51.5403ZM216.488 52.5403V107H218.488V52.5403H216.488ZM217.488 106H194.763V108H217.488V106ZM195.763 107V52.5403H193.763V107H195.763ZM194.763 51.5403H175.722V53.5403H194.763V51.5403ZM176.722 52.5403V34.5235H174.722V52.5403H176.722ZM175.722 35.5235H236.733V33.5235H175.722V35.5235ZM277.395 52.6426V51.6426H276.395V52.6426H277.395ZM277.395 61.5487H276.395V62.5487H277.395V61.5487ZM299.916 61.5487H300.916V60.5487H299.916V61.5487ZM299.916 78.6441V79.6441H300.916V78.6441H299.916ZM277.395 78.6441V77.6441H276.395V78.6441H277.395ZM277.395 88.8809H276.395V89.8809H277.395V88.8809ZM302.987 88.8809H303.987V87.8809H302.987V88.8809ZM302.987 107V108H303.987V107H302.987ZM254.669 107H253.669V108H254.669V107ZM254.669 34.5235V33.5235H253.669V34.5235H254.669ZM302.987 34.5235H303.987V33.5235H302.987V34.5235ZM302.987 52.6426V53.6426H303.987V52.6426H302.987ZM276.395 52.6426V61.5487H278.395V52.6426H276.395ZM277.395 62.5487H299.916V60.5487H277.395V62.5487ZM298.916 61.5487V78.6441H300.916V61.5487H298.916ZM299.916 77.6441H277.395V79.6441H299.916V77.6441ZM276.395 78.6441V88.8809H278.395V78.6441H276.395ZM277.395 89.8809H302.987V87.8809H277.395V89.8809ZM301.987 88.8809V107H303.987V88.8809H301.987ZM302.987 106H254.669V108H302.987V106ZM255.669 107V34.5235H253.669V107H255.669ZM254.669 35.5235H302.987V33.5235H254.669V35.5235ZM301.987 34.5235V52.6426H303.987V34.5235H301.987ZM302.987 51.6426H277.395V53.6426H302.987V51.6426ZM392.832 107V108H393.832V107H392.832ZM370.106 107L369.271 107.551L369.568 108H370.106V107ZM346.05 70.557L346.884 70.0061L345.05 67.2269V70.557H346.05ZM346.05 107V108H347.05V107H346.05ZM323.324 107H322.324V108H323.324V107ZM323.324 34.5235V33.5235H322.324V34.5235H323.324ZM346.05 34.5235L346.888 33.979L346.593 33.5235H346.05V34.5235ZM370.106 71.5807L369.267 72.1252L371.106 74.9577V71.5807H370.106ZM370.106 34.5235V33.5235H369.106V34.5235H370.106ZM392.832 34.5235H393.832V33.5235H392.832V34.5235ZM392.832 106H370.106V108H392.832V106ZM370.941 106.449L346.884 70.0061L345.215 71.1079L369.271 107.551L370.941 106.449ZM345.05 70.557V107H347.05V70.557H345.05ZM346.05 106H323.324V108H346.05V106ZM324.324 107V34.5235H322.324V107H324.324ZM323.324 35.5235H346.05V33.5235H323.324V35.5235ZM345.211 35.068L369.267 72.1252L370.945 71.0362L346.888 33.979L345.211 35.068ZM371.106 71.5807V34.5235H369.106V71.5807H371.106ZM370.106 35.5235H392.832V33.5235H370.106V35.5235ZM391.832 34.5235V107H393.832V34.5235H391.832ZM417.123 51.5166L416.238 51.0522L416.233 51.0607L417.123 51.5166ZM429.612 38.5159L430.107 39.3848L430.115 39.38L429.612 38.5159ZM465.441 37.3898L465.004 38.2892L465.011 38.2928L465.019 38.2963L465.441 37.3898ZM477.52 47.3195L476.707 47.9008L476.713 47.9092L477.52 47.3195ZM483.765 62.3676V63.3676H484.959L484.749 62.1918L483.765 62.3676ZM459.811 62.3676L458.901 62.7834L459.168 63.3676H459.811V62.3676ZM455.102 56.8397L454.534 57.6629L454.55 57.6741L454.567 57.6845L455.102 56.8397ZM439.132 59.0918L438.346 58.474L438.341 58.4799L438.337 58.4858L439.132 59.0918ZM439.132 82.227L438.337 82.833L438.341 82.8389L438.346 82.8448L439.132 82.227ZM455.102 84.5814L455.65 85.4179L455.656 85.4135L455.102 84.5814ZM459.811 78.9512V77.9512H459.168L458.901 78.5354L459.811 78.9512ZM483.765 78.9512L484.749 79.127L484.959 77.9512H483.765V78.9512ZM477.52 93.9993L476.713 93.4095L476.707 93.418L477.52 93.9993ZM465.441 104.031L465.868 104.936L465.873 104.933L465.441 104.031ZM429.612 102.905L429.109 103.769L429.117 103.774L429.612 102.905ZM417.123 89.8022L416.233 90.2581L416.238 90.2666L417.123 89.8022ZM413.824 70.6594C413.824 63.6299 415.229 57.4089 418.013 51.9725L416.233 51.0607C413.285 56.8165 411.824 63.3574 411.824 70.6594H413.824ZM418.009 51.981C420.856 46.551 424.885 42.3593 430.107 39.3848L429.117 37.647C423.556 40.8145 419.259 45.2899 416.238 51.0522L418.009 51.981ZM430.115 39.38C435.33 36.3439 441.497 34.807 448.653 34.807V32.807C441.204 32.807 434.677 34.4093 429.109 37.6517L430.115 39.38ZM448.653 34.807C454.802 34.807 460.245 35.9761 465.004 38.2892L465.878 36.4905C460.809 34.0264 455.06 32.807 448.653 32.807V34.807ZM465.019 38.2963C469.851 40.5469 473.74 43.7474 476.707 47.9008L478.334 46.7383C475.159 42.2927 470.995 38.8735 465.863 36.4833L465.019 38.2963ZM476.713 47.9092C479.754 52.0747 481.781 56.9461 482.78 62.5434L484.749 62.1918C483.701 56.3239 481.565 51.1632 478.328 46.7298L476.713 47.9092ZM483.765 61.3676H459.811V63.3676H483.765V61.3676ZM460.72 61.9518C459.555 59.4024 457.862 57.404 455.637 55.9949L454.567 57.6845C456.437 58.8688 457.883 60.5557 458.901 62.7834L460.72 61.9518ZM455.669 56.0165C453.51 54.5273 451.022 53.7924 448.243 53.7924V55.7924C450.65 55.7924 452.735 56.4223 454.534 57.6629L455.669 56.0165ZM448.243 53.7924C444.132 53.7924 440.798 55.3532 438.346 58.474L439.919 59.7096C441.971 57.0979 444.711 55.7924 448.243 55.7924V53.7924ZM438.337 58.4858C435.981 61.5776 434.857 65.6699 434.857 70.6594H436.857C436.857 65.9581 437.916 62.3386 439.928 59.6979L438.337 58.4858ZM434.857 70.6594C434.857 75.6489 435.981 79.7411 438.337 82.833L439.928 81.6209C437.916 78.9802 436.857 75.3607 436.857 70.6594H434.857ZM438.346 82.8448C440.798 85.9656 444.132 87.5264 448.243 87.5264V85.5264C444.711 85.5264 441.971 84.2209 439.919 81.6091L438.346 82.8448ZM448.243 87.5264C451.012 87.5264 453.492 86.8314 455.65 85.4179L454.554 83.745C452.753 84.9247 450.661 85.5264 448.243 85.5264V87.5264ZM455.656 85.4135C457.869 83.9385 459.556 81.9127 460.72 79.367L458.901 78.5354C457.881 80.7668 456.429 82.4946 454.547 83.7494L455.656 85.4135ZM459.811 79.9512H483.765V77.9512H459.811V79.9512ZM482.78 78.7754C481.781 84.3727 479.754 89.2441 476.713 93.4096L478.328 94.589C481.565 90.1556 483.701 84.9949 484.749 79.127L482.78 78.7754ZM476.707 93.418C473.738 97.5738 469.846 100.811 465.009 103.13L465.873 104.933C471 102.475 475.16 99.0236 478.334 94.5805L476.707 93.418ZM465.014 103.127C460.253 105.375 454.806 106.512 448.653 106.512V108.512C455.056 108.512 460.801 107.328 465.868 104.936L465.014 103.127ZM448.653 106.512C441.493 106.512 435.323 105.007 430.107 102.036L429.117 103.774C434.684 106.945 441.208 108.512 448.653 108.512V106.512ZM430.115 102.041C424.889 98.9977 420.857 94.7696 418.009 89.3378L416.238 90.2666C419.258 96.027 423.553 100.534 429.109 103.769L430.115 102.041ZM418.013 89.3463C415.229 83.9099 413.824 77.6889 413.824 70.6594H411.824C411.824 77.9614 413.285 84.5023 416.233 90.2581L418.013 89.3463ZM526.445 34.5235H527.445V33.5235H526.445V34.5235ZM526.445 107V108H527.445V107H526.445ZM503.719 107H502.719V108H503.719V107ZM503.719 34.5235V33.5235H502.719V34.5235H503.719ZM525.445 34.5235V107H527.445V34.5235H525.445ZM526.445 106H503.719V108H526.445V106ZM504.719 107V34.5235H502.719V107H504.719ZM503.719 35.5235H526.445V33.5235H503.719V35.5235ZM571.207 52.6426V51.6426H570.207V52.6426H571.207ZM571.207 61.5487H570.207V62.5487H571.207V61.5487ZM593.728 61.5487H594.728V60.5487H593.728V61.5487ZM593.728 78.6441V79.6441H594.728V78.6441H593.728ZM571.207 78.6441V77.6441H570.207V78.6441H571.207ZM571.207 88.8809H570.207V89.8809H571.207V88.8809ZM596.799 88.8809H597.799V87.8809H596.799V88.8809ZM596.799 107V108H597.799V107H596.799ZM548.481 107H547.481V108H548.481V107ZM548.481 34.5235V33.5235H547.481V34.5235H548.481ZM596.799 34.5235H597.799V33.5235H596.799V34.5235ZM596.799 52.6426V53.6426H597.799V52.6426H596.799ZM570.207 52.6426V61.5487H572.207V52.6426H570.207ZM571.207 62.5487H593.728V60.5487H571.207V62.5487ZM592.728 61.5487V78.6441H594.728V61.5487H592.728ZM593.728 77.6441H571.207V79.6441H593.728V77.6441ZM570.207 78.6441V88.8809H572.207V78.6441H570.207ZM571.207 89.8809H596.799V87.8809H571.207V89.8809ZM595.799 88.8809V107H597.799V88.8809H595.799ZM596.799 106H548.481V108H596.799V106ZM549.481 107V34.5235H547.481V107H549.481ZM548.481 35.5235H596.799V33.5235H548.481V35.5235ZM595.799 34.5235V52.6426H597.799V34.5235H595.799ZM596.799 51.6426H571.207V53.6426H596.799V51.6426ZM704.251 34.5235H705.251V33.5235H704.251V34.5235ZM704.251 107V108H705.251V107H704.251ZM681.628 107H680.628V108H681.628V107ZM681.628 70.8641H682.628L680.672 70.5691L681.628 70.8641ZM670.469 107V108H671.207L671.425 107.295L670.469 107ZM651.02 107L650.064 107.295L650.282 108H651.02V107ZM639.861 70.8641L640.817 70.5691L638.861 70.8641H639.861ZM639.861 107V108H640.861V107H639.861ZM617.136 107H616.136V108H617.136V107ZM617.136 34.5235V33.5235H616.136V34.5235H617.136ZM644.98 34.5235L645.919 34.1789L645.678 33.5235H644.98V34.5235ZM660.949 78.0299L660.01 78.3745L660.961 80.9652L661.891 78.3666L660.949 78.0299ZM676.509 34.5235V33.5235H675.805L675.568 34.1868L676.509 34.5235ZM703.251 34.5235V107H705.251V34.5235H703.251ZM704.251 106H681.628V108H704.251V106ZM682.628 107V70.8641H680.628V107H682.628ZM680.672 70.5691L669.514 106.705L671.425 107.295L682.583 71.1592L680.672 70.5691ZM670.469 106H651.02V108H670.469V106ZM651.975 106.705L640.817 70.5691L638.906 71.1592L650.064 107.295L651.975 106.705ZM638.861 70.8641V107H640.861V70.8641H638.861ZM639.861 106H617.136V108H639.861V106ZM618.136 107V34.5235H616.136V107H618.136ZM617.136 35.5235H644.98V33.5235H617.136V35.5235ZM644.041 34.8681L660.01 78.3745L661.888 77.6853L645.919 34.1789L644.041 34.8681ZM661.891 78.3666L677.451 34.8603L675.568 34.1868L660.008 77.6931L661.891 78.3666ZM676.509 35.5235H704.251V33.5235H676.509V35.5235ZM742.759 102.905L742.266 103.775L742.27 103.778L742.759 102.905ZM729.246 89.5975L728.385 90.1058L728.385 90.1058L729.246 89.5975ZM742.759 38.1064L743.243 38.9811L743.247 38.9791L742.759 38.1064ZM780.328 38.1064L779.835 38.9766L779.843 38.9811L780.328 38.1064ZM793.738 51.3119L792.872 51.8125L792.877 51.8202L793.738 51.3119ZM793.738 89.5975L792.877 89.0891L792.872 89.0968L793.738 89.5975ZM780.225 102.905L779.737 102.033L779.733 102.035L780.225 102.905ZM772.036 82.227L772.795 82.8778L772.803 82.8689L772.036 82.227ZM772.036 58.6823L771.269 59.3243L771.277 59.3331L772.036 58.6823ZM751.05 58.6823L751.81 59.3332L751.817 59.3243L751.05 58.6823ZM751.05 82.227L750.284 82.8689L750.291 82.8778L751.05 82.227ZM761.594 106.717C754.934 106.717 748.824 105.153 743.247 102.033L742.27 103.778C748.158 107.072 754.606 108.717 761.594 108.717V106.717ZM743.251 102.035C737.741 98.9148 733.363 94.6043 730.107 89.0891L728.385 90.1058C731.817 95.9193 736.448 100.481 742.266 103.775L743.251 102.035ZM730.107 89.0891C726.861 83.5908 725.23 77.388 725.23 70.4547H723.23C723.23 77.7164 724.943 84.2754 728.385 90.1058L730.107 89.0891ZM725.23 70.4547C725.23 63.5214 726.861 57.3185 730.107 51.8202L728.385 50.8035C724.943 56.634 723.23 63.1929 723.23 70.4547H725.23ZM730.107 51.8202C733.362 46.3068 737.737 42.0325 743.243 38.9811L742.274 37.2317C736.451 40.4588 731.818 44.9882 728.385 50.8035L730.107 51.8202ZM743.247 38.9791C748.824 35.8584 754.934 34.2951 761.594 34.2951V32.2951C754.606 32.2951 748.158 33.9394 742.27 37.2337L743.247 38.9791ZM761.594 34.2951C768.255 34.2951 774.328 35.8583 779.835 38.9766L780.82 37.2362C774.998 33.9394 768.583 32.2951 761.594 32.2951V34.2951ZM779.843 38.9811C785.347 42.0315 789.686 46.3033 792.872 51.8125L794.604 50.8112C791.238 44.9917 786.637 40.4598 780.812 37.2317L779.843 38.9811ZM792.877 51.8202C796.123 57.3185 797.754 63.5214 797.754 70.4547H799.754C799.754 63.1929 798.041 56.634 794.599 50.8035L792.877 51.8202ZM797.754 70.4547C797.754 77.388 796.123 83.5908 792.877 89.0891L794.599 90.1058C798.041 84.2754 799.754 77.7164 799.754 70.4547H797.754ZM792.872 89.0968C789.687 94.6048 785.313 98.9125 779.737 102.033L780.714 103.778C786.603 100.483 791.237 95.9188 794.604 90.0981L792.872 89.0968ZM779.733 102.035C774.224 105.154 768.185 106.717 761.594 106.717V108.717C768.517 108.717 774.898 107.071 780.718 103.775L779.733 102.035ZM761.594 87.5264C766.328 87.5264 770.111 86.0088 772.795 82.8778L771.277 81.5762C769.047 84.1777 765.869 85.5264 761.594 85.5264V87.5264ZM772.803 82.8689C775.449 79.7084 776.721 75.5351 776.721 70.4547H774.721C774.721 75.2016 773.537 78.8765 771.269 81.585L772.803 82.8689ZM776.721 70.4547C776.721 65.3114 775.451 61.1303 772.795 58.0316L771.277 59.3331C773.534 61.967 774.721 65.6341 774.721 70.4547H776.721ZM772.803 58.0404C770.121 54.8379 766.336 53.2805 761.594 53.2805V55.2805C765.861 55.2805 769.037 56.6577 771.269 59.3243L772.803 58.0404ZM761.594 53.2805C756.79 53.2805 752.968 54.8343 750.284 58.0404L751.817 59.3243C754.047 56.6613 757.254 55.2805 761.594 55.2805V53.2805ZM750.291 58.0316C747.635 61.1303 746.365 65.3114 746.365 70.4547H748.365C748.365 65.6341 749.552 61.967 751.81 59.3331L750.291 58.0316ZM746.365 70.4547C746.365 75.5351 747.638 79.7084 750.284 82.8689L751.817 81.585C749.55 78.8765 748.365 75.2016 748.365 70.4547H746.365ZM750.291 82.8778C752.978 86.0123 756.798 87.5264 761.594 87.5264V85.5264C757.246 85.5264 754.037 84.1743 751.81 81.5762L750.291 82.8778ZM888.232 107V108H889.232V107H888.232ZM865.507 107L864.672 107.551L864.968 108H865.507V107ZM841.45 70.557L842.285 70.0061L840.45 67.2269V70.557H841.45ZM841.45 107V108H842.45V107H841.45ZM818.724 107H817.724V108H818.724V107ZM818.724 34.5235V33.5235H817.724V34.5235H818.724ZM841.45 34.5235L842.289 33.979L841.993 33.5235H841.45V34.5235ZM865.507 71.5807L864.668 72.1252L866.507 74.9577V71.5807H865.507ZM865.507 34.5235V33.5235H864.507V34.5235H865.507ZM888.232 34.5235H889.232V33.5235H888.232V34.5235ZM888.232 106H865.507V108H888.232V106ZM866.341 106.449L842.285 70.0061L840.616 71.1079L864.672 107.551L866.341 106.449ZM840.45 70.557V107H842.45V70.557H840.45ZM841.45 106H818.724V108H841.45V106ZM819.724 107V34.5235H817.724V107H819.724ZM818.724 35.5235H841.45V33.5235H818.724V35.5235ZM840.611 35.068L864.668 72.1252L866.345 71.0362L842.289 33.979L840.611 35.068ZM866.507 71.5807V34.5235H864.507V71.5807H866.507ZM865.507 35.5235H888.232V33.5235H865.507V35.5235ZM887.232 34.5235V107H889.232V34.5235H887.232ZM926.753 102.905L926.26 103.775L926.265 103.778L926.753 102.905ZM913.24 89.5975L912.379 90.1058L912.379 90.1058L913.24 89.5975ZM926.753 38.1064L927.238 38.9811L927.241 38.9791L926.753 38.1064ZM964.322 38.1064L963.829 38.9766L963.837 38.9811L964.322 38.1064ZM977.732 51.3119L976.867 51.8125L976.871 51.8202L977.732 51.3119ZM977.732 89.5975L976.871 89.0891L976.867 89.0968L977.732 89.5975ZM964.22 102.905L963.731 102.033L963.727 102.035L964.22 102.905ZM956.03 82.227L956.79 82.8778L956.797 82.8689L956.03 82.227ZM956.03 58.6823L955.263 59.3243L955.271 59.3331L956.03 58.6823ZM935.045 58.6823L935.804 59.3332L935.812 59.3243L935.045 58.6823ZM935.045 82.227L934.278 82.8689L934.286 82.8778L935.045 82.227ZM945.589 106.717C938.928 106.717 932.819 105.153 927.241 102.033L926.265 103.778C932.152 107.072 938.6 108.717 945.589 108.717V106.717ZM927.246 102.035C921.735 98.9148 917.358 94.6043 914.102 89.0891L912.379 90.1058C915.811 95.9193 920.442 100.481 926.26 103.775L927.246 102.035ZM914.102 89.0891C910.856 83.5908 909.224 77.388 909.224 70.4547H907.224C907.224 77.7164 908.937 84.2754 912.379 90.1058L914.102 89.0891ZM909.224 70.4547C909.224 63.5214 910.856 57.3185 914.102 51.8202L912.379 50.8035C908.937 56.634 907.224 63.1929 907.224 70.4547H909.224ZM914.102 51.8202C917.357 46.3068 921.732 42.0325 927.238 38.9811L926.268 37.2317C920.445 40.4588 915.812 44.9882 912.379 50.8035L914.102 51.8202ZM927.241 38.9791C932.819 35.8584 938.928 34.2951 945.589 34.2951V32.2951C938.6 32.2951 932.152 33.9394 926.265 37.2337L927.241 38.9791ZM945.589 34.2951C952.249 34.2951 958.323 35.8583 963.829 38.9766L964.815 37.2362C958.993 33.9394 952.577 32.2951 945.589 32.2951V34.2951ZM963.837 38.9811C969.341 42.0315 973.681 46.3033 976.867 51.8125L978.598 50.8112C975.232 44.9917 970.631 40.4598 964.807 37.2317L963.837 38.9811ZM976.871 51.8202C980.117 57.3185 981.748 63.5214 981.748 70.4547H983.748C983.748 63.1929 982.035 56.634 978.593 50.8035L976.871 51.8202ZM981.748 70.4547C981.748 77.388 980.117 83.5908 976.871 89.0891L978.593 90.1058C982.035 84.2754 983.748 77.7164 983.748 70.4547H981.748ZM976.867 89.0968C973.681 94.6048 969.308 98.9125 963.731 102.033L964.708 103.778C970.597 100.483 975.232 95.9188 978.598 90.0981L976.867 89.0968ZM963.727 102.035C958.219 105.154 952.179 106.717 945.589 106.717V108.717C952.511 108.717 958.892 107.071 964.712 103.775L963.727 102.035ZM945.589 87.5264C950.323 87.5264 954.106 86.0088 956.789 82.8778L955.271 81.5762C953.041 84.1777 949.863 85.5264 945.589 85.5264V87.5264ZM956.797 82.8689C959.443 79.7084 960.715 75.5351 960.715 70.4547H958.715C958.715 75.2016 957.531 78.8765 955.263 81.585L956.797 82.8689ZM960.715 70.4547C960.715 65.3114 959.446 61.1303 956.789 58.0316L955.271 59.3331C957.529 61.967 958.715 65.6341 958.715 70.4547H960.715ZM956.797 58.0404C954.116 54.8379 950.331 53.2805 945.589 53.2805V55.2805C949.855 55.2805 953.031 56.6577 955.263 59.3243L956.797 58.0404ZM945.589 53.2805C940.784 53.2805 936.962 54.8343 934.278 58.0404L935.812 59.3243C938.041 56.6613 941.249 55.2805 945.589 55.2805V53.2805ZM934.286 58.0316C931.63 61.1303 930.36 65.3114 930.36 70.4547H932.36C932.36 65.6341 933.546 61.967 935.804 59.3331L934.286 58.0316ZM930.36 70.4547C930.36 75.5351 931.632 79.7084 934.278 82.8689L935.812 81.585C933.544 78.8765 932.36 75.2016 932.36 70.4547H930.36ZM934.286 82.8778C936.972 86.0123 940.792 87.5264 945.589 87.5264V85.5264C941.241 85.5264 938.031 84.1743 935.804 81.5762L934.286 82.8778ZM1009.58 101.677L1008.99 102.484L1009 102.492L1009.58 101.677ZM1000.47 83.7625V82.7625H999.404L999.469 83.8232L1000.47 83.7625ZM1024.63 83.7625L1025.62 83.6808L1025.55 82.7625H1024.63V83.7625ZM1033.22 89.188L1033.78 90.02L1033.79 90.0152L1033.79 90.0102L1033.22 89.188ZM1031.79 82.3293L1031.28 83.1896L1031.29 83.1967L1031.31 83.2035L1031.79 82.3293ZM1023.19 78.6441L1022.86 79.5871L1022.86 79.5877L1023.19 78.6441ZM1011.62 73.8328L1011.16 74.7191L1011.17 74.7232L1011.62 73.8328ZM1003.84 66.9741L1004.65 66.386L1004.65 66.386L1003.84 66.9741ZM1000.67 55.4066L1001.67 55.4211L1001.67 55.4138V55.4066H1000.67ZM1004.25 43.4295L1003.45 42.8375L1003.45 42.8404L1004.25 43.4295ZM1014.18 35.8543L1013.81 34.9268L1013.8 34.929L1014.18 35.8543ZM1049.5 39.4372L1048.88 40.2221L1048.89 40.226L1049.5 39.4372ZM1057.79 56.7374V57.7374H1058.83L1058.79 56.7007L1057.79 56.7374ZM1033.33 56.7374L1032.33 56.7707L1032.36 57.7374H1033.33V56.7374ZM1025.96 52.0284L1026.66 52.7355L1026.68 52.717L1026.7 52.6974L1025.96 52.0284ZM1027.7 58.7847L1027.17 59.6364L1027.19 59.6481L1027.21 59.6589L1027.7 58.7847ZM1036.4 62.5723L1036.04 63.5073L1036.05 63.5092L1036.4 62.5723ZM1047.66 67.486L1047.19 68.3678L1047.2 68.3722L1047.66 67.486ZM1055.44 74.0375L1054.65 74.6528L1054.65 74.6528L1055.44 74.0375ZM1055.44 96.5585L1056.29 97.09L1056.29 97.0826L1055.44 96.5585ZM1045.92 104.748L1045.49 103.845L1045.49 103.845L1045.92 104.748ZM1031.07 106.717C1022.56 106.717 1015.61 104.741 1010.16 100.862L1009 102.492C1014.87 106.666 1022.25 108.717 1031.07 108.717V106.717ZM1010.17 100.87C1004.85 96.9757 1001.93 91.2976 1001.46 83.7017L999.469 83.8232C999.962 91.9238 1003.12 98.1886 1008.99 102.484L1010.17 100.87ZM1000.47 84.7625H1024.63V82.7625H1000.47V84.7625ZM1023.63 83.8442C1023.81 86.0383 1024.39 87.8429 1025.51 89.1087C1026.66 90.4071 1028.26 91.0069 1030.15 91.0069V89.0069C1028.7 89.0069 1027.71 88.566 1027.01 87.783C1026.29 86.9672 1025.78 85.6497 1025.62 83.6808L1023.63 83.8442ZM1030.15 91.0069C1031.53 91.0069 1032.76 90.6999 1033.78 90.02L1032.67 88.3559C1032.05 88.768 1031.23 89.0069 1030.15 89.0069V91.0069ZM1033.79 90.0102C1034.99 89.1811 1035.56 87.9279 1035.56 86.4241H1033.56C1033.56 87.377 1033.23 87.9665 1032.66 88.3658L1033.79 90.0102ZM1035.56 86.4241C1035.56 84.2641 1034.35 82.6063 1032.28 81.4552L1031.31 83.2035C1032.92 84.0997 1033.56 85.1718 1033.56 86.4241H1035.56ZM1032.3 81.469C1030.37 80.3255 1027.43 79.0711 1023.52 77.7005L1022.86 79.5877C1026.73 80.9469 1029.53 82.1493 1031.28 83.1896L1032.3 81.469ZM1023.53 77.7011C1018.91 76.0723 1015.1 74.4853 1012.08 72.9424L1011.17 74.7232C1014.29 76.3196 1018.19 77.9401 1022.86 79.5871L1023.53 77.7011ZM1012.09 72.9466C1009.23 71.455 1006.76 69.2763 1004.65 66.386L1003.04 67.5623C1005.3 70.6776 1008.01 73.0713 1011.16 74.719L1012.09 72.9466ZM1004.65 66.386C1002.63 63.6002 1001.61 59.9723 1001.67 55.4211L999.672 55.3921C999.601 60.2587 1000.69 64.3425 1003.04 67.5623L1004.65 66.386ZM1001.67 55.4066C1001.67 50.874 1002.82 47.0968 1005.06 44.0187L1003.45 42.8404C1000.91 46.3138 999.671 50.5213 999.671 55.4066H1001.67ZM1005.06 44.0216C1007.4 40.8382 1010.56 38.4221 1014.56 36.7796L1013.8 34.929C1009.49 36.6988 1006.02 39.3328 1003.45 42.8375L1005.06 44.0216ZM1014.56 36.7817C1018.65 35.1303 1023.27 34.2951 1028.41 34.2951V32.2951C1023.05 32.2951 1018.18 33.1661 1013.81 34.9269L1014.56 36.7817ZM1028.41 34.2951C1037.14 34.2951 1043.92 36.3078 1048.88 40.2221L1050.12 38.6523C1044.71 34.3772 1037.43 32.2951 1028.41 32.2951V34.2951ZM1048.89 40.226C1053.88 44.1164 1056.53 49.5915 1056.79 56.774L1058.79 56.7007C1058.51 49.0057 1055.63 42.9474 1050.12 38.6484L1048.89 40.226ZM1057.79 55.7374H1033.33V57.7374H1057.79V55.7374ZM1034.33 56.704C1034.25 54.538 1033.71 52.7518 1032.47 51.6027L1031.11 53.0683C1031.78 53.6937 1032.26 54.842 1032.33 56.7707L1034.33 56.704ZM1032.47 51.6027C1031.32 50.5351 1029.92 50.0048 1028.31 50.0048V52.0048C1029.44 52.0048 1030.35 52.3616 1031.11 53.0683L1032.47 51.6027ZM1028.31 50.0048C1027.08 50.0048 1026.03 50.4568 1025.21 51.3595L1026.7 52.6974C1027.12 52.2352 1027.63 52.0048 1028.31 52.0048V50.0048ZM1025.25 51.3213C1024.39 52.1794 1024.03 53.3565 1024.03 54.69H1026.03C1026.03 53.7031 1026.29 53.1059 1026.66 52.7355L1025.25 51.3213ZM1024.03 54.69C1024.03 56.771 1025.19 58.4191 1027.17 59.6364L1028.22 57.9331C1026.65 56.9665 1026.03 55.8848 1026.03 54.69H1024.03ZM1027.21 59.6589C1029.12 60.7191 1032.08 62.0023 1036.04 63.5073L1036.75 61.6373C1032.8 60.1396 1029.96 58.8977 1028.18 57.9106L1027.21 59.6589ZM1036.05 63.5092C1040.6 65.2062 1044.31 66.8265 1047.19 68.3678L1048.13 66.6042C1045.14 65.0062 1041.34 63.3507 1036.75 61.6354L1036.05 63.5092ZM1047.2 68.3722C1050.07 69.8726 1052.55 71.9618 1054.65 74.6528L1056.23 73.4223C1053.96 70.5172 1051.26 68.2386 1048.12 66.5998L1047.2 68.3722ZM1054.65 74.6528C1056.67 77.2431 1057.71 80.5288 1057.71 84.5814H1059.71C1059.71 80.1716 1058.57 76.4281 1056.23 73.4223L1054.65 74.6528ZM1057.71 84.5814C1057.71 88.8448 1056.67 92.6535 1054.59 96.0344L1056.29 97.0826C1058.58 93.3659 1059.71 89.19 1059.71 84.5814H1057.71ZM1054.59 96.027C1052.52 99.3273 1049.5 101.937 1045.49 103.845L1046.35 105.651C1050.66 103.601 1053.99 100.751 1056.29 97.09L1054.59 96.027ZM1045.49 103.845C1041.49 105.747 1036.69 106.717 1031.07 106.717V108.717C1036.92 108.717 1042.02 107.708 1046.35 105.651L1045.49 103.845Z" fill="white" fill-opacity="0.5"/>
<path d="M65.216 92.8878L66.0833 93.3857L66.0872 93.3788L65.216 92.8878ZM55.7982 101.691L55.3336 100.806L55.3276 100.809L55.7982 101.691ZM31.8441 104.967V103.967H30.8441V104.967H31.8441ZM31.8441 128V129H32.8441V128H31.8441ZM9.11839 128H8.11839V129H9.11839V128ZM9.11839 55.5235V54.5235H8.11839V55.5235H9.11839ZM61.2237 62.2798L60.5324 63.0025L60.5376 63.0074L61.2237 62.2798ZM31.8441 73.745V72.745H30.8441V73.745H31.8441ZM31.8441 87.0528H30.8441V88.0528H31.8441V87.0528ZM67.3894 80.3989C67.3894 84.8102 66.3708 88.8024 64.3449 92.3968L66.0872 93.3788C68.2924 89.4662 69.3894 85.1325 69.3894 80.3989H67.3894ZM64.3488 92.3899C62.3377 95.8931 59.3467 98.7007 55.3336 100.806L56.2627 102.577C60.5755 100.315 63.8631 97.253 66.0833 93.3857L64.3488 92.3899ZM55.3276 100.809C51.411 102.898 46.5999 103.967 40.8524 103.967V105.967C46.8432 105.967 51.9958 104.853 56.2687 102.574L55.3276 100.809ZM40.8524 103.967H31.8441V105.967H40.8524V103.967ZM30.8441 104.967V128H32.8441V104.967H30.8441ZM31.8441 127H9.11839V129H31.8441V127ZM10.1184 128V55.5235H8.11839V128H10.1184ZM9.11839 56.5235H40.8524V54.5235H9.11839V56.5235ZM40.8524 56.5235C49.5616 56.5235 56.0684 58.7325 60.5324 63.0025L61.9149 61.5572C56.9611 56.8187 49.887 54.5235 40.8524 54.5235V56.5235ZM60.5376 63.0074C65.083 67.2931 67.3894 73.0528 67.3894 80.3989H69.3894C69.3894 72.5946 66.9186 66.2749 61.9097 61.5522L60.5376 63.0074ZM38.2932 88.0528C40.7875 88.0528 42.8441 87.4666 44.2765 86.1173C45.72 84.7574 46.3566 82.7868 46.3566 80.3989H44.3566C44.3566 82.447 43.816 83.8034 42.9051 84.6615C41.983 85.5301 40.5079 86.0528 38.2932 86.0528V88.0528ZM46.3566 80.3989C46.3566 78.011 45.72 76.0405 44.2765 74.6806C42.8441 73.3313 40.7875 72.745 38.2932 72.745V74.745C40.5079 74.745 41.983 75.2677 42.9051 76.1364C43.816 76.9945 44.3566 78.3509 44.3566 80.3989H46.3566ZM38.2932 72.745H31.8441V74.745H38.2932V72.745ZM30.8441 73.745V87.0528H32.8441V73.745H30.8441ZM31.8441 88.0528H38.2932V86.0528H31.8441V88.0528ZM103.851 123.905L103.358 124.775L103.363 124.778L103.851 123.905ZM90.3385 110.597L89.4774 111.106L89.4774 111.106L90.3385 110.597ZM103.851 59.1064L104.336 59.9811L104.339 59.9791L103.851 59.1064ZM141.42 59.1064L140.927 59.9766L140.935 59.9811L141.42 59.1064ZM154.83 72.3119L153.965 72.8125L153.969 72.8202L154.83 72.3119ZM154.83 110.597L153.969 110.089L153.965 110.097L154.83 110.597ZM141.318 123.905L140.829 123.033L140.825 123.035L141.318 123.905ZM133.128 103.227L133.888 103.878L133.895 103.869L133.128 103.227ZM133.128 79.6823L132.361 80.3243L132.369 80.3331L133.128 79.6823ZM112.143 79.6823L112.902 80.3332L112.91 80.3243L112.143 79.6823ZM112.143 103.227L111.376 103.869L111.384 103.878L112.143 103.227ZM122.687 127.717C116.026 127.717 109.917 126.153 104.339 123.033L103.363 124.778C109.251 128.072 115.698 129.717 122.687 129.717V127.717ZM104.344 123.035C98.8335 119.915 94.4556 115.604 91.1997 110.089L89.4774 111.106C92.9094 116.919 97.54 121.481 103.358 124.775L104.344 123.035ZM91.1997 110.089C87.9537 104.591 86.3225 98.388 86.3225 91.4547H84.3225C84.3225 98.7164 86.0353 105.275 89.4774 111.106L91.1997 110.089ZM86.3225 91.4547C86.3225 84.5214 87.9537 78.3185 91.1997 72.8202L89.4774 71.8035C86.0353 77.634 84.3225 84.1929 84.3225 91.4547H86.3225ZM91.1997 72.8202C94.4546 67.3068 98.8299 63.0325 104.336 59.9811L103.366 58.2317C97.5436 61.4588 92.9105 65.9882 89.4774 71.8035L91.1997 72.8202ZM104.339 59.9791C109.917 56.8584 116.026 55.2951 122.687 55.2951V53.2951C115.698 53.2951 109.251 54.9394 103.363 58.2337L104.339 59.9791ZM122.687 55.2951C129.347 55.2951 135.421 56.8583 140.927 59.9766L141.913 58.2362C136.091 54.9394 129.675 53.2951 122.687 53.2951V55.2951ZM140.935 59.9811C146.439 63.0315 150.779 67.3033 153.965 72.8125L155.696 71.8112C152.33 65.9917 147.729 61.4598 141.905 58.2317L140.935 59.9811ZM153.969 72.8202C157.215 78.3185 158.846 84.5214 158.846 91.4547H160.846C160.846 84.1929 159.134 77.634 155.691 71.8035L153.969 72.8202ZM158.846 91.4547C158.846 98.388 157.215 104.591 153.969 110.089L155.691 111.106C159.134 105.275 160.846 98.7164 160.846 91.4547H158.846ZM153.965 110.097C150.779 115.605 146.406 119.913 140.829 123.033L141.806 124.778C147.695 121.483 152.33 116.919 155.696 111.098L153.965 110.097ZM140.825 123.035C135.317 126.154 129.277 127.717 122.687 127.717V129.717C129.609 129.717 135.99 128.071 141.81 124.775L140.825 123.035ZM122.687 108.526C127.421 108.526 131.204 107.009 133.888 103.878L132.369 102.576C130.139 105.178 126.961 106.526 122.687 106.526V108.526ZM133.895 103.869C136.541 100.708 137.814 96.5351 137.814 91.4547H135.814C135.814 96.2016 134.629 99.8765 132.362 102.585L133.895 103.869ZM137.814 91.4547C137.814 86.3114 136.544 82.1303 133.888 79.0316L132.369 80.3331C134.627 82.967 135.814 86.6341 135.814 91.4547H137.814ZM133.895 79.0404C131.214 75.8379 127.429 74.2805 122.687 74.2805V76.2805C126.953 76.2805 130.129 77.6577 132.362 80.3243L133.895 79.0404ZM122.687 74.2805C117.882 74.2805 114.06 75.8343 111.376 79.0404L112.91 80.3243C115.139 77.6613 118.347 76.2805 122.687 76.2805V74.2805ZM111.384 79.0316C108.728 82.1303 107.458 86.3114 107.458 91.4547H109.458C109.458 86.6341 110.645 82.967 112.902 80.3331L111.384 79.0316ZM107.458 91.4547C107.458 96.5351 108.73 100.708 111.376 103.869L112.91 102.585C110.642 99.8765 109.458 96.2016 109.458 91.4547H107.458ZM111.384 103.878C114.07 107.012 117.89 108.526 122.687 108.526V106.526C118.339 106.526 115.129 105.174 112.902 102.576L111.384 103.878ZM236.733 55.5235H237.733V54.5235H236.733V55.5235ZM236.733 73.5403V74.5403H237.733V73.5403H236.733ZM217.488 73.5403V72.5403H216.488V73.5403H217.488ZM217.488 128V129H218.488V128H217.488ZM194.763 128H193.763V129H194.763V128ZM194.763 73.5403H195.763V72.5403H194.763V73.5403ZM175.722 73.5403H174.722V74.5403H175.722V73.5403ZM175.722 55.5235V54.5235H174.722V55.5235H175.722ZM235.733 55.5235V73.5403H237.733V55.5235H235.733ZM236.733 72.5403H217.488V74.5403H236.733V72.5403ZM216.488 73.5403V128H218.488V73.5403H216.488ZM217.488 127H194.763V129H217.488V127ZM195.763 128V73.5403H193.763V128H195.763ZM194.763 72.5403H175.722V74.5403H194.763V72.5403ZM176.722 73.5403V55.5235H174.722V73.5403H176.722ZM175.722 56.5235H236.733V54.5235H175.722V56.5235ZM277.395 73.6426V72.6426H276.395V73.6426H277.395ZM277.395 82.5487H276.395V83.5487H277.395V82.5487ZM299.916 82.5487H300.916V81.5487H299.916V82.5487ZM299.916 99.6441V100.644H300.916V99.6441H299.916ZM277.395 99.6441V98.6441H276.395V99.6441H277.395ZM277.395 109.881H276.395V110.881H277.395V109.881ZM302.987 109.881H303.987V108.881H302.987V109.881ZM302.987 128V129H303.987V128H302.987ZM254.669 128H253.669V129H254.669V128ZM254.669 55.5235V54.5235H253.669V55.5235H254.669ZM302.987 55.5235H303.987V54.5235H302.987V55.5235ZM302.987 73.6426V74.6426H303.987V73.6426H302.987ZM276.395 73.6426V82.5487H278.395V73.6426H276.395ZM277.395 83.5487H299.916V81.5487H277.395V83.5487ZM298.916 82.5487V99.6441H300.916V82.5487H298.916ZM299.916 98.6441H277.395V100.644H299.916V98.6441ZM276.395 99.6441V109.881H278.395V99.6441H276.395ZM277.395 110.881H302.987V108.881H277.395V110.881ZM301.987 109.881V128H303.987V109.881H301.987ZM302.987 127H254.669V129H302.987V127ZM255.669 128V55.5235H253.669V128H255.669ZM254.669 56.5235H302.987V54.5235H254.669V56.5235ZM301.987 55.5235V73.6426H303.987V55.5235H301.987ZM302.987 72.6426H277.395V74.6426H302.987V72.6426ZM392.832 128V129H393.832V128H392.832ZM370.106 128L369.271 128.551L369.568 129H370.106V128ZM346.05 91.557L346.884 91.0061L345.05 88.2269V91.557H346.05ZM346.05 128V129H347.05V128H346.05ZM323.324 128H322.324V129H323.324V128ZM323.324 55.5235V54.5235H322.324V55.5235H323.324ZM346.05 55.5235L346.888 54.979L346.593 54.5235H346.05V55.5235ZM370.106 92.5807L369.267 93.1252L371.106 95.9577V92.5807H370.106ZM370.106 55.5235V54.5235H369.106V55.5235H370.106ZM392.832 55.5235H393.832V54.5235H392.832V55.5235ZM392.832 127H370.106V129H392.832V127ZM370.941 127.449L346.884 91.0061L345.215 92.1079L369.271 128.551L370.941 127.449ZM345.05 91.557V128H347.05V91.557H345.05ZM346.05 127H323.324V129H346.05V127ZM324.324 128V55.5235H322.324V128H324.324ZM323.324 56.5235H346.05V54.5235H323.324V56.5235ZM345.211 56.068L369.267 93.1252L370.945 92.0362L346.888 54.979L345.211 56.068ZM371.106 92.5807V55.5235H369.106V92.5807H371.106ZM370.106 56.5235H392.832V54.5235H370.106V56.5235ZM391.832 55.5235V128H393.832V55.5235H391.832ZM417.123 72.5166L416.238 72.0522L416.233 72.0607L417.123 72.5166ZM429.612 59.5159L430.107 60.3848L430.115 60.38L429.612 59.5159ZM465.441 58.3898L465.004 59.2892L465.011 59.2928L465.019 59.2963L465.441 58.3898ZM477.52 68.3195L476.707 68.9008L476.713 68.9092L477.52 68.3195ZM483.765 83.3676V84.3676H484.959L484.749 83.1918L483.765 83.3676ZM459.811 83.3676L458.901 83.7834L459.168 84.3676H459.811V83.3676ZM455.102 77.8397L454.534 78.6629L454.55 78.6741L454.567 78.6845L455.102 77.8397ZM439.132 80.0918L438.346 79.474L438.341 79.4799L438.337 79.4858L439.132 80.0918ZM439.132 103.227L438.337 103.833L438.341 103.839L438.346 103.845L439.132 103.227ZM455.102 105.581L455.65 106.418L455.656 106.413L455.102 105.581ZM459.811 99.9512V98.9512H459.168L458.901 99.5354L459.811 99.9512ZM483.765 99.9512L484.749 100.127L484.959 98.9512H483.765V99.9512ZM477.52 114.999L476.713 114.41L476.707 114.418L477.52 114.999ZM465.441 125.031L465.868 125.936L465.873 125.933L465.441 125.031ZM429.612 123.905L429.109 124.769L429.117 124.774L429.612 123.905ZM417.123 110.802L416.233 111.258L416.238 111.267L417.123 110.802ZM413.824 91.6594C413.824 84.6299 415.229 78.4089 418.013 72.9725L416.233 72.0607C413.285 77.8165 411.824 84.3574 411.824 91.6594H413.824ZM418.009 72.981C420.856 67.551 424.885 63.3593 430.107 60.3848L429.117 58.647C423.556 61.8145 419.259 66.2899 416.238 72.0522L418.009 72.981ZM430.115 60.38C435.33 57.3439 441.497 55.807 448.653 55.807V53.807C441.204 53.807 434.677 55.4093 429.109 58.6517L430.115 60.38ZM448.653 55.807C454.802 55.807 460.245 56.9761 465.004 59.2892L465.878 57.4905C460.809 55.0264 455.06 53.807 448.653 53.807V55.807ZM465.019 59.2963C469.851 61.5469 473.74 64.7474 476.707 68.9008L478.334 67.7383C475.159 63.2927 470.995 59.8735 465.863 57.4833L465.019 59.2963ZM476.713 68.9092C479.754 73.0747 481.781 77.9461 482.78 83.5434L484.749 83.1918C483.701 77.3239 481.565 72.1632 478.328 67.7298L476.713 68.9092ZM483.765 82.3676H459.811V84.3676H483.765V82.3676ZM460.72 82.9518C459.555 80.4024 457.862 78.404 455.637 76.9949L454.567 78.6845C456.437 79.8688 457.883 81.5557 458.901 83.7834L460.72 82.9518ZM455.669 77.0165C453.51 75.5273 451.022 74.7924 448.243 74.7924V76.7924C450.65 76.7924 452.735 77.4223 454.534 78.6629L455.669 77.0165ZM448.243 74.7924C444.132 74.7924 440.798 76.3532 438.346 79.474L439.919 80.7096C441.971 78.0979 444.711 76.7924 448.243 76.7924V74.7924ZM438.337 79.4858C435.981 82.5776 434.857 86.6699 434.857 91.6594H436.857C436.857 86.9581 437.916 83.3386 439.928 80.6979L438.337 79.4858ZM434.857 91.6594C434.857 96.6489 435.981 100.741 438.337 103.833L439.928 102.621C437.916 99.9802 436.857 96.3607 436.857 91.6594H434.857ZM438.346 103.845C440.798 106.966 444.132 108.526 448.243 108.526V106.526C444.711 106.526 441.971 105.221 439.919 102.609L438.346 103.845ZM448.243 108.526C451.012 108.526 453.492 107.831 455.65 106.418L454.554 104.745C452.753 105.925 450.661 106.526 448.243 106.526V108.526ZM455.656 106.413C457.869 104.938 459.556 102.913 460.72 100.367L458.901 99.5354C457.881 101.767 456.429 103.495 454.547 104.749L455.656 106.413ZM459.811 100.951H483.765V98.9512H459.811V100.951ZM482.78 99.7754C481.781 105.373 479.754 110.244 476.713 114.41L478.328 115.589C481.565 111.156 483.701 105.995 484.749 100.127L482.78 99.7754ZM476.707 114.418C473.738 118.574 469.846 121.811 465.009 124.13L465.873 125.933C471 123.475 475.16 120.024 478.334 115.581L476.707 114.418ZM465.014 124.127C460.253 126.375 454.806 127.512 448.653 127.512V129.512C455.056 129.512 460.801 128.328 465.868 125.936L465.014 124.127ZM448.653 127.512C441.493 127.512 435.323 126.007 430.107 123.036L429.117 124.774C434.684 127.945 441.208 129.512 448.653 129.512V127.512ZM430.115 123.041C424.889 119.998 420.857 115.77 418.009 110.338L416.238 111.267C419.258 117.027 423.553 121.534 429.109 124.769L430.115 123.041ZM418.013 110.346C415.229 104.91 413.824 98.6889 413.824 91.6594H411.824C411.824 98.9614 413.285 105.502 416.233 111.258L418.013 110.346ZM526.445 55.5235H527.445V54.5235H526.445V55.5235ZM526.445 128V129H527.445V128H526.445ZM503.719 128H502.719V129H503.719V128ZM503.719 55.5235V54.5235H502.719V55.5235H503.719ZM525.445 55.5235V128H527.445V55.5235H525.445ZM526.445 127H503.719V129H526.445V127ZM504.719 128V55.5235H502.719V128H504.719ZM503.719 56.5235H526.445V54.5235H503.719V56.5235ZM571.207 73.6426V72.6426H570.207V73.6426H571.207ZM571.207 82.5487H570.207V83.5487H571.207V82.5487ZM593.728 82.5487H594.728V81.5487H593.728V82.5487ZM593.728 99.6441V100.644H594.728V99.6441H593.728ZM571.207 99.6441V98.6441H570.207V99.6441H571.207ZM571.207 109.881H570.207V110.881H571.207V109.881ZM596.799 109.881H597.799V108.881H596.799V109.881ZM596.799 128V129H597.799V128H596.799ZM548.481 128H547.481V129H548.481V128ZM548.481 55.5235V54.5235H547.481V55.5235H548.481ZM596.799 55.5235H597.799V54.5235H596.799V55.5235ZM596.799 73.6426V74.6426H597.799V73.6426H596.799ZM570.207 73.6426V82.5487H572.207V73.6426H570.207ZM571.207 83.5487H593.728V81.5487H571.207V83.5487ZM592.728 82.5487V99.6441H594.728V82.5487H592.728ZM593.728 98.6441H571.207V100.644H593.728V98.6441ZM570.207 99.6441V109.881H572.207V99.6441H570.207ZM571.207 110.881H596.799V108.881H571.207V110.881ZM595.799 109.881V128H597.799V109.881H595.799ZM596.799 127H548.481V129H596.799V127ZM549.481 128V55.5235H547.481V128H549.481ZM548.481 56.5235H596.799V54.5235H548.481V56.5235ZM595.799 55.5235V73.6426H597.799V55.5235H595.799ZM596.799 72.6426H571.207V74.6426H596.799V72.6426ZM704.251 55.5235H705.251V54.5235H704.251V55.5235ZM704.251 128V129H705.251V128H704.251ZM681.628 128H680.628V129H681.628V128ZM681.628 91.8641H682.628L680.672 91.5691L681.628 91.8641ZM670.469 128V129H671.207L671.425 128.295L670.469 128ZM651.02 128L650.064 128.295L650.282 129H651.02V128ZM639.861 91.8641L640.817 91.5691L638.861 91.8641H639.861ZM639.861 128V129H640.861V128H639.861ZM617.136 128H616.136V129H617.136V128ZM617.136 55.5235V54.5235H616.136V55.5235H617.136ZM644.98 55.5235L645.919 55.1789L645.678 54.5235H644.98V55.5235ZM660.949 99.0299L660.01 99.3745L660.961 101.965L661.891 99.3666L660.949 99.0299ZM676.509 55.5235V54.5235H675.805L675.568 55.1868L676.509 55.5235ZM703.251 55.5235V128H705.251V55.5235H703.251ZM704.251 127H681.628V129H704.251V127ZM682.628 128V91.8641H680.628V128H682.628ZM680.672 91.5691L669.514 127.705L671.425 128.295L682.583 92.1592L680.672 91.5691ZM670.469 127H651.02V129H670.469V127ZM651.975 127.705L640.817 91.5691L638.906 92.1592L650.064 128.295L651.975 127.705ZM638.861 91.8641V128H640.861V91.8641H638.861ZM639.861 127H617.136V129H639.861V127ZM618.136 128V55.5235H616.136V128H618.136ZM617.136 56.5235H644.98V54.5235H617.136V56.5235ZM644.041 55.8681L660.01 99.3745L661.888 98.6853L645.919 55.1789L644.041 55.8681ZM661.891 99.3666L677.451 55.8603L675.568 55.1868L660.008 98.6931L661.891 99.3666ZM676.509 56.5235H704.251V54.5235H676.509V56.5235ZM742.759 123.905L742.266 124.775L742.27 124.778L742.759 123.905ZM729.246 110.597L728.385 111.106L728.385 111.106L729.246 110.597ZM742.759 59.1064L743.243 59.9811L743.247 59.9791L742.759 59.1064ZM780.328 59.1064L779.835 59.9766L779.843 59.9811L780.328 59.1064ZM793.738 72.3119L792.872 72.8125L792.877 72.8202L793.738 72.3119ZM793.738 110.597L792.877 110.089L792.872 110.097L793.738 110.597ZM780.225 123.905L779.737 123.033L779.733 123.035L780.225 123.905ZM772.036 103.227L772.795 103.878L772.803 103.869L772.036 103.227ZM772.036 79.6823L771.269 80.3243L771.277 80.3331L772.036 79.6823ZM751.05 79.6823L751.81 80.3332L751.817 80.3243L751.05 79.6823ZM751.05 103.227L750.284 103.869L750.291 103.878L751.05 103.227ZM761.594 127.717C754.934 127.717 748.824 126.153 743.247 123.033L742.27 124.778C748.158 128.072 754.606 129.717 761.594 129.717V127.717ZM743.251 123.035C737.741 119.915 733.363 115.604 730.107 110.089L728.385 111.106C731.817 116.919 736.448 121.481 742.266 124.775L743.251 123.035ZM730.107 110.089C726.861 104.591 725.23 98.388 725.23 91.4547H723.23C723.23 98.7164 724.943 105.275 728.385 111.106L730.107 110.089ZM725.23 91.4547C725.23 84.5214 726.861 78.3185 730.107 72.8202L728.385 71.8035C724.943 77.634 723.23 84.1929 723.23 91.4547H725.23ZM730.107 72.8202C733.362 67.3068 737.737 63.0325 743.243 59.9811L742.274 58.2317C736.451 61.4588 731.818 65.9882 728.385 71.8035L730.107 72.8202ZM743.247 59.9791C748.824 56.8584 754.934 55.2951 761.594 55.2951V53.2951C754.606 53.2951 748.158 54.9394 742.27 58.2337L743.247 59.9791ZM761.594 55.2951C768.255 55.2951 774.328 56.8583 779.835 59.9766L780.82 58.2362C774.998 54.9394 768.583 53.2951 761.594 53.2951V55.2951ZM779.843 59.9811C785.347 63.0315 789.686 67.3033 792.872 72.8125L794.604 71.8112C791.238 65.9917 786.637 61.4598 780.812 58.2317L779.843 59.9811ZM792.877 72.8202C796.123 78.3185 797.754 84.5214 797.754 91.4547H799.754C799.754 84.1929 798.041 77.634 794.599 71.8035L792.877 72.8202ZM797.754 91.4547C797.754 98.388 796.123 104.591 792.877 110.089L794.599 111.106C798.041 105.275 799.754 98.7164 799.754 91.4547H797.754ZM792.872 110.097C789.687 115.605 785.313 119.913 779.737 123.033L780.714 124.778C786.603 121.483 791.237 116.919 794.604 111.098L792.872 110.097ZM779.733 123.035C774.224 126.154 768.185 127.717 761.594 127.717V129.717C768.517 129.717 774.898 128.071 780.718 124.775L779.733 123.035ZM761.594 108.526C766.328 108.526 770.111 107.009 772.795 103.878L771.277 102.576C769.047 105.178 765.869 106.526 761.594 106.526V108.526ZM772.803 103.869C775.449 100.708 776.721 96.5351 776.721 91.4547H774.721C774.721 96.2016 773.537 99.8765 771.269 102.585L772.803 103.869ZM776.721 91.4547C776.721 86.3114 775.451 82.1303 772.795 79.0316L771.277 80.3331C773.534 82.967 774.721 86.6341 774.721 91.4547H776.721ZM772.803 79.0404C770.121 75.8379 766.336 74.2805 761.594 74.2805V76.2805C765.861 76.2805 769.037 77.6577 771.269 80.3243L772.803 79.0404ZM761.594 74.2805C756.79 74.2805 752.968 75.8343 750.284 79.0404L751.817 80.3243C754.047 77.6613 757.254 76.2805 761.594 76.2805V74.2805ZM750.291 79.0316C747.635 82.1303 746.365 86.3114 746.365 91.4547H748.365C748.365 86.6341 749.552 82.967 751.81 80.3331L750.291 79.0316ZM746.365 91.4547C746.365 96.5351 747.638 100.708 750.284 103.869L751.817 102.585C749.55 99.8765 748.365 96.2016 748.365 91.4547H746.365ZM750.291 103.878C752.978 107.012 756.798 108.526 761.594 108.526V106.526C757.246 106.526 754.037 105.174 751.81 102.576L750.291 103.878ZM888.232 128V129H889.232V128H888.232ZM865.507 128L864.672 128.551L864.968 129H865.507V128ZM841.45 91.557L842.285 91.0061L840.45 88.2269V91.557H841.45ZM841.45 128V129H842.45V128H841.45ZM818.724 128H817.724V129H818.724V128ZM818.724 55.5235V54.5235H817.724V55.5235H818.724ZM841.45 55.5235L842.289 54.979L841.993 54.5235H841.45V55.5235ZM865.507 92.5807L864.668 93.1252L866.507 95.9577V92.5807H865.507ZM865.507 55.5235V54.5235H864.507V55.5235H865.507ZM888.232 55.5235H889.232V54.5235H888.232V55.5235ZM888.232 127H865.507V129H888.232V127ZM866.341 127.449L842.285 91.0061L840.616 92.1079L864.672 128.551L866.341 127.449ZM840.45 91.557V128H842.45V91.557H840.45ZM841.45 127H818.724V129H841.45V127ZM819.724 128V55.5235H817.724V128H819.724ZM818.724 56.5235H841.45V54.5235H818.724V56.5235ZM840.611 56.068L864.668 93.1252L866.345 92.0362L842.289 54.979L840.611 56.068ZM866.507 92.5807V55.5235H864.507V92.5807H866.507ZM865.507 56.5235H888.232V54.5235H865.507V56.5235ZM887.232 55.5235V128H889.232V55.5235H887.232ZM926.753 123.905L926.26 124.775L926.265 124.778L926.753 123.905ZM913.24 110.597L912.379 111.106L912.379 111.106L913.24 110.597ZM926.753 59.1064L927.238 59.9811L927.241 59.9791L926.753 59.1064ZM964.322 59.1064L963.829 59.9766L963.837 59.9811L964.322 59.1064ZM977.732 72.3119L976.867 72.8125L976.871 72.8202L977.732 72.3119ZM977.732 110.597L976.871 110.089L976.867 110.097L977.732 110.597ZM964.22 123.905L963.731 123.033L963.727 123.035L964.22 123.905ZM956.03 103.227L956.79 103.878L956.797 103.869L956.03 103.227ZM956.03 79.6823L955.263 80.3243L955.271 80.3331L956.03 79.6823ZM935.045 79.6823L935.804 80.3332L935.812 80.3243L935.045 79.6823ZM935.045 103.227L934.278 103.869L934.286 103.878L935.045 103.227ZM945.589 127.717C938.928 127.717 932.819 126.153 927.241 123.033L926.265 124.778C932.152 128.072 938.6 129.717 945.589 129.717V127.717ZM927.246 123.035C921.735 119.915 917.358 115.604 914.102 110.089L912.379 111.106C915.811 116.919 920.442 121.481 926.26 124.775L927.246 123.035ZM914.102 110.089C910.856 104.591 909.224 98.388 909.224 91.4547H907.224C907.224 98.7164 908.937 105.275 912.379 111.106L914.102 110.089ZM909.224 91.4547C909.224 84.5214 910.856 78.3185 914.102 72.8202L912.379 71.8035C908.937 77.634 907.224 84.1929 907.224 91.4547H909.224ZM914.102 72.8202C917.357 67.3068 921.732 63.0325 927.238 59.9811L926.268 58.2317C920.445 61.4588 915.812 65.9882 912.379 71.8035L914.102 72.8202ZM927.241 59.9791C932.819 56.8584 938.928 55.2951 945.589 55.2951V53.2951C938.6 53.2951 932.152 54.9394 926.265 58.2337L927.241 59.9791ZM945.589 55.2951C952.249 55.2951 958.323 56.8583 963.829 59.9766L964.815 58.2362C958.993 54.9394 952.577 53.2951 945.589 53.2951V55.2951ZM963.837 59.9811C969.341 63.0315 973.681 67.3033 976.867 72.8125L978.598 71.8112C975.232 65.9917 970.631 61.4598 964.807 58.2317L963.837 59.9811ZM976.871 72.8202C980.117 78.3185 981.748 84.5214 981.748 91.4547H983.748C983.748 84.1929 982.035 77.634 978.593 71.8035L976.871 72.8202ZM981.748 91.4547C981.748 98.388 980.117 104.591 976.871 110.089L978.593 111.106C982.035 105.275 983.748 98.7164 983.748 91.4547H981.748ZM976.867 110.097C973.681 115.605 969.308 119.913 963.731 123.033L964.708 124.778C970.597 121.483 975.232 116.919 978.598 111.098L976.867 110.097ZM963.727 123.035C958.219 126.154 952.179 127.717 945.589 127.717V129.717C952.511 129.717 958.892 128.071 964.712 124.775L963.727 123.035ZM945.589 108.526C950.323 108.526 954.106 107.009 956.789 103.878L955.271 102.576C953.041 105.178 949.863 106.526 945.589 106.526V108.526ZM956.797 103.869C959.443 100.708 960.715 96.5351 960.715 91.4547H958.715C958.715 96.2016 957.531 99.8765 955.263 102.585L956.797 103.869ZM960.715 91.4547C960.715 86.3114 959.446 82.1303 956.789 79.0316L955.271 80.3331C957.529 82.967 958.715 86.6341 958.715 91.4547H960.715ZM956.797 79.0404C954.116 75.8379 950.331 74.2805 945.589 74.2805V76.2805C949.855 76.2805 953.031 77.6577 955.263 80.3243L956.797 79.0404ZM945.589 74.2805C940.784 74.2805 936.962 75.8343 934.278 79.0404L935.812 80.3243C938.041 77.6613 941.249 76.2805 945.589 76.2805V74.2805ZM934.286 79.0316C931.63 82.1303 930.36 86.3114 930.36 91.4547H932.36C932.36 86.6341 933.546 82.967 935.804 80.3331L934.286 79.0316ZM930.36 91.4547C930.36 96.5351 931.632 100.708 934.278 103.869L935.812 102.585C933.544 99.8765 932.36 96.2016 932.36 91.4547H930.36ZM934.286 103.878C936.972 107.012 940.792 108.526 945.589 108.526V106.526C941.241 106.526 938.031 105.174 935.804 102.576L934.286 103.878ZM1009.58 122.677L1008.99 123.484L1009 123.492L1009.58 122.677ZM1000.47 104.762V103.762H999.404L999.469 104.823L1000.47 104.762ZM1024.63 104.762L1025.62 104.681L1025.55 103.762H1024.63V104.762ZM1033.22 110.188L1033.78 111.02L1033.79 111.015L1033.79 111.01L1033.22 110.188ZM1031.79 103.329L1031.28 104.19L1031.29 104.197L1031.31 104.203L1031.79 103.329ZM1023.19 99.6441L1022.86 100.587L1022.86 100.588L1023.19 99.6441ZM1011.62 94.8328L1011.16 95.7191L1011.17 95.7232L1011.62 94.8328ZM1003.84 87.9741L1004.65 87.386L1004.65 87.386L1003.84 87.9741ZM1000.67 76.4066L1001.67 76.4211L1001.67 76.4138V76.4066H1000.67ZM1004.25 64.4295L1003.45 63.8375L1003.45 63.8404L1004.25 64.4295ZM1014.18 56.8543L1013.81 55.9268L1013.8 55.929L1014.18 56.8543ZM1049.5 60.4372L1048.88 61.2221L1048.89 61.226L1049.5 60.4372ZM1057.79 77.7374V78.7374H1058.83L1058.79 77.7007L1057.79 77.7374ZM1033.33 77.7374L1032.33 77.7707L1032.36 78.7374H1033.33V77.7374ZM1025.96 73.0284L1026.66 73.7355L1026.68 73.717L1026.7 73.6974L1025.96 73.0284ZM1027.7 79.7847L1027.17 80.6364L1027.19 80.6481L1027.21 80.6589L1027.7 79.7847ZM1036.4 83.5723L1036.04 84.5073L1036.05 84.5092L1036.4 83.5723ZM1047.66 88.486L1047.19 89.3678L1047.2 89.3722L1047.66 88.486ZM1055.44 95.0375L1054.65 95.6528L1054.65 95.6528L1055.44 95.0375ZM1055.44 117.558L1056.29 118.09L1056.29 118.083L1055.44 117.558ZM1045.92 125.748L1045.49 124.845L1045.49 124.845L1045.92 125.748ZM1031.07 127.717C1022.56 127.717 1015.61 125.741 1010.16 121.862L1009 123.492C1014.87 127.666 1022.25 129.717 1031.07 129.717V127.717ZM1010.17 121.87C1004.85 117.976 1001.93 112.298 1001.46 104.702L999.469 104.823C999.962 112.924 1003.12 119.189 1008.99 123.484L1010.17 121.87ZM1000.47 105.762H1024.63V103.762H1000.47V105.762ZM1023.63 104.844C1023.81 107.038 1024.39 108.843 1025.51 110.109C1026.66 111.407 1028.26 112.007 1030.15 112.007V110.007C1028.7 110.007 1027.71 109.566 1027.01 108.783C1026.29 107.967 1025.78 106.65 1025.62 104.681L1023.63 104.844ZM1030.15 112.007C1031.53 112.007 1032.76 111.7 1033.78 111.02L1032.67 109.356C1032.05 109.768 1031.23 110.007 1030.15 110.007V112.007ZM1033.79 111.01C1034.99 110.181 1035.56 108.928 1035.56 107.424H1033.56C1033.56 108.377 1033.23 108.966 1032.66 109.366L1033.79 111.01ZM1035.56 107.424C1035.56 105.264 1034.35 103.606 1032.28 102.455L1031.31 104.203C1032.92 105.1 1033.56 106.172 1033.56 107.424H1035.56ZM1032.3 102.469C1030.37 101.326 1027.43 100.071 1023.52 98.7005L1022.86 100.588C1026.73 101.947 1029.53 103.149 1031.28 104.19L1032.3 102.469ZM1023.53 98.7011C1018.91 97.0723 1015.1 95.4853 1012.08 93.9424L1011.17 95.7232C1014.29 97.3196 1018.19 98.9401 1022.86 100.587L1023.53 98.7011ZM1012.09 93.9466C1009.23 92.455 1006.76 90.2763 1004.65 87.386L1003.04 88.5623C1005.3 91.6776 1008.01 94.0713 1011.16 95.719L1012.09 93.9466ZM1004.65 87.386C1002.63 84.6002 1001.61 80.9723 1001.67 76.4211L999.672 76.3921C999.601 81.2587 1000.69 85.3425 1003.04 88.5623L1004.65 87.386ZM1001.67 76.4066C1001.67 71.874 1002.82 68.0968 1005.06 65.0187L1003.45 63.8404C1000.91 67.3138 999.671 71.5213 999.671 76.4066H1001.67ZM1005.06 65.0216C1007.4 61.8382 1010.56 59.4221 1014.56 57.7796L1013.8 55.929C1009.49 57.6988 1006.02 60.3328 1003.45 63.8375L1005.06 65.0216ZM1014.56 57.7817C1018.65 56.1303 1023.27 55.2951 1028.41 55.2951V53.2951C1023.05 53.2951 1018.18 54.1661 1013.81 55.9269L1014.56 57.7817ZM1028.41 55.2951C1037.14 55.2951 1043.92 57.3078 1048.88 61.2221L1050.12 59.6523C1044.71 55.3772 1037.43 53.2951 1028.41 53.2951V55.2951ZM1048.89 61.226C1053.88 65.1164 1056.53 70.5915 1056.79 77.774L1058.79 77.7007C1058.51 70.0057 1055.63 63.9474 1050.12 59.6484L1048.89 61.226ZM1057.79 76.7374H1033.33V78.7374H1057.79V76.7374ZM1034.33 77.704C1034.25 75.538 1033.71 73.7518 1032.47 72.6027L1031.11 74.0683C1031.78 74.6937 1032.26 75.842 1032.33 77.7707L1034.33 77.704ZM1032.47 72.6027C1031.32 71.5351 1029.92 71.0048 1028.31 71.0048V73.0048C1029.44 73.0048 1030.35 73.3616 1031.11 74.0683L1032.47 72.6027ZM1028.31 71.0048C1027.08 71.0048 1026.03 71.4568 1025.21 72.3595L1026.7 73.6974C1027.12 73.2352 1027.63 73.0048 1028.31 73.0048V71.0048ZM1025.25 72.3213C1024.39 73.1794 1024.03 74.3565 1024.03 75.69H1026.03C1026.03 74.7031 1026.29 74.1059 1026.66 73.7355L1025.25 72.3213ZM1024.03 75.69C1024.03 77.771 1025.19 79.4191 1027.17 80.6364L1028.22 78.9331C1026.65 77.9665 1026.03 76.8848 1026.03 75.69H1024.03ZM1027.21 80.6589C1029.12 81.7191 1032.08 83.0023 1036.04 84.5073L1036.75 82.6373C1032.8 81.1396 1029.96 79.8977 1028.18 78.9106L1027.21 80.6589ZM1036.05 84.5092C1040.6 86.2062 1044.31 87.8265 1047.19 89.3678L1048.13 87.6042C1045.14 86.0062 1041.34 84.3507 1036.75 82.6354L1036.05 84.5092ZM1047.2 89.3722C1050.07 90.8726 1052.55 92.9618 1054.65 95.6528L1056.23 94.4223C1053.96 91.5172 1051.26 89.2386 1048.12 87.5998L1047.2 89.3722ZM1054.65 95.6528C1056.67 98.2431 1057.71 101.529 1057.71 105.581H1059.71C1059.71 101.172 1058.57 97.4281 1056.23 94.4223L1054.65 95.6528ZM1057.71 105.581C1057.71 109.845 1056.67 113.654 1054.59 117.034L1056.29 118.083C1058.58 114.366 1059.71 110.19 1059.71 105.581H1057.71ZM1054.59 117.027C1052.52 120.327 1049.5 122.937 1045.49 124.845L1046.35 126.651C1050.66 124.601 1053.99 121.751 1056.29 118.09L1054.59 117.027ZM1045.49 124.845C1041.49 126.747 1036.69 127.717 1031.07 127.717V129.717C1036.92 129.717 1042.02 128.708 1046.35 126.651L1045.49 124.845Z" fill="white" fill-opacity="0.5"/>
<path d="M62.3894 69.3989C62.3894 73.9714 61.3316 78.1343 59.216 81.8878C57.1004 85.5731 53.9611 88.5076 49.7982 90.6915C45.7034 92.8753 40.7215 93.9672 34.8524 93.9672H25.8441V117H3.11839V44.5235H34.8524C43.7243 44.5235 50.5147 46.7756 55.2237 51.2798C60.0008 55.784 62.3894 61.8237 62.3894 69.3989ZM32.2932 76.0528C37.0022 76.0528 39.3566 73.8349 39.3566 69.3989C39.3566 64.963 37.0022 62.745 32.2932 62.745H25.8441V76.0528H32.2932ZM116.687 117.717C109.862 117.717 103.584 116.113 97.8511 112.905C92.1867 109.698 87.6825 105.262 84.3385 99.5975C80.9945 93.9331 79.3225 87.5522 79.3225 80.4547C79.3225 73.3572 80.9945 66.9762 84.3385 61.3119C87.6825 55.6475 92.1867 51.2457 97.8511 48.1064C103.584 44.8989 109.862 43.2951 116.687 43.2951C123.511 43.2951 129.756 44.8989 135.42 48.1064C141.084 51.2457 145.555 55.6475 148.83 61.3119C152.174 66.9762 153.846 73.3572 153.846 80.4547C153.846 87.5522 152.174 93.9331 148.83 99.5975C145.555 105.262 141.05 109.698 135.318 112.905C129.653 116.113 123.443 117.717 116.687 117.717ZM116.687 96.5264C121.191 96.5264 124.671 95.0933 127.128 92.227C129.585 89.2924 130.814 85.3683 130.814 80.4547C130.814 75.4728 129.585 71.5487 127.128 68.6823C124.671 65.7478 121.191 64.2805 116.687 64.2805C112.114 64.2805 108.6 65.7478 106.143 68.6823C103.686 71.5487 102.458 75.4728 102.458 80.4547C102.458 85.3683 103.686 89.2924 106.143 92.227C108.6 95.0933 112.114 96.5264 116.687 96.5264ZM230.733 44.5235V62.5403H211.488V117H188.763V62.5403H169.722V44.5235H230.733ZM271.395 62.6426V71.5487H293.916V88.6441H271.395V98.8809H296.987V117H248.669V44.5235H296.987V62.6426H271.395ZM386.832 117H364.106L340.05 80.557V117H317.324V44.5235H340.05L364.106 81.5807V44.5235H386.832V117ZM406.824 80.6594C406.824 73.4936 408.257 67.1127 411.123 61.5166C414.058 55.9205 418.221 51.5869 423.612 48.5159C429.003 45.3766 435.35 43.807 442.653 43.807C448.931 43.807 454.527 45.0012 459.441 47.3898C464.423 49.7102 468.449 53.0201 471.52 57.3195C474.66 61.619 476.741 66.635 477.765 72.3676H453.811C452.719 69.979 451.149 68.1364 449.102 66.8397C447.123 65.4748 444.836 64.7924 442.243 64.7924C438.421 64.7924 435.384 66.2255 433.132 69.0918C430.948 71.9581 429.857 75.814 429.857 80.6594C429.857 85.5048 430.948 89.3607 433.132 92.227C435.384 95.0933 438.421 96.5264 442.243 96.5264C444.836 96.5264 447.123 95.8781 449.102 94.5814C451.149 93.2165 452.719 91.3398 453.811 88.9512H477.765C476.741 94.6838 474.66 99.6998 471.52 103.999C468.449 108.299 464.423 111.643 459.441 114.031C454.527 116.352 448.931 117.512 442.653 117.512C435.35 117.512 429.003 115.976 423.612 112.905C418.221 109.766 414.058 105.398 411.123 99.8022C408.257 94.2061 406.824 87.8251 406.824 80.6594ZM520.445 44.5235V117H497.719V44.5235H520.445ZM565.207 62.6426V71.5487H587.728V88.6441H565.207V98.8809H590.799V117H542.481V44.5235H590.799V62.6426H565.207ZM579.334 30.7039L552.82 40.3264V25.176L579.334 13.9155V30.7039ZM698.251 44.5235V117H675.628V80.8641L664.469 117H645.02L633.861 80.8641V117H611.136V44.5235H638.98L654.949 88.0299L670.509 44.5235H698.251ZM755.594 117.717C748.77 117.717 742.491 116.113 736.759 112.905C731.094 109.698 726.59 105.262 723.246 99.5975C719.902 93.9331 718.23 87.5522 718.23 80.4547C718.23 73.3572 719.902 66.9762 723.246 61.3119C726.59 55.6475 731.094 51.2457 736.759 48.1064C742.491 44.8989 748.77 43.2951 755.594 43.2951C762.419 43.2951 768.663 44.8989 774.328 48.1064C779.992 51.2457 784.462 55.6475 787.738 61.3119C791.082 66.9762 792.754 73.3572 792.754 80.4547C792.754 87.5522 791.082 93.9331 787.738 99.5975C784.462 105.262 779.958 109.698 774.225 112.905C768.561 116.113 762.351 117.717 755.594 117.717ZM755.594 96.5264C760.099 96.5264 763.579 95.0933 766.036 92.227C768.493 89.2924 769.721 85.3683 769.721 80.4547C769.721 75.4728 768.493 71.5487 766.036 68.6823C763.579 65.7478 760.099 64.2805 755.594 64.2805C751.022 64.2805 747.507 65.7478 745.05 68.6823C742.594 71.5487 741.365 75.4728 741.365 80.4547C741.365 85.3683 742.594 89.2924 745.05 92.227C747.507 95.0933 751.022 96.5264 755.594 96.5264ZM882.232 117H859.507L835.45 80.557V117H812.724V44.5235H835.45L859.507 81.5807V44.5235H882.232V117ZM939.589 117.717C932.764 117.717 926.486 116.113 920.753 112.905C915.089 109.698 910.584 105.262 907.24 99.5975C903.896 93.9331 902.224 87.5522 902.224 80.4547C902.224 73.3572 903.896 66.9762 907.24 61.3119C910.584 55.6475 915.089 51.2457 920.753 48.1064C926.486 44.8989 932.764 43.2951 939.589 43.2951C946.413 43.2951 952.658 44.8989 958.322 48.1064C963.986 51.2457 968.456 55.6475 971.732 61.3119C975.076 66.9762 976.748 73.3572 976.748 80.4547C976.748 87.5522 975.076 93.9331 971.732 99.5975C968.456 105.262 963.952 109.698 958.22 112.905C952.555 116.113 946.345 117.717 939.589 117.717ZM939.589 96.5264C944.093 96.5264 947.573 95.0933 950.03 92.227C952.487 89.2924 953.715 85.3683 953.715 80.4547C953.715 75.4728 952.487 71.5487 950.03 68.6823C947.573 65.7478 944.093 64.2805 939.589 64.2805C935.016 64.2805 931.502 65.7478 929.045 68.6823C926.588 71.5487 925.36 75.4728 925.36 80.4547C925.36 85.3683 926.588 89.2924 929.045 92.227C931.502 95.0933 935.016 96.5264 939.589 96.5264ZM1025.07 117.717C1016.41 117.717 1009.24 115.703 1003.58 111.677C997.981 107.582 994.944 101.611 994.467 93.7625H1018.63C1018.97 97.9254 1020.81 100.007 1024.15 100.007C1025.38 100.007 1026.41 99.7339 1027.22 99.188C1028.11 98.5738 1028.56 97.6525 1028.56 96.4241C1028.56 94.7179 1027.63 93.353 1025.79 92.3293C1023.95 91.2374 1021.08 90.009 1017.19 88.6441C1012.55 87.0062 1008.7 85.4024 1005.62 83.8328C1002.62 82.2632 1000.03 79.9769 997.845 76.9741C995.661 73.9714 994.603 70.1155 994.671 65.4066C994.671 60.6977 995.866 56.7053 998.254 53.4295C1000.71 50.0855 1004.02 47.5604 1008.18 45.8543C1012.42 44.1482 1017.16 43.2951 1022.41 43.2951C1031.29 43.2951 1038.31 45.3425 1043.5 49.4372C1048.76 53.5319 1051.52 59.2986 1051.79 66.7374H1027.33C1027.26 64.69 1026.75 63.2227 1025.79 62.3355C1024.84 61.4483 1023.68 61.0048 1022.31 61.0048C1021.36 61.0048 1020.57 61.346 1019.96 62.0284C1019.34 62.6426 1019.03 63.5298 1019.03 64.69C1019.03 66.3279 1019.92 67.6928 1021.7 68.7847C1023.54 69.8084 1026.44 71.0709 1030.4 72.5723C1034.97 74.2785 1038.72 75.9163 1041.66 77.486C1044.66 79.0556 1047.25 81.2395 1049.44 84.0375C1051.62 86.8356 1052.71 90.3502 1052.71 94.5814C1052.71 99.0174 1051.62 103.01 1049.44 106.558C1047.25 110.039 1044.08 112.769 1039.92 114.748C1035.76 116.727 1030.81 117.717 1025.07 117.717Z" fill="#00FFD1"/>
<path d="M62.3894 69.3989C62.3894 73.9714 61.3316 78.1343 59.216 81.8878C57.1004 85.5731 53.9611 88.5076 49.7982 90.6915C45.7034 92.8753 40.7215 93.9672 34.8524 93.9672H25.8441V117H3.11839V44.5235H34.8524C43.7243 44.5235 50.5147 46.7756 55.2237 51.2798C60.0008 55.784 62.3894 61.8237 62.3894 69.3989ZM32.2932 76.0528C37.0022 76.0528 39.3566 73.8349 39.3566 69.3989C39.3566 64.963 37.0022 62.745 32.2932 62.745H25.8441V76.0528H32.2932ZM116.687 117.717C109.862 117.717 103.584 116.113 97.8511 112.905C92.1867 109.698 87.6825 105.262 84.3385 99.5975C80.9945 93.9331 79.3225 87.5522 79.3225 80.4547C79.3225 73.3572 80.9945 66.9762 84.3385 61.3119C87.6825 55.6475 92.1867 51.2457 97.8511 48.1064C103.584 44.8989 109.862 43.2951 116.687 43.2951C123.511 43.2951 129.756 44.8989 135.42 48.1064C141.084 51.2457 145.555 55.6475 148.83 61.3119C152.174 66.9762 153.846 73.3572 153.846 80.4547C153.846 87.5522 152.174 93.9331 148.83 99.5975C145.555 105.262 141.05 109.698 135.318 112.905C129.653 116.113 123.443 117.717 116.687 117.717ZM116.687 96.5264C121.191 96.5264 124.671 95.0933 127.128 92.227C129.585 89.2924 130.814 85.3683 130.814 80.4547C130.814 75.4728 129.585 71.5487 127.128 68.6823C124.671 65.7478 121.191 64.2805 116.687 64.2805C112.114 64.2805 108.6 65.7478 106.143 68.6823C103.686 71.5487 102.458 75.4728 102.458 80.4547C102.458 85.3683 103.686 89.2924 106.143 92.227C108.6 95.0933 112.114 96.5264 116.687 96.5264ZM230.733 44.5235V62.5403H211.488V117H188.763V62.5403H169.722V44.5235H230.733ZM271.395 62.6426V71.5487H293.916V88.6441H271.395V98.8809H296.987V117H248.669V44.5235H296.987V62.6426H271.395ZM386.832 117H364.106L340.05 80.557V117H317.324V44.5235H340.05L364.106 81.5807V44.5235H386.832V117ZM406.824 80.6594C406.824 73.4936 408.257 67.1127 411.123 61.5166C414.058 55.9205 418.221 51.5869 423.612 48.5159C429.003 45.3766 435.35 43.807 442.653 43.807C448.931 43.807 454.527 45.0012 459.441 47.3898C464.423 49.7102 468.449 53.0201 471.52 57.3195C474.66 61.619 476.741 66.635 477.765 72.3676H453.811C452.719 69.979 451.149 68.1364 449.102 66.8397C447.123 65.4748 444.836 64.7924 442.243 64.7924C438.421 64.7924 435.384 66.2255 433.132 69.0918C430.948 71.9581 429.857 75.814 429.857 80.6594C429.857 85.5048 430.948 89.3607 433.132 92.227C435.384 95.0933 438.421 96.5264 442.243 96.5264C444.836 96.5264 447.123 95.8781 449.102 94.5814C451.149 93.2165 452.719 91.3398 453.811 88.9512H477.765C476.741 94.6838 474.66 99.6998 471.52 103.999C468.449 108.299 464.423 111.643 459.441 114.031C454.527 116.352 448.931 117.512 442.653 117.512C435.35 117.512 429.003 115.976 423.612 112.905C418.221 109.766 414.058 105.398 411.123 99.8022C408.257 94.2061 406.824 87.8251 406.824 80.6594ZM520.445 44.5235V117H497.719V44.5235H520.445ZM565.207 62.6426V71.5487H587.728V88.6441H565.207V98.8809H590.799V117H542.481V44.5235H590.799V62.6426H565.207ZM579.334 30.7039L552.82 40.3264V25.176L579.334 13.9155V30.7039ZM698.251 44.5235V117H675.628V80.8641L664.469 117H645.02L633.861 80.8641V117H611.136V44.5235H638.98L654.949 88.0299L670.509 44.5235H698.251ZM755.594 117.717C748.77 117.717 742.491 116.113 736.759 112.905C731.094 109.698 726.59 105.262 723.246 99.5975C719.902 93.9331 718.23 87.5522 718.23 80.4547C718.23 73.3572 719.902 66.9762 723.246 61.3119C726.59 55.6475 731.094 51.2457 736.759 48.1064C742.491 44.8989 748.77 43.2951 755.594 43.2951C762.419 43.2951 768.663 44.8989 774.328 48.1064C779.992 51.2457 784.462 55.6475 787.738 61.3119C791.082 66.9762 792.754 73.3572 792.754 80.4547C792.754 87.5522 791.082 93.9331 787.738 99.5975C784.462 105.262 779.958 109.698 774.225 112.905C768.561 116.113 762.351 117.717 755.594 117.717ZM755.594 96.5264C760.099 96.5264 763.579 95.0933 766.036 92.227C768.493 89.2924 769.721 85.3683 769.721 80.4547C769.721 75.4728 768.493 71.5487 766.036 68.6823C763.579 65.7478 760.099 64.2805 755.594 64.2805C751.022 64.2805 747.507 65.7478 745.05 68.6823C742.594 71.5487 741.365 75.4728 741.365 80.4547C741.365 85.3683 742.594 89.2924 745.05 92.227C747.507 95.0933 751.022 96.5264 755.594 96.5264ZM882.232 117H859.507L835.45 80.557V117H812.724V44.5235H835.45L859.507 81.5807V44.5235H882.232V117ZM939.589 117.717C932.764 117.717 926.486 116.113 920.753 112.905C915.089 109.698 910.584 105.262 907.24 99.5975C903.896 93.9331 902.224 87.5522 902.224 80.4547C902.224 73.3572 903.896 66.9762 907.24 61.3119C910.584 55.6475 915.089 51.2457 920.753 48.1064C926.486 44.8989 932.764 43.2951 939.589 43.2951C946.413 43.2951 952.658 44.8989 958.322 48.1064C963.986 51.2457 968.456 55.6475 971.732 61.3119C975.076 66.9762 976.748 73.3572 976.748 80.4547C976.748 87.5522 975.076 93.9331 971.732 99.5975C968.456 105.262 963.952 109.698 958.22 112.905C952.555 116.113 946.345 117.717 939.589 117.717ZM939.589 96.5264C944.093 96.5264 947.573 95.0933 950.03 92.227C952.487 89.2924 953.715 85.3683 953.715 80.4547C953.715 75.4728 952.487 71.5487 950.03 68.6823C947.573 65.7478 944.093 64.2805 939.589 64.2805C935.016 64.2805 931.502 65.7478 929.045 68.6823C926.588 71.5487 925.36 75.4728 925.36 80.4547C925.36 85.3683 926.588 89.2924 929.045 92.227C931.502 95.0933 935.016 96.5264 939.589 96.5264ZM1025.07 117.717C1016.41 117.717 1009.24 115.703 1003.58 111.677C997.981 107.582 994.944 101.611 994.467 93.7625H1018.63C1018.97 97.9254 1020.81 100.007 1024.15 100.007C1025.38 100.007 1026.41 99.7339 1027.22 99.188C1028.11 98.5738 1028.56 97.6525 1028.56 96.4241C1028.56 94.7179 1027.63 93.353 1025.79 92.3293C1023.95 91.2374 1021.08 90.009 1017.19 88.6441C1012.55 87.0062 1008.7 85.4024 1005.62 83.8328C1002.62 82.2632 1000.03 79.9769 997.845 76.9741C995.661 73.9714 994.603 70.1155 994.671 65.4066C994.671 60.6977 995.866 56.7053 998.254 53.4295C1000.71 50.0855 1004.02 47.5604 1008.18 45.8543C1012.42 44.1482 1017.16 43.2951 1022.41 43.2951C1031.29 43.2951 1038.31 45.3425 1043.5 49.4372C1048.76 53.5319 1051.52 59.2986 1051.79 66.7374H1027.33C1027.26 64.69 1026.75 63.2227 1025.79 62.3355C1024.84 61.4483 1023.68 61.0048 1022.31 61.0048C1021.36 61.0048 1020.57 61.346 1019.96 62.0284C1019.34 62.6426 1019.03 63.5298 1019.03 64.69C1019.03 66.3279 1019.92 67.6928 1021.7 68.7847C1023.54 69.8084 1026.44 71.0709 1030.4 72.5723C1034.97 74.2785 1038.72 75.9163 1041.66 77.486C1044.66 79.0556 1047.25 81.2395 1049.44 84.0375C1051.62 86.8356 1052.71 90.3502 1052.71 94.5814C1052.71 99.0174 1051.62 103.01 1049.44 106.558C1047.25 110.039 1044.08 112.769 1039.92 114.748C1035.76 116.727 1030.81 117.717 1025.07 117.717Z" fill="#00FFD1"/>
<path d="M68.3894 68.3989C68.3894 72.9714 67.3316 77.1343 65.216 80.8878C63.1004 84.5731 59.9611 87.5076 55.7982 89.6915C51.7034 91.8753 46.7215 92.9672 40.8524 92.9672H31.8441V116H9.11839V43.5235H40.8524C49.7243 43.5235 56.5147 45.7756 61.2237 50.2798C66.0008 54.784 68.3894 60.8237 68.3894 68.3989ZM38.2932 75.0528C43.0022 75.0528 45.3566 72.8349 45.3566 68.3989C45.3566 63.963 43.0022 61.745 38.2932 61.745H31.8441V75.0528H38.2932ZM122.687 116.717C115.862 116.717 109.584 115.113 103.851 111.905C98.1867 108.698 93.6825 104.262 90.3385 98.5975C86.9945 92.9331 85.3225 86.5522 85.3225 79.4547C85.3225 72.3572 86.9945 65.9762 90.3385 60.3119C93.6825 54.6475 98.1867 50.2457 103.851 47.1064C109.584 43.8989 115.862 42.2951 122.687 42.2951C129.511 42.2951 135.756 43.8989 141.42 47.1064C147.084 50.2457 151.555 54.6475 154.83 60.3119C158.174 65.9762 159.846 72.3572 159.846 79.4547C159.846 86.5522 158.174 92.9331 154.83 98.5975C151.555 104.262 147.05 108.698 141.318 111.905C135.653 115.113 129.443 116.717 122.687 116.717ZM122.687 95.5264C127.191 95.5264 130.671 94.0933 133.128 91.227C135.585 88.2924 136.814 84.3683 136.814 79.4547C136.814 74.4728 135.585 70.5487 133.128 67.6823C130.671 64.7478 127.191 63.2805 122.687 63.2805C118.114 63.2805 114.6 64.7478 112.143 67.6823C109.686 70.5487 108.458 74.4728 108.458 79.4547C108.458 84.3683 109.686 88.2924 112.143 91.227C114.6 94.0933 118.114 95.5264 122.687 95.5264ZM236.733 43.5235V61.5403H217.488V116H194.763V61.5403H175.722V43.5235H236.733ZM277.395 61.6426V70.5487H299.916V87.6441H277.395V97.8809H302.987V116H254.669V43.5235H302.987V61.6426H277.395ZM392.832 116H370.106L346.05 79.557V116H323.324V43.5235H346.05L370.106 80.5807V43.5235H392.832V116ZM412.824 79.6594C412.824 72.4936 414.257 66.1127 417.123 60.5166C420.058 54.9205 424.221 50.5869 429.612 47.5159C435.003 44.3766 441.35 42.807 448.653 42.807C454.931 42.807 460.527 44.0012 465.441 46.3898C470.423 48.7102 474.449 52.0201 477.52 56.3195C480.66 60.619 482.741 65.635 483.765 71.3676H459.811C458.719 68.979 457.149 67.1364 455.102 65.8397C453.123 64.4748 450.836 63.7924 448.243 63.7924C444.421 63.7924 441.384 65.2255 439.132 68.0918C436.948 70.9581 435.857 74.814 435.857 79.6594C435.857 84.5048 436.948 88.3607 439.132 91.227C441.384 94.0933 444.421 95.5264 448.243 95.5264C450.836 95.5264 453.123 94.8781 455.102 93.5814C457.149 92.2165 458.719 90.3398 459.811 87.9512H483.765C482.741 93.6838 480.66 98.6998 477.52 102.999C474.449 107.299 470.423 110.643 465.441 113.031C460.527 115.352 454.931 116.512 448.653 116.512C441.35 116.512 435.003 114.976 429.612 111.905C424.221 108.766 420.058 104.398 417.123 98.8022C414.257 93.2061 412.824 86.8251 412.824 79.6594ZM526.445 43.5235V116H503.719V43.5235H526.445ZM571.207 61.6426V70.5487H593.728V87.6441H571.207V97.8809H596.799V116H548.481V43.5235H596.799V61.6426H571.207ZM585.334 29.7039L558.82 39.3264V24.176L585.334 12.9155V29.7039ZM704.251 43.5235V116H681.628V79.8641L670.469 116H651.02L639.861 79.8641V116H617.136V43.5235H644.98L660.949 87.0299L676.509 43.5235H704.251ZM761.594 116.717C754.77 116.717 748.491 115.113 742.759 111.905C737.094 108.698 732.59 104.262 729.246 98.5975C725.902 92.9331 724.23 86.5522 724.23 79.4547C724.23 72.3572 725.902 65.9762 729.246 60.3119C732.59 54.6475 737.094 50.2457 742.759 47.1064C748.491 43.8989 754.77 42.2951 761.594 42.2951C768.419 42.2951 774.663 43.8989 780.328 47.1064C785.992 50.2457 790.462 54.6475 793.738 60.3119C797.082 65.9762 798.754 72.3572 798.754 79.4547C798.754 86.5522 797.082 92.9331 793.738 98.5975C790.462 104.262 785.958 108.698 780.225 111.905C774.561 115.113 768.351 116.717 761.594 116.717ZM761.594 95.5264C766.099 95.5264 769.579 94.0933 772.036 91.227C774.493 88.2924 775.721 84.3683 775.721 79.4547C775.721 74.4728 774.493 70.5487 772.036 67.6823C769.579 64.7478 766.099 63.2805 761.594 63.2805C757.022 63.2805 753.507 64.7478 751.05 67.6823C748.594 70.5487 747.365 74.4728 747.365 79.4547C747.365 84.3683 748.594 88.2924 751.05 91.227C753.507 94.0933 757.022 95.5264 761.594 95.5264ZM888.232 116H865.507L841.45 79.557V116H818.724V43.5235H841.45L865.507 80.5807V43.5235H888.232V116ZM945.589 116.717C938.764 116.717 932.486 115.113 926.753 111.905C921.089 108.698 916.584 104.262 913.24 98.5975C909.896 92.9331 908.224 86.5522 908.224 79.4547C908.224 72.3572 909.896 65.9762 913.24 60.3119C916.584 54.6475 921.089 50.2457 926.753 47.1064C932.486 43.8989 938.764 42.2951 945.589 42.2951C952.413 42.2951 958.658 43.8989 964.322 47.1064C969.986 50.2457 974.456 54.6475 977.732 60.3119C981.076 65.9762 982.748 72.3572 982.748 79.4547C982.748 86.5522 981.076 92.9331 977.732 98.5975C974.456 104.262 969.952 108.698 964.22 111.905C958.555 115.113 952.345 116.717 945.589 116.717ZM945.589 95.5264C950.093 95.5264 953.573 94.0933 956.03 91.227C958.487 88.2924 959.715 84.3683 959.715 79.4547C959.715 74.4728 958.487 70.5487 956.03 67.6823C953.573 64.7478 950.093 63.2805 945.589 63.2805C941.016 63.2805 937.502 64.7478 935.045 67.6823C932.588 70.5487 931.36 74.4728 931.36 79.4547C931.36 84.3683 932.588 88.2924 935.045 91.227C937.502 94.0933 941.016 95.5264 945.589 95.5264ZM1031.07 116.717C1022.41 116.717 1015.24 114.703 1009.58 110.677C1003.98 106.582 1000.94 100.611 1000.47 92.7625H1024.63C1024.97 96.9254 1026.81 99.0069 1030.15 99.0069C1031.38 99.0069 1032.41 98.7339 1033.22 98.188C1034.11 97.5738 1034.56 96.6525 1034.56 95.4241C1034.56 93.7179 1033.63 92.353 1031.79 91.3293C1029.95 90.2374 1027.08 89.009 1023.19 87.6441C1018.55 86.0062 1014.7 84.4024 1011.62 82.8328C1008.62 81.2632 1006.03 78.9769 1003.84 75.9741C1001.66 72.9714 1000.6 69.1155 1000.67 64.4066C1000.67 59.6977 1001.87 55.7053 1004.25 52.4295C1006.71 49.0855 1010.02 46.5604 1014.18 44.8543C1018.42 43.1482 1023.16 42.2951 1028.41 42.2951C1037.29 42.2951 1044.31 44.3425 1049.5 48.4372C1054.76 52.5319 1057.52 58.2986 1057.79 65.7374H1033.33C1033.26 63.69 1032.75 62.2227 1031.79 61.3355C1030.84 60.4483 1029.68 60.0048 1028.31 60.0048C1027.36 60.0048 1026.57 60.346 1025.96 61.0284C1025.34 61.6426 1025.03 62.5298 1025.03 63.69C1025.03 65.3279 1025.92 66.6928 1027.7 67.7847C1029.54 68.8084 1032.44 70.0709 1036.4 71.5723C1040.97 73.2785 1044.72 74.9163 1047.66 76.486C1050.66 78.0556 1053.25 80.2395 1055.44 83.0375C1057.62 85.8356 1058.71 89.3502 1058.71 93.5814C1058.71 98.0174 1057.62 102.01 1055.44 105.558C1053.25 109.039 1050.08 111.769 1045.92 113.748C1041.76 115.727 1036.81 116.717 1031.07 116.717Z" fill="#00FFD1"/>
<path d="M68.3894 68.3989C68.3894 72.9714 67.3316 77.1343 65.216 80.8878C63.1004 84.5731 59.9611 87.5076 55.7982 89.6915C51.7034 91.8753 46.7215 92.9672 40.8524 92.9672H31.8441V116H9.11839V43.5235H40.8524C49.7243 43.5235 56.5147 45.7756 61.2237 50.2798C66.0008 54.784 68.3894 60.8237 68.3894 68.3989ZM38.2932 75.0528C43.0022 75.0528 45.3566 72.8349 45.3566 68.3989C45.3566 63.963 43.0022 61.745 38.2932 61.745H31.8441V75.0528H38.2932ZM122.687 116.717C115.862 116.717 109.584 115.113 103.851 111.905C98.1867 108.698 93.6825 104.262 90.3385 98.5975C86.9945 92.9331 85.3225 86.5522 85.3225 79.4547C85.3225 72.3572 86.9945 65.9762 90.3385 60.3119C93.6825 54.6475 98.1867 50.2457 103.851 47.1064C109.584 43.8989 115.862 42.2951 122.687 42.2951C129.511 42.2951 135.756 43.8989 141.42 47.1064C147.084 50.2457 151.555 54.6475 154.83 60.3119C158.174 65.9762 159.846 72.3572 159.846 79.4547C159.846 86.5522 158.174 92.9331 154.83 98.5975C151.555 104.262 147.05 108.698 141.318 111.905C135.653 115.113 129.443 116.717 122.687 116.717ZM122.687 95.5264C127.191 95.5264 130.671 94.0933 133.128 91.227C135.585 88.2924 136.814 84.3683 136.814 79.4547C136.814 74.4728 135.585 70.5487 133.128 67.6823C130.671 64.7478 127.191 63.2805 122.687 63.2805C118.114 63.2805 114.6 64.7478 112.143 67.6823C109.686 70.5487 108.458 74.4728 108.458 79.4547C108.458 84.3683 109.686 88.2924 112.143 91.227C114.6 94.0933 118.114 95.5264 122.687 95.5264ZM236.733 43.5235V61.5403H217.488V116H194.763V61.5403H175.722V43.5235H236.733ZM277.395 61.6426V70.5487H299.916V87.6441H277.395V97.8809H302.987V116H254.669V43.5235H302.987V61.6426H277.395ZM392.832 116H370.106L346.05 79.557V116H323.324V43.5235H346.05L370.106 80.5807V43.5235H392.832V116ZM412.824 79.6594C412.824 72.4936 414.257 66.1127 417.123 60.5166C420.058 54.9205 424.221 50.5869 429.612 47.5159C435.003 44.3766 441.35 42.807 448.653 42.807C454.931 42.807 460.527 44.0012 465.441 46.3898C470.423 48.7102 474.449 52.0201 477.52 56.3195C480.66 60.619 482.741 65.635 483.765 71.3676H459.811C458.719 68.979 457.149 67.1364 455.102 65.8397C453.123 64.4748 450.836 63.7924 448.243 63.7924C444.421 63.7924 441.384 65.2255 439.132 68.0918C436.948 70.9581 435.857 74.814 435.857 79.6594C435.857 84.5048 436.948 88.3607 439.132 91.227C441.384 94.0933 444.421 95.5264 448.243 95.5264C450.836 95.5264 453.123 94.8781 455.102 93.5814C457.149 92.2165 458.719 90.3398 459.811 87.9512H483.765C482.741 93.6838 480.66 98.6998 477.52 102.999C474.449 107.299 470.423 110.643 465.441 113.031C460.527 115.352 454.931 116.512 448.653 116.512C441.35 116.512 435.003 114.976 429.612 111.905C424.221 108.766 420.058 104.398 417.123 98.8022C414.257 93.2061 412.824 86.8251 412.824 79.6594ZM526.445 43.5235V116H503.719V43.5235H526.445ZM571.207 61.6426V70.5487H593.728V87.6441H571.207V97.8809H596.799V116H548.481V43.5235H596.799V61.6426H571.207ZM585.334 29.7039L558.82 39.3264V24.176L585.334 12.9155V29.7039ZM704.251 43.5235V116H681.628V79.8641L670.469 116H651.02L639.861 79.8641V116H617.136V43.5235H644.98L660.949 87.0299L676.509 43.5235H704.251ZM761.594 116.717C754.77 116.717 748.491 115.113 742.759 111.905C737.094 108.698 732.59 104.262 729.246 98.5975C725.902 92.9331 724.23 86.5522 724.23 79.4547C724.23 72.3572 725.902 65.9762 729.246 60.3119C732.59 54.6475 737.094 50.2457 742.759 47.1064C748.491 43.8989 754.77 42.2951 761.594 42.2951C768.419 42.2951 774.663 43.8989 780.328 47.1064C785.992 50.2457 790.462 54.6475 793.738 60.3119C797.082 65.9762 798.754 72.3572 798.754 79.4547C798.754 86.5522 797.082 92.9331 793.738 98.5975C790.462 104.262 785.958 108.698 780.225 111.905C774.561 115.113 768.351 116.717 761.594 116.717ZM761.594 95.5264C766.099 95.5264 769.579 94.0933 772.036 91.227C774.493 88.2924 775.721 84.3683 775.721 79.4547C775.721 74.4728 774.493 70.5487 772.036 67.6823C769.579 64.7478 766.099 63.2805 761.594 63.2805C757.022 63.2805 753.507 64.7478 751.05 67.6823C748.594 70.5487 747.365 74.4728 747.365 79.4547C747.365 84.3683 748.594 88.2924 751.05 91.227C753.507 94.0933 757.022 95.5264 761.594 95.5264ZM888.232 116H865.507L841.45 79.557V116H818.724V43.5235H841.45L865.507 80.5807V43.5235H888.232V116ZM945.589 116.717C938.764 116.717 932.486 115.113 926.753 111.905C921.089 108.698 916.584 104.262 913.24 98.5975C909.896 92.9331 908.224 86.5522 908.224 79.4547C908.224 72.3572 909.896 65.9762 913.24 60.3119C916.584 54.6475 921.089 50.2457 926.753 47.1064C932.486 43.8989 938.764 42.2951 945.589 42.2951C952.413 42.2951 958.658 43.8989 964.322 47.1064C969.986 50.2457 974.456 54.6475 977.732 60.3119C981.076 65.9762 982.748 72.3572 982.748 79.4547C982.748 86.5522 981.076 92.9331 977.732 98.5975C974.456 104.262 969.952 108.698 964.22 111.905C958.555 115.113 952.345 116.717 945.589 116.717ZM945.589 95.5264C950.093 95.5264 953.573 94.0933 956.03 91.227C958.487 88.2924 959.715 84.3683 959.715 79.4547C959.715 74.4728 958.487 70.5487 956.03 67.6823C953.573 64.7478 950.093 63.2805 945.589 63.2805C941.016 63.2805 937.502 64.7478 935.045 67.6823C932.588 70.5487 931.36 74.4728 931.36 79.4547C931.36 84.3683 932.588 88.2924 935.045 91.227C937.502 94.0933 941.016 95.5264 945.589 95.5264ZM1031.07 116.717C1022.41 116.717 1015.24 114.703 1009.58 110.677C1003.98 106.582 1000.94 100.611 1000.47 92.7625H1024.63C1024.97 96.9254 1026.81 99.0069 1030.15 99.0069C1031.38 99.0069 1032.41 98.7339 1033.22 98.188C1034.11 97.5738 1034.56 96.6525 1034.56 95.4241C1034.56 93.7179 1033.63 92.353 1031.79 91.3293C1029.95 90.2374 1027.08 89.009 1023.19 87.6441C1018.55 86.0062 1014.7 84.4024 1011.62 82.8328C1008.62 81.2632 1006.03 78.9769 1003.84 75.9741C1001.66 72.9714 1000.6 69.1155 1000.67 64.4066C1000.67 59.6977 1001.87 55.7053 1004.25 52.4295C1006.71 49.0855 1010.02 46.5604 1014.18 44.8543C1018.42 43.1482 1023.16 42.2951 1028.41 42.2951C1037.29 42.2951 1044.31 44.3425 1049.5 48.4372C1054.76 52.5319 1057.52 58.2986 1057.79 65.7374H1033.33C1033.26 63.69 1032.75 62.2227 1031.79 61.3355C1030.84 60.4483 1029.68 60.0048 1028.31 60.0048C1027.36 60.0048 1026.57 60.346 1025.96 61.0284C1025.34 61.6426 1025.03 62.5298 1025.03 63.69C1025.03 65.3279 1025.92 66.6928 1027.7 67.7847C1029.54 68.8084 1032.44 70.0709 1036.4 71.5723C1040.97 73.2785 1044.72 74.9163 1047.66 76.486C1050.66 78.0556 1053.25 80.2395 1055.44 83.0375C1057.62 85.8356 1058.71 89.3502 1058.71 93.5814C1058.71 98.0174 1057.62 102.01 1055.44 105.558C1053.25 109.039 1050.08 111.769 1045.92 113.748C1041.76 115.727 1036.81 116.717 1031.07 116.717Z" fill="#FF0000"/>
<path d="M65.3894 68.3989C65.3894 72.9714 64.3316 77.1343 62.216 80.8878C60.1004 84.5731 56.9611 87.5076 52.7982 89.6915C48.7034 91.8753 43.7215 92.9672 37.8524 92.9672H28.8441V116H6.11839V43.5235H37.8524C46.7243 43.5235 53.5147 45.7756 58.2237 50.2798C63.0008 54.784 65.3894 60.8237 65.3894 68.3989ZM35.2932 75.0528C40.0022 75.0528 42.3566 72.8349 42.3566 68.3989C42.3566 63.963 40.0022 61.745 35.2932 61.745H28.8441V75.0528H35.2932ZM119.687 116.717C112.862 116.717 106.584 115.113 100.851 111.905C95.1867 108.698 90.6825 104.262 87.3385 98.5975C83.9945 92.9331 82.3225 86.5522 82.3225 79.4547C82.3225 72.3572 83.9945 65.9762 87.3385 60.3119C90.6825 54.6475 95.1867 50.2457 100.851 47.1064C106.584 43.8989 112.862 42.2951 119.687 42.2951C126.511 42.2951 132.756 43.8989 138.42 47.1064C144.084 50.2457 148.555 54.6475 151.83 60.3119C155.174 65.9762 156.846 72.3572 156.846 79.4547C156.846 86.5522 155.174 92.9331 151.83 98.5975C148.555 104.262 144.05 108.698 138.318 111.905C132.653 115.113 126.443 116.717 119.687 116.717ZM119.687 95.5264C124.191 95.5264 127.671 94.0933 130.128 91.227C132.585 88.2924 133.814 84.3683 133.814 79.4547C133.814 74.4728 132.585 70.5487 130.128 67.6823C127.671 64.7478 124.191 63.2805 119.687 63.2805C115.114 63.2805 111.6 64.7478 109.143 67.6823C106.686 70.5487 105.458 74.4728 105.458 79.4547C105.458 84.3683 106.686 88.2924 109.143 91.227C111.6 94.0933 115.114 95.5264 119.687 95.5264ZM233.733 43.5235V61.5403H214.488V116H191.763V61.5403H172.722V43.5235H233.733ZM274.395 61.6426V70.5487H296.916V87.6441H274.395V97.8809H299.987V116H251.669V43.5235H299.987V61.6426H274.395ZM389.832 116H367.106L343.05 79.557V116H320.324V43.5235H343.05L367.106 80.5807V43.5235H389.832V116ZM409.824 79.6594C409.824 72.4936 411.257 66.1127 414.123 60.5166C417.058 54.9205 421.221 50.5869 426.612 47.5159C432.003 44.3766 438.35 42.807 445.653 42.807C451.931 42.807 457.527 44.0012 462.441 46.3898C467.423 48.7102 471.449 52.0201 474.52 56.3195C477.66 60.619 479.741 65.635 480.765 71.3676H456.811C455.719 68.979 454.149 67.1364 452.102 65.8397C450.123 64.4748 447.836 63.7924 445.243 63.7924C441.421 63.7924 438.384 65.2255 436.132 68.0918C433.948 70.9581 432.857 74.814 432.857 79.6594C432.857 84.5048 433.948 88.3607 436.132 91.227C438.384 94.0933 441.421 95.5264 445.243 95.5264C447.836 95.5264 450.123 94.8781 452.102 93.5814C454.149 92.2165 455.719 90.3398 456.811 87.9512H480.765C479.741 93.6838 477.66 98.6998 474.52 102.999C471.449 107.299 467.423 110.643 462.441 113.031C457.527 115.352 451.931 116.512 445.653 116.512C438.35 116.512 432.003 114.976 426.612 111.905C421.221 108.766 417.058 104.398 414.123 98.8022C411.257 93.2061 409.824 86.8251 409.824 79.6594ZM523.445 43.5235V116H500.719V43.5235H523.445ZM568.207 61.6426V70.5487H590.728V87.6441H568.207V97.8809H593.799V116H545.481V43.5235H593.799V61.6426H568.207ZM582.334 29.7039L555.82 39.3264V24.176L582.334 12.9155V29.7039ZM701.251 43.5235V116H678.628V79.8641L667.469 116H648.02L636.861 79.8641V116H614.136V43.5235H641.98L657.949 87.0299L673.509 43.5235H701.251ZM758.594 116.717C751.77 116.717 745.491 115.113 739.759 111.905C734.094 108.698 729.59 104.262 726.246 98.5975C722.902 92.9331 721.23 86.5522 721.23 79.4547C721.23 72.3572 722.902 65.9762 726.246 60.3119C729.59 54.6475 734.094 50.2457 739.759 47.1064C745.491 43.8989 751.77 42.2951 758.594 42.2951C765.419 42.2951 771.663 43.8989 777.328 47.1064C782.992 50.2457 787.462 54.6475 790.738 60.3119C794.082 65.9762 795.754 72.3572 795.754 79.4547C795.754 86.5522 794.082 92.9331 790.738 98.5975C787.462 104.262 782.958 108.698 777.225 111.905C771.561 115.113 765.351 116.717 758.594 116.717ZM758.594 95.5264C763.099 95.5264 766.579 94.0933 769.036 91.227C771.493 88.2924 772.721 84.3683 772.721 79.4547C772.721 74.4728 771.493 70.5487 769.036 67.6823C766.579 64.7478 763.099 63.2805 758.594 63.2805C754.022 63.2805 750.507 64.7478 748.05 67.6823C745.594 70.5487 744.365 74.4728 744.365 79.4547C744.365 84.3683 745.594 88.2924 748.05 91.227C750.507 94.0933 754.022 95.5264 758.594 95.5264ZM885.232 116H862.507L838.45 79.557V116H815.724V43.5235H838.45L862.507 80.5807V43.5235H885.232V116ZM942.589 116.717C935.764 116.717 929.486 115.113 923.753 111.905C918.089 108.698 913.584 104.262 910.24 98.5975C906.896 92.9331 905.224 86.5522 905.224 79.4547C905.224 72.3572 906.896 65.9762 910.24 60.3119C913.584 54.6475 918.089 50.2457 923.753 47.1064C929.486 43.8989 935.764 42.2951 942.589 42.2951C949.413 42.2951 955.658 43.8989 961.322 47.1064C966.986 50.2457 971.456 54.6475 974.732 60.3119C978.076 65.9762 979.748 72.3572 979.748 79.4547C979.748 86.5522 978.076 92.9331 974.732 98.5975C971.456 104.262 966.952 108.698 961.22 111.905C955.555 115.113 949.345 116.717 942.589 116.717ZM942.589 95.5264C947.093 95.5264 950.573 94.0933 953.03 91.227C955.487 88.2924 956.715 84.3683 956.715 79.4547C956.715 74.4728 955.487 70.5487 953.03 67.6823C950.573 64.7478 947.093 63.2805 942.589 63.2805C938.016 63.2805 934.502 64.7478 932.045 67.6823C929.588 70.5487 928.36 74.4728 928.36 79.4547C928.36 84.3683 929.588 88.2924 932.045 91.227C934.502 94.0933 938.016 95.5264 942.589 95.5264ZM1028.07 116.717C1019.41 116.717 1012.24 114.703 1006.58 110.677C1000.98 106.582 997.944 100.611 997.467 92.7625H1021.63C1021.97 96.9254 1023.81 99.0069 1027.15 99.0069C1028.38 99.0069 1029.41 98.7339 1030.22 98.188C1031.11 97.5738 1031.56 96.6525 1031.56 95.4241C1031.56 93.7179 1030.63 92.353 1028.79 91.3293C1026.95 90.2374 1024.08 89.009 1020.19 87.6441C1015.55 86.0062 1011.7 84.4024 1008.62 82.8328C1005.62 81.2632 1003.03 78.9769 1000.84 75.9741C998.661 72.9714 997.603 69.1155 997.671 64.4066C997.671 59.6977 998.866 55.7053 1001.25 52.4295C1003.71 49.0855 1007.02 46.5604 1011.18 44.8543C1015.42 43.1482 1020.16 42.2951 1025.41 42.2951C1034.29 42.2951 1041.31 44.3425 1046.5 48.4372C1051.76 52.5319 1054.52 58.2986 1054.79 65.7374H1030.33C1030.26 63.69 1029.75 62.2227 1028.79 61.3355C1027.84 60.4483 1026.68 60.0048 1025.31 60.0048C1024.36 60.0048 1023.57 60.346 1022.96 61.0284C1022.34 61.6426 1022.03 62.5298 1022.03 63.69C1022.03 65.3279 1022.92 66.6928 1024.7 67.7847C1026.54 68.8084 1029.44 70.0709 1033.4 71.5723C1037.97 73.2785 1041.72 74.9163 1044.66 76.486C1047.66 78.0556 1050.25 80.2395 1052.44 83.0375C1054.62 85.8356 1055.71 89.3502 1055.71 93.5814C1055.71 98.0174 1054.62 102.01 1052.44 105.558C1050.25 109.039 1047.08 111.769 1042.92 113.748C1038.76 115.727 1033.81 116.717 1028.07 116.717Z" fill="#D3D1D7"/>
</g>
<defs>
<clipPath id="clip0_235_2739">
<rect width="1059" height="155" fill="white"/>
</clipPath>
</defs>
</svg>
